STARTFONT 2.3
FONT -FontForge-Source Sans Pro-Book-R-Normal-SansPro--16-160-72-72-P-78-ISO10646-1
SIZE 16 72 72  4
FONTBOUNDINGBOX 43 21 -8 -5
COMMENT "Generated by fontforge, http://fontforge.sourceforge.net"
COMMENT "Copyright 2010, 2012, 2014 Adobe Systems Incorporated (http://www.adobe.com/), with Reserved Font Name `Source'."
STARTPROPERTIES 41
FOUNDRY "FontForge"
FAMILY_NAME "Source Sans Pro"
WEIGHT_NAME "Book"
SLANT "R"
SETWIDTH_NAME "Normal"
ADD_STYLE_NAME "SansPro"
PIXEL_SIZE 16
POINT_SIZE 160
RESOLUTION_X 72
RESOLUTION_Y 72
SPACING "P"
AVERAGE_WIDTH 78
CHARSET_REGISTRY "ISO10646"
CHARSET_ENCODING "1"
FONTNAME_REGISTRY ""
CHARSET_COLLECTIONS "ISO8859-2 ISO8859-5 ISO8859-7 ISO8859-9 ISO8859-4 ISO10646-1"
BITS_PER_PIXEL 4
FONT_NAME "SourceSansPro-Regular"
FACE_NAME "Source Sans Pro Regular"
COPYRIGHT "Copyright 2010, 2012, 2014 Adobe Systems Incorporated (http://www.adobe.com/), with Reserved Font Name `Source'."
FONT_VERSION "2.021;PS 2.000;hotconv 1.0.86;makeotf.lib2.5.63406"
FONT_ASCENT 12
FONT_DESCENT 4
UNDERLINE_POSITION -2
UNDERLINE_THICKNESS 1
X_HEIGHT 7
CAP_HEIGHT 9
RAW_ASCENT 750
RAW_DESCENT 250
NORM_SPACE 3
RELATIVE_WEIGHT 40
RELATIVE_SETWIDTH 50
SUPERSCRIPT_X 0
SUPERSCRIPT_Y 5
SUPERSCRIPT_SIZE 9
SUBSCRIPT_X 0
SUBSCRIPT_Y 1
SUBSCRIPT_SIZE 9
FIGURE_WIDTH 8
AVG_LOWERCASE_WIDTH 81
AVG_UPPERCASE_WIDTH 96
ENDPROPERTIES
CHARS 1896
STARTCHAR space
ENCODING 32
SWIDTH 200 0
DWIDTH 3 0
BBX 1 1 0 0
BITMAP
00
ENDCHAR
STARTCHAR exclam
ENCODING 33
SWIDTH 289 0
DWIDTH 5 0
BBX 3 11 1 0
BITMAP
3800
5E00
4E00
4D00
4D00
3D00
3C00
2C00
0000
6E20
7E20
ENDCHAR
STARTCHAR quotedbl
ENCODING 34
SWIDTH 425 0
DWIDTH 7 0
BBX 5 4 1 7
BITMAP
BA0D70
A90D70
980B50
770A40
ENDCHAR
STARTCHAR numbersign
ENCODING 35
SWIDTH 497 0
DWIDTH 8 0
BBX 8 10 0 0
BITMAP
00670670
00840940
2FFFFFF7
00C10C00
00D00D00
00D00D00
7FFFFFF2
03A04900
05706700
07508500
ENDCHAR
STARTCHAR dollar
ENCODING 36
SWIDTH 497 0
DWIDTH 8 0
BBX 6 13 1 -1
BITMAP
007800
007800
19EFB2
8D2176
B90000
8D3000
09F920
003BE4
00009D
00005E
C611BA
4BEEA1
007800
ENDCHAR
STARTCHAR percent
ENCODING 37
SWIDTH 824 0
DWIDTH 13 0
BBX 13 11 0 0
BITMAP
000000003A0000
06ED5000B20000
2D23E104900000
6900B40C200000
6900B458000000
2D23E1C13CE900
06ED5670D51C50
00000C11E00690
00007701E00790
0001C000D51C50
000860003CE900
ENDCHAR
STARTCHAR ampersand
ENCODING 38
SWIDTH 609 0
DWIDTH 10 0
BBX 10 10 0 0
BITMAP
005DEA1000
00F41C5000
00F47E2000
009FC30010
04EF5001F2
2E98E207B0
6E00BE4E40
6D000BFB00
2E812AFF92
03BEEA26C5
ENDCHAR
STARTCHAR quotesingle
ENCODING 39
SWIDTH 249 0
DWIDTH 4 0
BBX 2 4 1 7
BITMAP
BA
A9
98
77
ENDCHAR
STARTCHAR parenleft
ENCODING 40
SWIDTH 303 0
DWIDTH 5 0
BBX 4 15 1 -3
BITMAP
00B1
05A0
0B40
2E00
5B00
8800
9700
A600
9700
8800
5B00
2E00
0B40
05A0
00B1
ENDCHAR
STARTCHAR parenright
ENCODING 41
SWIDTH 303 0
DWIDTH 5 0
BBX 4 15 0 -3
BITMAP
3A00
0D30
0790
02E0
00D3
00A6
0097
0088
0097
00A6
00D3
02E0
0790
0D30
3A00
ENDCHAR
STARTCHAR asterisk
ENCODING 42
SWIDTH 418 0
DWIDTH 7 0
BBX 5 5 1 6
BITMAP
02C000
87D760
5DFA30
1D9A00
250600
ENDCHAR
STARTCHAR plus
ENCODING 43
SWIDTH 497 0
DWIDTH 8 0
BBX 8 9 0 1
BITMAP
00011000
00088000
00088000
00088000
7FFFFFF6
00088000
00088000
00088000
00011000
ENDCHAR
STARTCHAR comma
ENCODING 44
SWIDTH 249 0
DWIDTH 4 0
BBX 4 5 0 -3
BITMAP
0AC0
0AF2
00D1
0980
1700
ENDCHAR
STARTCHAR hyphen
ENCODING 45
SWIDTH 311 0
DWIDTH 5 0
BBX 5 1 0 4
BITMAP
5FFF50
ENDCHAR
STARTCHAR period
ENCODING 46
SWIDTH 249 0
DWIDTH 4 0
BBX 2 2 1 0
BITMAP
BB
BB
ENDCHAR
STARTCHAR slash
ENCODING 47
SWIDTH 350 0
DWIDTH 6 0
BBX 6 14 0 -3
BITMAP
0000B4
0001D0
000590
000A50
000D10
004B00
008600
00D200
02C000
077000
0C3000
1D0000
690000
A40000
ENDCHAR
STARTCHAR zero
ENCODING 48
SWIDTH 497 0
DWIDTH 8 0
BBX 8 10 0 0
BITMAP
009EE800
08C22D70
0E5005E0
3F1002F2
4F0001F3
4F0001F3
3F1002F2
0E5006E0
08D22D70
009EE800
ENDCHAR
STARTCHAR one
ENCODING 49
SWIDTH 497 0
DWIDTH 8 0
BBX 6 10 1 0
BITMAP
04BE00
4FFE00
006E00
006E00
006E00
006E00
006E00
006E00
006E00
BFFFFF
ENDCHAR
STARTCHAR two
ENCODING 50
SWIDTH 497 0
DWIDTH 8 0
BBX 8 10 0 0
BITMAP
04CFD700
3E414E50
010009A0
00000AA0
00002F40
0001CB00
000BD100
01BE2000
1CE30000
5FFFFFF4
ENDCHAR
STARTCHAR three
ENCODING 51
SWIDTH 497 0
DWIDTH 8 0
BBX 8 10 0 0
BITMAP
04CFE910
1C513D90
000009B0
00015E50
007FF700
00015D80
000005F1
010004F1
5D402CA0
07CFD910
ENDCHAR
STARTCHAR four
ENCODING 52
SWIDTH 497 0
DWIDTH 8 0
BBX 8 10 0 0
BITMAP
0000BF20
0007DF20
003E5F20
01D72F20
0AB02F20
6E102F20
BFFFFFF8
00002F20
00002F20
00002F20
ENDCHAR
STARTCHAR five
ENCODING 53
SWIDTH 497 0
DWIDTH 8 0
BBX 8 10 0 0
BITMAP
07FFFFA0
08A00000
09900000
0A800000
0BDEEA20
05512CC0
000003F2
000004F2
5C303DA0
07DFD810
ENDCHAR
STARTCHAR six
ENCODING 54
SWIDTH 497 0
DWIDTH 8 0
BBX 8 10 0 0
BITMAP
004CFD60
03E61380
0B800000
1F300000
3F4CEC40
3FA218E1
2F2000F4
0E5001F3
07D319C0
007DEB20
ENDCHAR
STARTCHAR seven
ENCODING 55
SWIDTH 497 0
DWIDTH 8 0
BBX 8 10 0 0
BITMAP
4FFFFFF4
000008D1
00003F30
0000A900
0002F300
0007C000
000B9000
000E6000
000F5000
002F3000
ENDCHAR
STARTCHAR eight
ENCODING 56
SWIDTH 497 0
DWIDTH 8 0
BBX 8 10 0 0
BITMAP
019EEA10
09B11AA0
0C7004D0
06E50A90
00BFEC10
0AC4AF60
3E1005F2
4E0001F4
1D8118D1
02AEEA20
ENDCHAR
STARTCHAR nine
ENCODING 57
SWIDTH 497 0
DWIDTH 8 0
BBX 8 10 0 0
BITMAP
02BED600
1D814E60
4E0006D0
4E0003F1
1E713BF2
04CEC4F2
000004E0
000009A0
09316E30
07EFC300
ENDCHAR
STARTCHAR colon
ENCODING 58
SWIDTH 249 0
DWIDTH 4 0
BBX 2 8 1 0
BITMAP
BB
BB
00
00
00
00
BB
BB
ENDCHAR
STARTCHAR semicolon
ENCODING 59
SWIDTH 249 0
DWIDTH 4 0
BBX 4 11 0 -3
BITMAP
0BB0
0BB0
0000
0000
0000
0000
0AC0
0AF2
00D1
0980
1700
ENDCHAR
STARTCHAR less
ENCODING 60
SWIDTH 497 0
DWIDTH 8 0
BBX 8 6 0 2
BITMAP
000005A6
0039EB61
4DB61000
4DB61000
0039EB61
000005A6
ENDCHAR
STARTCHAR equal
ENCODING 61
SWIDTH 497 0
DWIDTH 8 0
BBX 8 5 0 3
BITMAP
7FFFFFF6
00000000
00000000
00000000
7FFFFFF6
ENDCHAR
STARTCHAR greater
ENCODING 62
SWIDTH 497 0
DWIDTH 8 0
BBX 8 6 0 2
BITMAP
6A400000
16BD8300
00016CC3
00016CC3
16BD8300
6A400000
ENDCHAR
STARTCHAR question
ENCODING 63
SWIDTH 425 0
DWIDTH 7 0
BBX 6 11 0 0
BITMAP
06DEB2
2B31AC
00004F
00007D
0002E5
000C90
004E10
006B00
000000
009D10
009D10
ENDCHAR
STARTCHAR at
ENCODING 64
SWIDTH 847 0
DWIDTH 14 0
BBX 13 13 0 -3
BITMAP
00004ADFEA3000
0009D61026D600
009A1000002D20
04C106EDA40780
0B505D33F204A0
0E00C401E004B0
2D00E104B00780
2C00D52CC03D10
1E005ED4CED400
0C400000010000
05D10000000000
008D6202730000
0004AEFD810000
ENDCHAR
STARTCHAR A
ENCODING 65
SWIDTH 544 0
DWIDTH 9 0
BBX 9 10 0 0
BITMAP
0009F40000
000EAA0000
004D3E1000
00A80D5000
01E309B000
05E004F100
0BFFFFF600
1F40009C00
6E00004F20
C900000E70
ENDCHAR
STARTCHAR B
ENCODING 66
SWIDTH 588 0
DWIDTH 9 0
BBX 8 10 1 0
BITMAP
8FFFEA30
8C002AE1
8C0003F2
8C002AB0
8FFFFE40
8C0016F5
8C0000AA
8C0000AA
8C0017F4
8FFFEB40
ENDCHAR
STARTCHAR C
ENCODING 67
SWIDTH 571 0
DWIDTH 9 0
BBX 9 10 0 0
BITMAP
0019DFD700
01DB303B20
09D0000000
0E60000000
2F40000000
2F40000000
0E70000000
0AD0000100
02DB203C60
0019EFD700
ENDCHAR
STARTCHAR D
ENCODING 68
SWIDTH 615 0
DWIDTH 10 0
BBX 8 10 1 0
BITMAP
8FFFD810
8C014CD1
8C0001E8
8C00009D
8C00006F
8C00007F
8C00009D
8C0001E8
8C014CC1
8FFFD810
ENDCHAR
STARTCHAR E
ENCODING 69
SWIDTH 527 0
DWIDTH 8 0
BBX 7 10 1 0
BITMAP
8FFFFF70
8C000000
8C000000
8C000000
8FFFFB00
8C000000
8C000000
8C000000
8C000000
8FFFFFA0
ENDCHAR
STARTCHAR F
ENCODING 70
SWIDTH 494 0
DWIDTH 8 0
BBX 7 10 1 0
BITMAP
8FFFFF70
8C000000
8C000000
8C000000
8C000000
8FFFFC00
8C000000
8C000000
8C000000
8C000000
ENDCHAR
STARTCHAR G
ENCODING 71
SWIDTH 617 0
DWIDTH 10 0
BBX 9 10 0 0
BITMAP
0018DFE920
01DB302A50
09D0000000
0E70000000
2F40000000
2F400AFFC0
0E700006C0
0AD00006C0
01DC302AC0
0019DFEA20
ENDCHAR
STARTCHAR H
ENCODING 72
SWIDTH 652 0
DWIDTH 10 0
BBX 8 10 1 0
BITMAP
8C00005F
8C00005F
8C00005F
8C00005F
8FFFFFFF
8C00005F
8C00005F
8C00005F
8C00005F
8C00005F
ENDCHAR
STARTCHAR I
ENCODING 73
SWIDTH 263 0
DWIDTH 4 0
BBX 2 10 1 0
BITMAP
8C
8C
8C
8C
8C
8C
8C
8C
8C
8C
ENDCHAR
STARTCHAR J
ENCODING 74
SWIDTH 480 0
DWIDTH 8 0
BBX 7 10 0 0
BITMAP
00001F40
00001F40
00001F40
00001F40
00001F40
00001F40
00001F40
01002F30
4D319D00
07DEC300
ENDCHAR
STARTCHAR K
ENCODING 75
SWIDTH 579 0
DWIDTH 9 0
BBX 8 10 1 0
BITMAP
8C0004E4
8C003E60
8C02D800
8C1CA000
8CBFC000
8FD2E700
8E206E20
8C000CA0
8C0003F4
8C00009D
ENDCHAR
STARTCHAR L
ENCODING 76
SWIDTH 486 0
DWIDTH 8 0
BBX 7 10 1 0
BITMAP
8C000000
8C000000
8C000000
8C000000
8C000000
8C000000
8C000000
8C000000
8C000000
8FFFFF50
ENDCHAR
STARTCHAR M
ENCODING 77
SWIDTH 727 0
DWIDTH 12 0
BBX 10 10 1 0
BITMAP
8F400009F3
8E90001DE3
8AE10069F3
89B600B4F3
8A5C02D1F3
8A1E2781F3
8A098D21F3
8A03EC01F3
8A00C601F3
8A000001F3
ENDCHAR
STARTCHAR N
ENCODING 78
SWIDTH 647 0
DWIDTH 10 0
BBX 8 10 1 0
BITMAP
8F20005E
8EB0005E
89D5005E
8A6D105E
8A0C805E
8B03F25E
8B009B5E
8B001E8E
8B0006EE
8B0000CE
ENDCHAR
STARTCHAR O
ENCODING 79
SWIDTH 664 0
DWIDTH 11 0
BBX 10 10 0 0
BITMAP
0029EFD700
02EB204EA0
0AC00003F4
0F600000CA
2F400000AC
2F400000AC
0E600000C9
0AD00004F4
02DB204E90
0029EFD700
ENDCHAR
STARTCHAR P
ENCODING 80
SWIDTH 566 0
DWIDTH 9 0
BBX 8 10 1 0
BITMAP
8FFFDA30
8C0029E1
8C0001F5
8C0001F5
8C002AD1
8FFFD920
8C000000
8C000000
8C000000
8C000000
ENDCHAR
STARTCHAR Q
ENCODING 81
SWIDTH 664 0
DWIDTH 11 0
BBX 10 13 0 -3
BITMAP
0029EFD700
02EB204EA0
0AC00003F4
0F600000C9
2F400000AC
2F400000AC
0F700000C9
09D00004F4
02DB204E90
002AEFD700
00002F5000
000007E511
0000006CFD
ENDCHAR
STARTCHAR R
ENCODING 82
SWIDTH 569 0
DWIDTH 9 0
BBX 8 10 1 0
BITMAP
8FFFEB30
8C0029E2
8C0000F6
8C0001F4
8C002AB0
8FFFF600
8C01E900
8C006F30
8C000BC0
8C0002F6
ENDCHAR
STARTCHAR S
ENCODING 83
SWIDTH 534 0
DWIDTH 9 0
BBX 8 10 0 0
BITMAP
007DFD81
07D303B4
0B900000
08E40000
019FC610
00028ED3
000001CB
0200007D
2E9203D7
03AEFD70
ENDCHAR
STARTCHAR T
ENCODING 84
SWIDTH 536 0
DWIDTH 9 0
BBX 9 10 0 0
BITMAP
8FFFFFFF20
0006E00000
0006E00000
0006E00000
0006E00000
0006E00000
0006E00000
0006E00000
0006E00000
0006E00000
ENDCHAR
STARTCHAR U
ENCODING 85
SWIDTH 645 0
DWIDTH 10 0
BBX 8 10 1 0
BITMAP
9B00005E
9B00005E
9B00005E
9B00005E
9B00005E
9B00005E
8B00006D
6E1000AA
1DA216F4
02AEEC50
ENDCHAR
STARTCHAR V
ENCODING 86
SWIDTH 515 0
DWIDTH 8 0
BBX 9 10 0 0
BITMAP
D900004F10
7D00009B00
2F3000D600
0C8003F100
07C008B000
02F20C6000
00C72F1000
007B7B0000
002FC60000
000CF10000
ENDCHAR
STARTCHAR W
ENCODING 87
SWIDTH 786 0
DWIDTH 13 0
BBX 13 10 0 0
BITMAP
8D0006F1003F10
4F100AE5006D00
1F400E99009A00
0D703D4D00C600
09A0791F20F300
06D0B50C63F000
03F1E108A6C000
00E7C004D98000
00BD8000ED5000
008F5000BF2000
ENDCHAR
STARTCHAR X
ENCODING 88
SWIDTH 513 0
DWIDTH 8 0
BBX 8 10 0 0
BITMAP
4F3000D7
0AB007D0
02E51E50
007D8B00
000DF200
002EE400
00A97D00
04E11D70
0D7005E2
7D1000CA
ENDCHAR
STARTCHAR Y
ENCODING 89
SWIDTH 476 0
DWIDTH 8 0
BBX 8 10 0 0
BITMAP
BA0001E6
4F2007D0
0B901E50
03F27C00
00B9D500
003FC000
000D7000
000D7000
000D7000
000D7000
ENDCHAR
STARTCHAR Z
ENCODING 90
SWIDTH 539 0
DWIDTH 9 0
BBX 8 10 0 0
BITMAP
0CFFFFFE
000002E8
00000CD0
00007F30
0003F700
000DC000
008E2000
04F60000
1DB00000
4FFFFFFE
ENDCHAR
STARTCHAR bracketleft
ENCODING 91
SWIDTH 303 0
DWIDTH 5 0
BBX 4 14 1 -3
BITMAP
8FF6
8800
8800
8800
8800
8800
8800
8800
8800
8800
8800
8800
8800
8FF6
ENDCHAR
STARTCHAR backslash
ENCODING 92
SWIDTH 350 0
DWIDTH 6 0
BBX 6 14 0 -3
BITMAP
950000
590000
1D0000
0B4000
068000
02D000
00C200
007700
003B00
000D10
000960
0004A0
0000D0
0000A4
ENDCHAR
STARTCHAR bracketright
ENCODING 93
SWIDTH 303 0
DWIDTH 5 0
BBX 4 14 0 -3
BITMAP
8FF5
00A5
00A5
00A5
00A5
00A5
00A5
00A5
00A5
00A5
00A5
00A5
00A5
8FF5
ENDCHAR
STARTCHAR asciicircum
ENCODING 94
SWIDTH 497 0
DWIDTH 8 0
BBX 6 6 1 4
BITMAP
00CC00
03CC30
0A6790
1E11E1
7A00A6
C4005B
ENDCHAR
STARTCHAR underscore
ENCODING 95
SWIDTH 500 0
DWIDTH 8 0
BBX 8 1 0 -2
BITMAP
CFFFFFFC
ENDCHAR
STARTCHAR grave
ENCODING 96
SWIDTH 542 0
DWIDTH 9 0
BBX 4 3 2 9
BITMAP
8700
3E60
02C1
ENDCHAR
STARTCHAR a
ENCODING 97
SWIDTH 504 0
DWIDTH 8 0
BBX 7 8 0 0
BITMAP
03AEEA10
06612D90
000007D0
0059DFE0
0AE737E0
2F3006E0
1F604EE0
06DEA5E0
ENDCHAR
STARTCHAR b
ENCODING 98
SWIDTH 553 0
DWIDTH 9 0
BBX 8 11 1 0
BITMAP
A9000000
A9000000
A9000000
AA8EE800
AE613E80
A90007E0
A90004F1
A90005F1
A90009D0
AE515F50
A8AED600
ENDCHAR
STARTCHAR c
ENCODING 99
SWIDTH 456 0
DWIDTH 7 0
BBX 7 8 0 0
BITMAP
006DEC40
07E51540
1E700000
3F300000
3F200000
1F600000
08E41460
007DEC50
ENDCHAR
STARTCHAR d
ENCODING 100
SWIDTH 555 0
DWIDTH 9 0
BBX 8 11 0 0
BITMAP
000000C8
000000C8
000000B8
007EE9C8
07E415E8
1E6000C8
3F3000C8
3F2000C8
1F5000C8
09D317F8
01AEE798
ENDCHAR
STARTCHAR e
ENCODING 101
SWIDTH 496 0
DWIDTH 8 0
BBX 8 8 0 0
BITMAP
006DEB20
07C317D0
1E3000E3
3FFFFFF5
3F200000
1F600000
07E51250
006DFD70
ENDCHAR
STARTCHAR f
ENCODING 102
SWIDTH 292 0
DWIDTH 5 0
BBX 5 11 0 0
BITMAP
01AED0
06E210
07D000
7FFF80
07D000
07D000
07D000
07D000
07D000
07D000
07D000
ENDCHAR
STARTCHAR g
ENCODING 103
SWIDTH 504 0
DWIDTH 8 0
BBX 8 11 0 -3
BITMAP
02AEFFFB
0BB12C70
0E5007B0
0AB12C80
03EEE900
0B500000
0B800000
05EFFFC5
1D20019C
3F5114C8
06CEEC60
ENDCHAR
STARTCHAR h
ENCODING 104
SWIDTH 544 0
DWIDTH 9 0
BBX 7 11 1 0
BITMAP
A9000000
A9000000
A9000000
A96DE900
AE714F40
AA000D70
A9000C80
A9000C80
A9000C80
A9000C80
A9000C80
ENDCHAR
STARTCHAR i
ENCODING 105
SWIDTH 246 0
DWIDTH 4 0
BBX 2 12 1 0
BITMAP
77
BA
00
00
A9
A9
A9
A9
A9
A9
A9
A9
ENDCHAR
STARTCHAR j
ENCODING 106
SWIDTH 247 0
DWIDTH 4 0
BBX 4 15 -1 -3
BITMAP
0067
00AA
0000
0000
00AA
00AA
00AA
00AA
00AA
00AA
00AA
00AA
00A9
11D7
7FB1
ENDCHAR
STARTCHAR k
ENCODING 107
SWIDTH 495 0
DWIDTH 8 0
BBX 7 11 1 0
BITMAP
A9000000
A9000000
A9000000
A9006E20
A903E300
A91D6000
A9AE1000
AEDD9000
AE24F400
A9009C00
A9001E70
ENDCHAR
STARTCHAR l
ENCODING 108
SWIDTH 255 0
DWIDTH 4 0
BBX 3 11 1 0
BITMAP
A900
A900
A900
A900
A900
A900
A900
A900
A900
AA00
5E50
ENDCHAR
STARTCHAR m
ENCODING 109
SWIDTH 829 0
DWIDTH 13 0
BBX 12 8 1 0
BITMAP
A78EE71AEC30
AE617FD41BC0
AA000F6005F0
A9000F5004F1
A9000F5004F1
A9000F5004F1
A9000F5004F1
A9000F5004F1
ENDCHAR
STARTCHAR n
ENCODING 110
SWIDTH 547 0
DWIDTH 9 0
BBX 7 8 1 0
BITMAP
A77EE900
AE714F40
AA000D70
A9000C80
A9000C80
A9000C80
A9000C80
A9000C80
ENDCHAR
STARTCHAR o
ENCODING 111
SWIDTH 542 0
DWIDTH 9 0
BBX 8 8 0 0
BITMAP
006DFC30
07E417F2
1E6000BA
3F20007D
3F20007D
1E6000BA
07E417F2
006DFC30
ENDCHAR
STARTCHAR p
ENCODING 112
SWIDTH 555 0
DWIDTH 9 0
BBX 8 11 1 -3
BITMAP
A78EE900
AE713E80
A90007E0
A90004F1
A90005F1
A90009D0
AD415F50
ABAED600
A9000000
A9000000
A9000000
ENDCHAR
STARTCHAR q
ENCODING 113
SWIDTH 555 0
DWIDTH 9 0
BBX 8 11 0 -3
BITMAP
007EE998
07E415E8
1E6000C8
3F3000C8
3F2000C8
1F5000C8
09D316F8
01AEE8B8
000000B8
000000C8
000000C8
ENDCHAR
STARTCHAR r
ENCODING 114
SWIDTH 347 0
DWIDTH 6 0
BBX 5 8 1 0
BITMAP
A78E70
AD6100
AA0000
A90000
A90000
A90000
A90000
A90000
ENDCHAR
STARTCHAR s
ENCODING 115
SWIDTH 419 0
DWIDTH 7 0
BBX 7 8 0 0
BITMAP
04CEC500
1E614500
1F400000
07FA4000
0028EA00
00003F20
3A316E10
18DFC400
ENDCHAR
STARTCHAR t
ENCODING 116
SWIDTH 338 0
DWIDTH 5 0
BBX 6 10 0 0
BITMAP
04D000
05D000
9FFFE0
07D000
07D000
07D000
07D000
07D000
04F310
009EE1
ENDCHAR
STARTCHAR u
ENCODING 117
SWIDTH 544 0
DWIDTH 9 0
BBX 7 8 1 0
BITMAP
C8000E60
C8000E60
C8000E60
C8000E60
C8000E60
B9001E60
8D22AE60
1BEC3B60
ENDCHAR
STARTCHAR v
ENCODING 118
SWIDTH 467 0
DWIDTH 7 0
BBX 8 8 0 0
BITMAP
AB0003F2
4F1008C0
0E500C60
09A02F10
04F17B00
00D5C600
008BF100
003FB000
ENDCHAR
STARTCHAR w
ENCODING 119
SWIDTH 718 0
DWIDTH 11 0
BBX 11 8 0 0
BITMAP
7D000E8004E0
3F204DC008B0
0E5087E10B70
0A90C3B50F30
06D1E0794E00
02F5B04D7A00
00DC700EC600
009F300BF200
ENDCHAR
STARTCHAR x
ENCODING 120
SWIDTH 446 0
DWIDTH 7 0
BBX 7 8 0 0
BITMAP
4F200D70
0AB07C00
01E5E400
007FA000
00AEB000
04E2E500
0D706E10
7D000C90
ENDCHAR
STARTCHAR y
ENCODING 121
SWIDTH 467 0
DWIDTH 7 0
BBX 8 11 0 -3
BITMAP
9B0002F2
3F2007B0
0C700C60
06D02F10
01E37B00
0099C500
003EE100
000CA000
001E4000
019C0000
5EB20000
ENDCHAR
STARTCHAR z
ENCODING 122
SWIDTH 425 0
DWIDTH 7 0
BBX 7 8 0 0
BITMAP
1FFFFF40
0000BD10
0006F400
002E8000
00CC0000
07F30000
3F700000
8FFFFF60
ENDCHAR
STARTCHAR braceleft
ENCODING 123
SWIDTH 303 0
DWIDTH 5 0
BBX 5 14 0 -3
BITMAP
00AF60
02E200
03D000
02D000
02E000
06D000
7F6000
06C000
01E000
02E000
03D000
03D000
02F200
00AF60
ENDCHAR
STARTCHAR bar
ENCODING 124
SWIDTH 241 0
DWIDTH 4 0
BBX 2 16 1 -4
BITMAP
86
86
86
86
86
86
86
86
86
86
86
86
86
86
86
86
ENDCHAR
STARTCHAR braceright
ENCODING 125
SWIDTH 303 0
DWIDTH 5 0
BBX 5 14 0 -3
BITMAP
8E8000
03F000
00F100
01F000
01E000
00E300
008F40
00E400
01E000
01E000
00F000
00F100
04F000
8E7000
ENDCHAR
STARTCHAR asciitilde
ENCODING 126
SWIDTH 497 0
DWIDTH 8 0
BBX 8 2 0 4
BITMAP
09EC51A2
3915CE80
ENDCHAR
STARTCHAR uni00A0
ENCODING 160
SWIDTH 202 0
DWIDTH 3 0
BBX 1 1 0 0
BITMAP
00
ENDCHAR
STARTCHAR exclamdown
ENCODING 161
SWIDTH 289 0
DWIDTH 5 0
BBX 3 11 1 -3
BITMAP
7E20
6E20
0000
2C00
3C00
3D00
4D00
4D00
4E00
5E00
3800
ENDCHAR
STARTCHAR cent
ENCODING 162
SWIDTH 497 0
DWIDTH 8 0
BBX 7 12 1 -1
BITMAP
00090000
000C1000
04CFE900
4F6C2500
B90C0000
E50C0000
E50C0000
C90C0000
4F5C2700
05CFD810
000C0000
00080000
ENDCHAR
STARTCHAR sterling
ENCODING 163
SWIDTH 497 0
DWIDTH 8 0
BBX 8 10 0 0
BITMAP
003CED70
01E81391
03F20000
00E40000
2FFFFF00
007B0000
008B0000
00C80000
08E10000
2FFFFFF4
ENDCHAR
STARTCHAR currency
ENCODING 164
SWIDTH 497 0
DWIDTH 8 0
BBX 8 8 0 1
BITMAP
13000031
4E9EE9E3
0BB22CA0
1F3003F0
1F3003F0
0BB22BA0
4E9EE9E3
13000031
ENDCHAR
STARTCHAR yen
ENCODING 165
SWIDTH 497 0
DWIDTH 8 0
BBX 8 10 0 0
BITMAP
6E1001E5
0D7007C0
05D00E40
00C56B00
004CD300
4FFFFFF4
000A9000
3CCEECC3
000A9000
000A9000
ENDCHAR
STARTCHAR brokenbar
ENCODING 166
SWIDTH 241 0
DWIDTH 4 0
BBX 2 16 1 -4
BITMAP
86
86
86
86
86
86
86
32
33
86
86
86
86
86
86
86
ENDCHAR
STARTCHAR section
ENCODING 167
SWIDTH 497 0
DWIDTH 8 0
BBX 8 12 0 -1
BITMAP
008EEA20
04E22720
05E10000
03FE7100
1E55DE40
4E0007E1
1E7000F3
03DD66D0
0006DF20
00001E40
08513F30
04CFD600
ENDCHAR
STARTCHAR dieresis
ENCODING 168
SWIDTH 542 0
DWIDTH 9 0
BBX 5 2 2 9
BITMAP
C60B70
C60B70
ENDCHAR
STARTCHAR copyright
ENCODING 169
SWIDTH 744 0
DWIDTH 12 0
BBX 12 11 0 0
BITMAP
0005CEEB4000
00AB4114C800
07A000000B50
0C108EE702B0
2A08A21600B1
380C400000A2
2A08A21710B0
0C119EE802B0
06A000000B50
009B4114C800
0005CEEB4000
ENDCHAR
STARTCHAR ordfeminine
ENCODING 170
SWIDTH 345 0
DWIDTH 6 0
BBX 5 6 0 6
BITMAP
19ED30
0517A0
05BEB0
3D44C0
5B18C0
1CE6A0
ENDCHAR
STARTCHAR guillemotleft
ENCODING 171
SWIDTH 429 0
DWIDTH 7 0
BBX 6 6 0 1
BITMAP
00832A
06B1C4
3D1A70
3D1A70
06A1C4
00832A
ENDCHAR
STARTCHAR logicalnot
ENCODING 172
SWIDTH 497 0
DWIDTH 8 0
BBX 8 5 0 1
BITMAP
7FFFFFF6
000000A6
000000A6
000000A6
00000011
ENDCHAR
STARTCHAR uni00AD
ENCODING 173
SWIDTH 311 0
DWIDTH 5 0
BBX 5 1 0 4
BITMAP
5FFF50
ENDCHAR
STARTCHAR registered
ENCODING 174
SWIDTH 423 0
DWIDTH 7 0
BBX 7 7 0 5
BITMAP
03CFB200
2C315B00
74CE7730
91CF5450
73A38730
2C315B00
04CEB200
ENDCHAR
STARTCHAR macron
ENCODING 175
SWIDTH 542 0
DWIDTH 9 0
BBX 5 1 2 10
BITMAP
CFFF70
ENDCHAR
STARTCHAR degree
ENCODING 176
SWIDTH 331 0
DWIDTH 5 0
BBX 5 4 0 7
BITMAP
09EC10
4A1680
4A1680
09EC20
ENDCHAR
STARTCHAR plusminus
ENCODING 177
SWIDTH 497 0
DWIDTH 8 0
BBX 8 9 0 0
BITMAP
00088000
00088000
00088000
7FFFFFF6
00088000
00088000
00076000
00000000
7FFFFFF6
ENDCHAR
STARTCHAR two.sups
ENCODING 178
SWIDTH 367 0
DWIDTH 6 0
BBX 6 6 0 6
BITMAP
08ED40
2917B0
000690
004D20
07D200
3FFFF2
ENDCHAR
STARTCHAR three.sups
ENCODING 179
SWIDTH 367 0
DWIDTH 6 0
BBX 5 6 0 6
BITMAP
06EE60
0827B0
00DF40
0004E0
3913E0
08ED50
ENDCHAR
STARTCHAR acute
ENCODING 180
SWIDTH 542 0
DWIDTH 9 0
BBX 4 3 3 9
BITMAP
00A4
0AB1
4A00
ENDCHAR
STARTCHAR uni00B5
ENCODING 181
SWIDTH 562 0
DWIDTH 9 0
BBX 8 10 1 -2
BITMAP
A9000D60
A9000D60
A9000D60
A9000D60
A9000D50
AA001E50
AE21AD70
ACEE66F7
A8000000
A9000000
ENDCHAR
STARTCHAR paragraph
ENCODING 182
SWIDTH 560 0
DWIDTH 9 0
BBX 8 12 0 -2
BITMAP
019DF3E6
0CFFF3E6
4FFFF3E6
5FFFF3E6
3FFFF3E6
0AFFF3E6
006BD3E6
000000E6
000000E6
000000E6
000000E6
000000B5
ENDCHAR
STARTCHAR periodcentered
ENCODING 183
SWIDTH 249 0
DWIDTH 4 0
BBX 2 2 1 4
BITMAP
BB
BB
ENDCHAR
STARTCHAR cedilla
ENCODING 184
SWIDTH 542 0
DWIDTH 9 0
BBX 3 6 3 -5
BITMAP
0100
1B00
6E40
19A0
2A80
E910
ENDCHAR
STARTCHAR one.sups
ENCODING 185
SWIDTH 367 0
DWIDTH 6 0
BBX 3 6 1 6
BITMAP
5CC0
04C0
04C0
04C0
04C0
04C0
ENDCHAR
STARTCHAR ordmasculine
ENCODING 186
SWIDTH 365 0
DWIDTH 6 0
BBX 6 6 0 6
BITMAP
07ED40
3D23E1
7800B4
7800B4
3D23E1
07ED40
ENDCHAR
STARTCHAR guillemotright
ENCODING 187
SWIDTH 429 0
DWIDTH 7 0
BBX 6 6 1 1
BITMAP
A16600
6B1C40
0982D1
0982D1
5B1C40
A16600
ENDCHAR
STARTCHAR onequarter
ENCODING 188
SWIDTH 781 0
DWIDTH 13 0
BBX 11 11 1 0
BITMAP
000000094000
9E60002B0000
096000A40000
096003B00000
09600A300000
09603A008F10
0960B206AD10
0004904B0D10
000C20BFFFF0
005800000D10
00C100000D10
ENDCHAR
STARTCHAR onehalf
ENCODING 189
SWIDTH 808 0
DWIDTH 13 0
BBX 12 11 1 0
BITMAP
0000000C1000
9E6000770000
096001C00000
096008600000
09601C000000
09608507ED40
0962C01916C0
0009400005A0
002B00004D20
00A30007D300
03A0002FFFF3
ENDCHAR
STARTCHAR threequarters
ENCODING 190
SWIDTH 796 0
DWIDTH 13 0
BBX 13 11 0 0
BITMAP
000000001C0000
06EE6000850000
0827B001C00000
00DF4009500000
0004E02B000000
3913E0A405F400
08ED53B03CA400
00000A32C2A400
00003A07FFFF30
0000B20000A400
0004900000A400
ENDCHAR
STARTCHAR questiondown
ENCODING 191
SWIDTH 425 0
DWIDTH 7 0
BBX 6 11 0 -3
BITMAP
002E60
002E60
000000
000F30
003F10
00C900
08D100
1F4000
3F1000
1E714A
04CFC4
ENDCHAR
STARTCHAR Agrave
ENCODING 192
SWIDTH 544 0
DWIDTH 9 0
BBX 9 14 0 0
BITMAP
0077000000
004E700000
0002B10000
0000000000
0009F40000
000EAA0000
004D3E1000
00A80D5000
01E309B000
05E004F100
0BFFFFF600
1F40009C00
6E00004F20
C900000E70
ENDCHAR
STARTCHAR Aacute
ENCODING 193
SWIDTH 544 0
DWIDTH 9 0
BBX 9 14 0 0
BITMAP
00000A3000
0000BC1000
0004A00000
0000000000
0009F40000
000EAA0000
004D3E1000
00A80D5000
01E309B000
05E004F100
0BFFFFF600
1F40009C00
6E00004F20
C900000E70
ENDCHAR
STARTCHAR Acircumflex
ENCODING 194
SWIDTH 544 0
DWIDTH 9 0
BBX 9 13 0 0
BITMAP
001CC80000
00A4086000
0000000000
0009F40000
000EAA0000
004D3E1000
00A80D5000
01E309B000
05E004F100
0BFFFFF600
1F40009C00
6E00004F20
C900000E70
ENDCHAR
STARTCHAR Atilde
ENCODING 195
SWIDTH 544 0
DWIDTH 9 0
BBX 9 14 0 0
BITMAP
0011001000
02DE81D100
05819E8000
0000000000
0009F40000
000EAA0000
004D3E1000
00A80D5000
01E309B000
05E004F100
0BFFFFF600
1F40009C00
6E00004F20
C900000E70
ENDCHAR
STARTCHAR Adieresis
ENCODING 196
SWIDTH 544 0
DWIDTH 9 0
BBX 9 13 0 0
BITMAP
00D4099000
00D4099000
0000000000
0009F40000
000EAA0000
004D3E1000
00A80D5000
01E309B000
05E004F100
0BFFFFF600
1F40009C00
6E00004F20
C900000E70
ENDCHAR
STARTCHAR Aring
ENCODING 197
SWIDTH 544 0
DWIDTH 9 0
BBX 9 14 0 0
BITMAP
000BE70000
002B2C0000
000BE70000
0000000000
0009F40000
000EAA0000
004D3E1000
00A80D5000
01E309B000
05E004F100
0BFFFFF600
1F40009C00
6E00004F20
C900000E70
ENDCHAR
STARTCHAR AE
ENCODING 198
SWIDTH 822 0
DWIDTH 13 0
BBX 13 10 0 0
BITMAP
00000AFFFFFF30
00003FAC000000
0000B89C000000
0005E19C000000
000D709FFFF700
006D109C000000
01EFFFFC000000
08D0009C000000
1E50009C000000
9C00009FFFFF60
ENDCHAR
STARTCHAR Ccedilla
ENCODING 199
SWIDTH 571 0
DWIDTH 9 0
BBX 9 15 0 -5
BITMAP
0019DFD700
01DB303B20
09D0000000
0E60000000
2F40000000
2F40000000
0E70000000
0AD0000100
02DB203C60
0019EFD700
00001B0000
00005E4000
000018A000
0000199000
0000DA1000
ENDCHAR
STARTCHAR Egrave
ENCODING 200
SWIDTH 527 0
DWIDTH 8 0
BBX 7 14 1 0
BITMAP
04900000
02D90000
001B3000
00000000
8FFFFF70
8C000000
8C000000
8C000000
8FFFFB00
8C000000
8C000000
8C000000
8C000000
8FFFFFA0
ENDCHAR
STARTCHAR Eacute
ENCODING 201
SWIDTH 527 0
DWIDTH 8 0
BBX 7 14 1 0
BITMAP
00008500
0008D300
002B1000
00000000
8FFFFF70
8C000000
8C000000
8C000000
8FFFFB00
8C000000
8C000000
8C000000
8C000000
8FFFFFA0
ENDCHAR
STARTCHAR Ecircumflex
ENCODING 202
SWIDTH 527 0
DWIDTH 8 0
BBX 7 13 1 0
BITMAP
00ACB000
07605800
00000000
8FFFFF70
8C000000
8C000000
8C000000
8FFFFB00
8C000000
8C000000
8C000000
8C000000
8FFFFFA0
ENDCHAR
STARTCHAR Edieresis
ENCODING 203
SWIDTH 527 0
DWIDTH 8 0
BBX 7 13 1 0
BITMAP
0A706C00
0A706C00
00000000
8FFFFF70
8C000000
8C000000
8C000000
8FFFFB00
8C000000
8C000000
8C000000
8C000000
8FFFFFA0
ENDCHAR
STARTCHAR Igrave
ENCODING 204
SWIDTH 263 0
DWIDTH 4 0
BBX 3 14 0 0
BITMAP
A400
7E40
04A0
0000
08C0
08C0
08C0
08C0
08C0
08C0
08C0
08C0
08C0
08C0
ENDCHAR
STARTCHAR Iacute
ENCODING 205
SWIDTH 263 0
DWIDTH 4 0
BBX 4 14 1 0
BITMAP
02B1
2D90
8700
0000
8C00
8C00
8C00
8C00
8C00
8C00
8C00
8C00
8C00
8C00
ENDCHAR
STARTCHAR Icircumflex
ENCODING 206
SWIDTH 263 0
DWIDTH 4 0
BBX 6 13 -1 0
BITMAP
03DD50
1B21A3
000000
008C00
008C00
008C00
008C00
008C00
008C00
008C00
008C00
008C00
008C00
ENDCHAR
STARTCHAR Idieresis
ENCODING 207
SWIDTH 263 0
DWIDTH 4 0
BBX 6 13 -1 0
BITMAP
3E10D5
3E10D5
000000
008C00
008C00
008C00
008C00
008C00
008C00
008C00
008C00
008C00
008C00
ENDCHAR
STARTCHAR Eth
ENCODING 208
SWIDTH 638 0
DWIDTH 10 0
BBX 10 10 0 0
BITMAP
03FFFEA300
03F2029F40
03F2000AD0
03F20003F3
7FFFF801F5
03F20001F5
03F20003F3
03F2000AD0
03F2029E40
03FFFEA300
ENDCHAR
STARTCHAR Ntilde
ENCODING 209
SWIDTH 647 0
DWIDTH 10 0
BBX 8 14 1 0
BITMAP
00110010
03EE72E0
0761AE70
00000000
8F20005E
8EB0005E
89D5005E
8A6D105E
8A0C805E
8B03F25E
8B009B5E
8B001E8E
8B0006EE
8B0000CE
ENDCHAR
STARTCHAR Ograve
ENCODING 210
SWIDTH 664 0
DWIDTH 11 0
BBX 10 14 0 0
BITMAP
0007600000
0004E60000
00002B0000
0000000000
0029EFD700
02EB204EA0
0AC00003F4
0F600000CA
2F400000AC
2F400000AC
0E600000C9
0AD00004F4
02DB204E90
0029EFD700
ENDCHAR
STARTCHAR Oacute
ENCODING 211
SWIDTH 664 0
DWIDTH 11 0
BBX 10 14 0 0
BITMAP
000001A200
00001BB100
0000490000
0000000000
0029EFD700
02EB204EA0
0AC00003F4
0F600000CA
2F400000AC
2F400000AC
0E600000C9
0AD00004F4
02DB204E90
0029EFD700
ENDCHAR
STARTCHAR Ocircumflex
ENCODING 212
SWIDTH 664 0
DWIDTH 11 0
BBX 10 13 0 0
BITMAP
0001CD8000
000A408600
0000000000
0029EFD700
02EB204EA0
0AC00003F4
0F600000CA
2F400000AC
2F400000AC
0E600000C9
0AD00004F4
02DB204E90
0029EFD700
ENDCHAR
STARTCHAR Otilde
ENCODING 213
SWIDTH 664 0
DWIDTH 11 0
BBX 10 14 0 0
BITMAP
0001100100
002EE81D10
00671AE800
0000000000
0029EFD700
02EB204EA0
0AC00003F4
0F600000CA
2F400000AC
2F400000AC
0E600000C9
0AD00004F4
02DB204E90
0029EFD700
ENDCHAR
STARTCHAR Odieresis
ENCODING 214
SWIDTH 664 0
DWIDTH 11 0
BBX 10 13 0 0
BITMAP
000D409800
000D40A800
0000000000
0029EFD700
02EB204EA0
0AC00003F4
0F600000CA
2F400000AC
2F400000AC
0E600000C9
0AD00004F4
02DB204E90
0029EFD700
ENDCHAR
STARTCHAR multiply
ENCODING 215
SWIDTH 497 0
DWIDTH 8 0
BBX 7 7 0 2
BITMAP
1B1002B0
08C11D70
009BC900
000ED000
00ABB900
08C11C80
1B1002B0
ENDCHAR
STARTCHAR Oslash
ENCODING 216
SWIDTH 664 0
DWIDTH 11 0
BBX 10 12 0 -1
BITMAP
0000000002
0029EEC78A
02EB215EE2
0AD0003EF2
0E6002E6D9
2F401D809C
1F51C9009C
0D9BB000BB
06FC1002F6
06FC304DB0
1E59DFD700
0200000000
ENDCHAR
STARTCHAR Ugrave
ENCODING 217
SWIDTH 645 0
DWIDTH 10 0
BBX 8 14 1 0
BITMAP
00940000
006E4000
0004A000
00000000
9B00005E
9B00005E
9B00005E
9B00005E
9B00005E
9B00005E
8B00006D
6E1000AA
1DA216F4
02AEEC50
ENDCHAR
STARTCHAR Uacute
ENCODING 218
SWIDTH 645 0
DWIDTH 10 0
BBX 8 14 1 0
BITMAP
00001B10
0001DA00
00077000
00000000
9B00005E
9B00005E
9B00005E
9B00005E
9B00005E
9B00005E
8B00006D
6E1000AA
1DA216F4
02AEEC50
ENDCHAR
STARTCHAR Ucircumflex
ENCODING 219
SWIDTH 645 0
DWIDTH 10 0
BBX 8 13 1 0
BITMAP
002DD600
01B31A30
00000000
9B00005E
9B00005E
9B00005E
9B00005E
9B00005E
9B00005E
8B00006D
6E1000AA
1DA216F4
02AEEC50
ENDCHAR
STARTCHAR Udieresis
ENCODING 220
SWIDTH 645 0
DWIDTH 10 0
BBX 8 13 1 0
BITMAP
02E20C60
02E20C60
00000000
9B00005E
9B00005E
9B00005E
9B00005E
9B00005E
9B00005E
8B00006D
6E1000AA
1DA216F4
02AEEC50
ENDCHAR
STARTCHAR Yacute
ENCODING 221
SWIDTH 476 0
DWIDTH 8 0
BBX 8 14 0 0
BITMAP
00005900
0005E500
000B3000
00000000
BA0001E6
4F2007D0
0B901E50
03F27C00
00B9D500
003FC000
000D7000
000D7000
000D7000
000D7000
ENDCHAR
STARTCHAR Thorn
ENCODING 222
SWIDTH 583 0
DWIDTH 9 0
BBX 8 10 1 0
BITMAP
8C000000
8FFFEA30
8C0029E1
8C0000E6
8C0000D8
8C0001E6
8C002AD1
8FFFDA20
8C000000
8C000000
ENDCHAR
STARTCHAR germandbls
ENCODING 223
SWIDTH 576 0
DWIDTH 9 0
BBX 8 11 1 0
BITMAP
06DEC300
4F518D00
9B005E00
A900B900
A906D100
A909B000
A903EB30
A90018F4
A900009A
A90621B9
A908DEA1
ENDCHAR
STARTCHAR agrave
ENCODING 224
SWIDTH 504 0
DWIDTH 8 0
BBX 7 12 0 0
BITMAP
00A50000
005E4000
0004B000
00000000
03AEEA10
06612D90
000007D0
0059DFE0
0AE737E0
2F3006E0
1F604EE0
06DEA5E0
ENDCHAR
STARTCHAR aacute
ENCODING 225
SWIDTH 504 0
DWIDTH 8 0
BBX 7 12 0 0
BITMAP
00001B20
0001CA00
00068000
00000000
03AEEA10
06612D90
000007D0
0059DFE0
0AE737E0
2F3006E0
1F604EE0
06DEA5E0
ENDCHAR
STARTCHAR acircumflex
ENCODING 226
SWIDTH 504 0
DWIDTH 8 0
BBX 7 12 0 0
BITMAP
000CF300
009A5D10
02A00670
00000000
03AEEA10
06612D90
000007D0
0059DFE0
0AE737E0
2F3006E0
1F604EE0
06DEA5E0
ENDCHAR
STARTCHAR atilde
ENCODING 227
SWIDTH 504 0
DWIDTH 8 0
BBX 7 12 0 0
BITMAP
00340040
04DC83C0
0751AE50
00000000
03AEEA10
06612D90
000007D0
0059DFE0
0AE737E0
2F3006E0
1F604EE0
06DEA5E0
ENDCHAR
STARTCHAR adieresis
ENCODING 228
SWIDTH 504 0
DWIDTH 8 0
BBX 7 11 0 0
BITMAP
01E40D50
01E40D50
00000000
03AEEA10
06612D90
000007D0
0059DFE0
0AE737E0
2F3006E0
1F604EE0
06DEA5E0
ENDCHAR
STARTCHAR aring
ENCODING 229
SWIDTH 504 0
DWIDTH 8 0
BBX 7 12 0 0
BITMAP
003DE700
00882D00
003DE700
00000000
03AEEA10
06612D90
000007D0
0059DFE0
0AE737E0
2F3006E0
1F604EE0
06DEA5E0
ENDCHAR
STARTCHAR ae
ENCODING 230
SWIDTH 785 0
DWIDTH 13 0
BBX 12 8 0 0
BITMAP
03AEE907ED80
05722CCA11C7
000006F1005C
0049DFFAAABE
09E735E55554
1F5003F20000
0E814DCC3153
05DEB308EEB4
ENDCHAR
STARTCHAR ccedilla
ENCODING 231
SWIDTH 456 0
DWIDTH 7 0
BBX 7 13 0 -5
BITMAP
006DEC40
07E51540
1E700000
3F300000
3F200000
1F600000
08E41460
007DFC50
0002A000
0007E300
0001A900
0002A700
001E9000
ENDCHAR
STARTCHAR egrave
ENCODING 232
SWIDTH 496 0
DWIDTH 8 0
BBX 8 12 0 0
BITMAP
00A50000
004E4000
0003B000
00000000
006DEB20
07C317D0
1E3000E3
3FFFFFF5
3F200000
1F600000
07E51250
006DFD70
ENDCHAR
STARTCHAR eacute
ENCODING 233
SWIDTH 496 0
DWIDTH 8 0
BBX 8 12 0 0
BITMAP
00001B30
0001CA10
00069000
00000000
006DEB20
07C317D0
1E3000E3
3FFFFFF5
3F200000
1F600000
07E51250
006DFD70
ENDCHAR
STARTCHAR ecircumflex
ENCODING 234
SWIDTH 496 0
DWIDTH 8 0
BBX 8 12 0 0
BITMAP
000CF400
008B5D10
01B10570
00000000
006DEB20
07C317D0
1E3000E3
3FFFFFF5
3F200000
1F600000
07E51250
006DFD70
ENDCHAR
STARTCHAR edieresis
ENCODING 235
SWIDTH 496 0
DWIDTH 8 0
BBX 8 11 0 0
BITMAP
00D40C60
00D40C60
00000000
006DEB20
07C317D0
1E3000E3
3FFFFFF5
3F200000
1F600000
07E51250
006DFD70
ENDCHAR
STARTCHAR igrave
ENCODING 236
SWIDTH 246 0
DWIDTH 4 0
BBX 4 12 -1 0
BITMAP
1B20
08D2
0069
0000
00A9
00A9
00A9
00A9
00A9
00A9
00A9
00A9
ENDCHAR
STARTCHAR iacute
ENCODING 237
SWIDTH 246 0
DWIDTH 4 0
BBX 4 12 1 0
BITMAP
03B1
2E70
9500
0000
A900
A900
A900
A900
A900
A900
A900
A900
ENDCHAR
STARTCHAR icircumflex
ENCODING 238
SWIDTH 246 0
DWIDTH 4 0
BBX 6 12 -1 0
BITMAP
02EE10
0C78B0
480093
000000
00A900
00A900
00A900
00A900
00A900
00A900
00A900
00A900
ENDCHAR
STARTCHAR idieresis
ENCODING 239
SWIDTH 246 0
DWIDTH 4 0
BBX 6 11 -1 0
BITMAP
3E12E2
3E12E2
000000
00A900
00A900
00A900
00A900
00A900
00A900
00A900
00A900
ENDCHAR
STARTCHAR eth
ENCODING 240
SWIDTH 545 0
DWIDTH 9 0
BBX 8 11 0 0
BITMAP
00891055
002ADCC2
002BFD00
00D83E80
000005F2
019DE9E8
0BC314DA
1F30008B
1F3000A8
0AC315E2
008DFC30
ENDCHAR
STARTCHAR ntilde
ENCODING 241
SWIDTH 547 0
DWIDTH 9 0
BBX 7 12 1 0
BITMAP
01510220
0BBD3A50
1C04DB00
00000000
A77EE900
AE714F40
AA000D70
A9000C80
A9000C80
A9000C80
A9000C80
A9000C80
ENDCHAR
STARTCHAR ograve
ENCODING 242
SWIDTH 542 0
DWIDTH 9 0
BBX 8 12 0 0
BITMAP
00870000
003E6000
0002C100
00000000
006DFC30
07E417F2
1E6000BA
3F20007D
3F20007D
1E6000BA
07E417F2
006DFC30
ENDCHAR
STARTCHAR oacute
ENCODING 243
SWIDTH 542 0
DWIDTH 9 0
BBX 8 12 0 0
BITMAP
00000A40
0000AB10
0004A000
00000000
006DFC30
07E417F2
1E6000BA
3F20007D
3F20007D
1E6000BA
07E417F2
006DFC30
ENDCHAR
STARTCHAR ocircumflex
ENCODING 244
SWIDTH 542 0
DWIDTH 9 0
BBX 8 12 0 0
BITMAP
000AF600
007C4E20
00B10480
00000000
006DFC30
07E417F2
1E6000BA
3F20007D
3F20007D
1E6000BA
07E417F2
006DFC30
ENDCHAR
STARTCHAR otilde
ENCODING 245
SWIDTH 542 0
DWIDTH 9 0
BBX 8 12 0 0
BITMAP
00340030
02DCA2E0
05808E70
00000000
006DFC30
07E417F2
1E6000BA
3F20007D
3F20007D
1E6000BA
07E417F2
006DFC30
ENDCHAR
STARTCHAR odieresis
ENCODING 246
SWIDTH 542 0
DWIDTH 9 0
BBX 8 11 0 0
BITMAP
00C60B70
00C60B70
00000000
006DFC30
07E417F2
1E6000BA
3F20007D
3F20007D
1E6000BA
07E417F2
006DFC30
ENDCHAR
STARTCHAR divide
ENCODING 247
SWIDTH 497 0
DWIDTH 8 0
BBX 8 7 0 2
BITMAP
000A9000
00000000
00000000
7FFFFFF6
00000000
00000000
000A9000
ENDCHAR
STARTCHAR oslash
ENCODING 248
SWIDTH 542 0
DWIDTH 9 0
BBX 8 10 0 -1
BITMAP
00000001
006DEB6A
07D418F4
1E501BBA
3F10A46D
3F19606D
1EA800AA
09F416F2
1C7DFC30
01000000
ENDCHAR
STARTCHAR ugrave
ENCODING 249
SWIDTH 544 0
DWIDTH 9 0
BBX 7 12 1 0
BITMAP
08700000
03E60000
002B1000
00000000
C8000E60
C8000E60
C8000E60
C8000E60
C8000E60
B9001E60
8D22AE60
1BEC3B60
ENDCHAR
STARTCHAR uacute
ENCODING 250
SWIDTH 544 0
DWIDTH 9 0
BBX 7 12 1 0
BITMAP
0000A400
000AC100
004A0000
00000000
C8000E60
C8000E60
C8000E60
C8000E60
C8000E60
B9001E60
8D22AE60
1BEC3B60
ENDCHAR
STARTCHAR ucircumflex
ENCODING 251
SWIDTH 544 0
DWIDTH 9 0
BBX 7 12 1 0
BITMAP
00AF6000
06C4E300
0B104900
00000000
C8000E60
C8000E60
C8000E60
C8000E60
C8000E60
B9001E60
8D22AE60
1BEC3B60
ENDCHAR
STARTCHAR udieresis
ENCODING 252
SWIDTH 544 0
DWIDTH 9 0
BBX 7 11 1 0
BITMAP
0C60A700
0C60A700
00000000
C8000E60
C8000E60
C8000E60
C8000E60
C8000E60
B9001E60
8D22AE60
1BEC3B60
ENDCHAR
STARTCHAR yacute
ENCODING 253
SWIDTH 467 0
DWIDTH 7 0
BBX 8 15 0 -3
BITMAP
00004B00
0003E600
000A4000
00000000
9B0002F2
3F2007B0
0C700C60
06D02F10
01E37B00
0099C500
003EE100
000CA000
001E4000
019C0000
5EB20000
ENDCHAR
STARTCHAR thorn
ENCODING 254
SWIDTH 555 0
DWIDTH 9 0
BBX 8 14 1 -3
BITMAP
A9000000
A9000000
A9000000
AA8EE800
AE613E80
A90007E0
A90004F1
A90005F1
A90009D0
AD415F50
ABAED600
A9000000
A9000000
A9000000
ENDCHAR
STARTCHAR ydieresis
ENCODING 255
SWIDTH 467 0
DWIDTH 7 0
BBX 8 14 0 -3
BITMAP
04D03E10
04D03E10
00000000
9B0002F2
3F2007B0
0C700C60
06D02F10
01E37B00
0099C500
003EE100
000CA000
001E4000
019C0000
5EB20000
ENDCHAR
STARTCHAR Amacron
ENCODING 256
SWIDTH 544 0
DWIDTH 9 0
BBX 9 12 0 0
BITMAP
00CFFF7000
0000000000
0009F40000
000EAA0000
004D3E1000
00A80D5000
01E309B000
05E004F100
0BFFFFF600
1F40009C00
6E00004F20
C900000E70
ENDCHAR
STARTCHAR amacron
ENCODING 257
SWIDTH 504 0
DWIDTH 8 0
BBX 7 11 0 0
BITMAP
00EFFF50
00000000
00000000
03AEEA10
06612D90
000007D0
0059DFE0
0AE737E0
2F3006E0
1F604EE0
06DEA5E0
ENDCHAR
STARTCHAR Abreve
ENCODING 258
SWIDTH 544 0
DWIDTH 9 0
BBX 9 13 0 0
BITMAP
00C3078000
004DEB1000
0000000000
0009F40000
000EAA0000
004D3E1000
00A80D5000
01E309B000
05E004F100
0BFFFFF600
1F40009C00
6E00004F20
C900000E70
ENDCHAR
STARTCHAR abreve
ENCODING 259
SWIDTH 504 0
DWIDTH 8 0
BBX 7 12 0 0
BITMAP
03900480
01D41C50
004DE800
00000000
03AEEA10
06612D90
000007D0
0059DFE0
0AE737E0
2F3006E0
1F604EE0
06DEA5E0
ENDCHAR
STARTCHAR Aogonek
ENCODING 260
SWIDTH 544 0
DWIDTH 9 0
BBX 9 13 0 -3
BITMAP
0009F40000
000EAA0000
004D3E1000
00A80D5000
01E309B000
05E004F100
0BFFFFF600
1F40009C00
6E00004F20
C900000E70
0000002B20
0000009810
0000005EC0
ENDCHAR
STARTCHAR aogonek
ENCODING 261
SWIDTH 504 0
DWIDTH 8 0
BBX 8 11 0 -3
BITMAP
03AEEA10
06612C90
000007D0
005ADFE0
0AE726E0
2F3006E0
1F604EE0
06DEA5E0
00001A30
00006A10
00003DD1
ENDCHAR
STARTCHAR Cacute
ENCODING 262
SWIDTH 571 0
DWIDTH 9 0
BBX 9 14 0 0
BITMAP
000001B200
00001BB100
0000590000
0000000000
0019DFD700
01DB303B20
09D0000000
0E60000000
2F40000000
2F40000000
0E70000000
0AD0000100
02DB203C60
0019EFD700
ENDCHAR
STARTCHAR cacute
ENCODING 263
SWIDTH 456 0
DWIDTH 7 0
BBX 7 12 0 0
BITMAP
00000960
00009D20
0003B100
00000000
006DEC40
07E51540
1E700000
3F300000
3F200000
1F600000
08E41460
007DEC50
ENDCHAR
STARTCHAR Ccircumflex
ENCODING 264
SWIDTH 571 0
DWIDTH 9 0
BBX 9 13 0 0
BITMAP
0001CD7000
000A408500
0000000000
0019DFD700
01DB303B20
09D0000000
0E60000000
2F40000000
2F40000000
0E70000000
0AD0000100
02DB203C60
0019EFD700
ENDCHAR
STARTCHAR ccircumflex
ENCODING 265
SWIDTH 456 0
DWIDTH 7 0
BBX 7 12 0 0
BITMAP
0008F800
005D4D40
00A203A0
00000000
006DEC40
07E51540
1E700000
3F300000
3F200000
1F600000
08E41460
007DEC50
ENDCHAR
STARTCHAR Cdotaccent
ENCODING 266
SWIDTH 571 0
DWIDTH 9 0
BBX 9 13 0 0
BITMAP
00006E1000
00006E1000
0000000000
0019DFD700
01DB303B20
09D0000000
0E60000000
2F40000000
2F40000000
0E70000000
0AD0000100
02DB203C60
0019EFD700
ENDCHAR
STARTCHAR cdotaccent
ENCODING 267
SWIDTH 456 0
DWIDTH 7 0
BBX 7 11 0 0
BITMAP
0003E200
0003E200
00000000
006DEC40
07E51540
1E700000
3F300000
3F200000
1F600000
08E41460
007DEC50
ENDCHAR
STARTCHAR Ccaron
ENCODING 268
SWIDTH 571 0
DWIDTH 9 0
BBX 9 13 0 0
BITMAP
000A408500
0001CD7000
0000000000
0019DFD700
01DB303B20
09D0000000
0E60000000
2F40000000
2F40000000
0E70000000
0AD0000100
02DB203C60
0019EFD700
ENDCHAR
STARTCHAR ccaron
ENCODING 269
SWIDTH 456 0
DWIDTH 7 0
BBX 7 12 0 0
BITMAP
00A203A0
005D4D40
0008F800
00000000
006DEC40
07E51540
1E700000
3F300000
3F200000
1F600000
08E41460
007DEC50
ENDCHAR
STARTCHAR Dcaron
ENCODING 270
SWIDTH 615 0
DWIDTH 10 0
BBX 8 13 1 0
BITMAP
03A12B10
005DD300
00000000
8FFFD810
8C014CD1
8C0001E8
8C00009D
8C00006F
8C00007F
8C00009D
8C0001E8
8C014CC1
8FFFD810
ENDCHAR
STARTCHAR dcaron
ENCODING 271
SWIDTH 573 0
DWIDTH 9 0
BBX 10 12 0 0
BITMAP
0000000095
000000C884
000000C882
000000B800
007EE9C800
07E415E800
1E6000C800
3F3000C800
3F2000C800
1F5000C800
09D317F800
01AEE79800
ENDCHAR
STARTCHAR Dcroat
ENCODING 272
SWIDTH 638 0
DWIDTH 10 0
BBX 10 10 0 0
BITMAP
03FFFEA300
03F2029F40
03F2000AD0
03F20003F3
7FFFF801F5
03F20001F5
03F20003F3
03F2000AD0
03F2029E40
03FFFEA300
ENDCHAR
STARTCHAR dcroat
ENCODING 273
SWIDTH 555 0
DWIDTH 9 0
BBX 9 11 0 0
BITMAP
000000C800
0005FFFFA0
000000C800
000000B800
008DE9C800
09D415E800
2F5000C800
3F2000C800
2F4000C800
0BC317F800
01AEE89800
ENDCHAR
STARTCHAR Emacron
ENCODING 274
SWIDTH 527 0
DWIDTH 8 0
BBX 7 12 1 0
BITMAP
09FFFA00
00000000
8FFFFF70
8C000000
8C000000
8C000000
8FFFFB00
8C000000
8C000000
8C000000
8C000000
8FFFFFA0
ENDCHAR
STARTCHAR emacron
ENCODING 275
SWIDTH 496 0
DWIDTH 8 0
BBX 8 11 0 0
BITMAP
00DFFF50
00000000
00000000
006DEB20
07C317D0
1E3000E3
3FFFFFF5
3F200000
1F600000
07E51250
006DFD70
ENDCHAR
STARTCHAR Ebreve
ENCODING 276
SWIDTH 527 0
DWIDTH 8 0
BBX 7 13 1 0
BITMAP
09504B00
02CEC300
00000000
8FFFFF70
8C000000
8C000000
8C000000
8FFFFB00
8C000000
8C000000
8C000000
8C000000
8FFFFFA0
ENDCHAR
STARTCHAR ebreve
ENCODING 277
SWIDTH 496 0
DWIDTH 8 0
BBX 8 12 0 0
BITMAP
02A00390
00D41B60
004DE900
00000000
006DEB20
07C317D0
1E3000E3
3FFFFFF5
3F200000
1F600000
07E51250
006DFD70
ENDCHAR
STARTCHAR Edotaccent
ENCODING 278
SWIDTH 527 0
DWIDTH 8 0
BBX 7 13 1 0
BITMAP
003E4000
003E4000
00000000
8FFFFF70
8C000000
8C000000
8C000000
8FFFFB00
8C000000
8C000000
8C000000
8C000000
8FFFFFA0
ENDCHAR
STARTCHAR edotaccent
ENCODING 279
SWIDTH 496 0
DWIDTH 8 0
BBX 8 11 0 0
BITMAP
0006D000
0006D000
00000000
006DEB20
07C317D0
1E3000E3
3FFFFFF5
3F200000
1F600000
07E51250
006DFD70
ENDCHAR
STARTCHAR Eogonek
ENCODING 280
SWIDTH 527 0
DWIDTH 8 0
BBX 7 13 1 -3
BITMAP
8FFFFF70
8C000000
8C000000
8C000000
8FFFFB00
8C000000
8C000000
8C000000
8C000000
8FFFFFA0
00004910
0000D410
00008E90
ENDCHAR
STARTCHAR eogonek
ENCODING 281
SWIDTH 496 0
DWIDTH 8 0
BBX 8 11 0 -3
BITMAP
006DEB20
07C317D0
1E3000E3
3FFFFFF5
3F200000
1F600000
07E51260
006DFF90
00004900
0000A610
00006EA0
ENDCHAR
STARTCHAR Ecaron
ENCODING 282
SWIDTH 527 0
DWIDTH 8 0
BBX 7 13 1 0
BITMAP
07705800
00ADB100
00000000
8FFFFF70
8C000000
8C000000
8C000000
8FFFFB00
8C000000
8C000000
8C000000
8C000000
8FFFFFA0
ENDCHAR
STARTCHAR ecaron
ENCODING 283
SWIDTH 496 0
DWIDTH 8 0
BBX 8 12 0 0
BITMAP
01B10570
008B5D20
000CF400
00000000
006DEB20
07C317D0
1E3000E3
3FFFFFF5
3F200000
1F600000
07E51250
006DFD70
ENDCHAR
STARTCHAR Gcircumflex
ENCODING 284
SWIDTH 617 0
DWIDTH 10 0
BBX 9 13 0 0
BITMAP
00008CC100
0006804900
0000000000
0018DFE920
01DB302A50
09D0000000
0E70000000
2F40000000
2F400AFFC0
0E700006C0
0AD00006C0
01DC302AC0
0019DFEA20
ENDCHAR
STARTCHAR gcircumflex
ENCODING 285
SWIDTH 504 0
DWIDTH 8 0
BBX 8 15 0 -3
BITMAP
000BF400
008B5E20
01B10580
00000000
02AEFFFB
0BB12C70
0E5007B0
0AB12C80
03EEE900
0B500000
0B800000
05EFFFC5
1D20019C
3F5114C8
06CEEC60
ENDCHAR
STARTCHAR Gbreve
ENCODING 286
SWIDTH 617 0
DWIDTH 10 0
BBX 9 13 0 0
BITMAP
0008703C00
0001BEC400
0000000000
0018DFE920
01DB302A50
09D0000000
0E70000000
2F40000000
2F400AFFC0
0E700006C0
0AD00006C0
01DC302AC0
0019DFEA20
ENDCHAR
STARTCHAR gbreve
ENCODING 287
SWIDTH 504 0
DWIDTH 8 0
BBX 8 15 0 -3
BITMAP
02A003A0
00D51B60
003CE900
00000000
02AEFFFB
0BB12C70
0E5007B0
0AB12C80
03EEE900
0B500000
0B800000
05EFFFC5
1D20019C
3F5114C8
06CEEC60
ENDCHAR
STARTCHAR Gdotaccent
ENCODING 288
SWIDTH 617 0
DWIDTH 10 0
BBX 9 13 0 0
BITMAP
00002E5000
00001E5000
0000000000
0018DFE920
01DB302A50
09D0000000
0E70000000
2F40000000
2F400AFFC0
0E700006C0
0AD00006C0
01DC302AC0
0019DFEA20
ENDCHAR
STARTCHAR gdotaccent
ENCODING 289
SWIDTH 504 0
DWIDTH 8 0
BBX 8 14 0 -3
BITMAP
0006D000
0006D000
00000000
02AEFFFB
0BB12C70
0E5007B0
0AB12C80
03EEE900
0B500000
0B800000
05EFFFC5
1D20019C
3F5114C8
06CEEC60
ENDCHAR
STARTCHAR uni0122
ENCODING 290
SWIDTH 617 0
DWIDTH 10 0
BBX 9 14 0 -4
BITMAP
0018DFE920
01DB302A50
09D0000000
0E70000000
2F40000000
2F400AFFC0
0E700006C0
0AD00006C0
01DC302AC0
0019DFEA20
0000000000
00003D5000
000018B000
0000DB3000
ENDCHAR
STARTCHAR uni0123
ENCODING 291
SWIDTH 504 0
DWIDTH 8 0
BBX 8 15 0 -3
BITMAP
0005CA00
000E5000
0008E100
00000000
02AEFFFB
0BB12C70
0E5007B0
0AB12C80
03EEE900
0B500000
0B800000
05EFFFC5
1D20019C
3F5114C8
06CEEC60
ENDCHAR
STARTCHAR Hcircumflex
ENCODING 292
SWIDTH 652 0
DWIDTH 10 0
BBX 8 13 1 0
BITMAP
002DD600
00A30940
00000000
8C00005F
8C00005F
8C00005F
8C00005F
8FFFFFFF
8C00005F
8C00005F
8C00005F
8C00005F
8C00005F
ENDCHAR
STARTCHAR hcircumflex
ENCODING 293
SWIDTH 544 0
DWIDTH 9 0
BBX 9 14 -1 0
BITMAP
04DD400000
2B12B20000
0000000000
00A9000000
00A9000000
00A9000000
00A96DE900
00AE714F40
00AA000D70
00A9000C80
00A9000C80
00A9000C80
00A9000C80
00A9000C80
ENDCHAR
STARTCHAR Hbar
ENCODING 294
SWIDTH 687 0
DWIDTH 11 0
BBX 11 10 0 0
BITMAP
04F10000F500
7FFFFFFFFF70
04F10000F500
04F10000F500
04FFFFFFF500
04F10000F500
04F10000F500
04F10000F500
04F10000F500
04F10000F500
ENDCHAR
STARTCHAR hbar
ENCODING 295
SWIDTH 544 0
DWIDTH 9 0
BBX 8 11 0 0
BITMAP
0A900000
9EECC600
0A900000
0A905610
0ABB9CE1
0AD201E6
0A9000C8
0A9000C8
0A9000C8
0A9000C8
0A9000C8
ENDCHAR
STARTCHAR Itilde
ENCODING 296
SWIDTH 263 0
DWIDTH 4 0
BBX 6 14 -1 0
BITMAP
010001
4EE63C
942BE5
000000
008C00
008C00
008C00
008C00
008C00
008C00
008C00
008C00
008C00
008C00
ENDCHAR
STARTCHAR itilde
ENCODING 297
SWIDTH 246 0
DWIDTH 4 0
BBX 6 12 -1 0
BITMAP
042013
7CD569
A22CD3
000000
00A900
00A900
00A900
00A900
00A900
00A900
00A900
00A900
ENDCHAR
STARTCHAR Imacron
ENCODING 298
SWIDTH 263 0
DWIDTH 4 0
BBX 6 12 -1 0
BITMAP
1FFFF4
000000
008C00
008C00
008C00
008C00
008C00
008C00
008C00
008C00
008C00
008C00
ENDCHAR
STARTCHAR imacron
ENCODING 299
SWIDTH 246 0
DWIDTH 4 0
BBX 6 11 -1 0
BITMAP
2FFFF1
000000
000000
00A900
00A900
00A900
00A900
00A900
00A900
00A900
00A900
ENDCHAR
STARTCHAR uni012C
ENCODING 300
SWIDTH 263 0
DWIDTH 4 0
BBX 6 13 -1 0
BITMAP
2C21A4
06EE90
000000
008C00
008C00
008C00
008C00
008C00
008C00
008C00
008C00
008C00
008C00
ENDCHAR
STARTCHAR uni012D
ENCODING 301
SWIDTH 246 0
DWIDTH 4 0
BBX 6 12 -1 0
BITMAP
660075
3D23D2
06DD60
000000
00A900
00A900
00A900
00A900
00A900
00A900
00A900
00A900
ENDCHAR
STARTCHAR Iogonek
ENCODING 302
SWIDTH 263 0
DWIDTH 4 0
BBX 4 13 0 -3
BITMAP
08C0
08C0
08C0
08C0
08C0
08C0
08C0
08C0
08C0
08C0
0A40
4D11
1DE4
ENDCHAR
STARTCHAR iogonek
ENCODING 303
SWIDTH 246 0
DWIDTH 4 0
BBX 4 15 0 -3
BITMAP
0BA0
0BA0
0000
0000
0A90
0A90
0A90
0A90
0A90
0A90
0A90
0A90
0A30
5A10
2DD2
ENDCHAR
STARTCHAR Idotaccent
ENCODING 304
SWIDTH 263 0
DWIDTH 4 0
BBX 2 13 1 0
BITMAP
9C
9C
00
8C
8C
8C
8C
8C
8C
8C
8C
8C
8C
ENDCHAR
STARTCHAR dotlessi
ENCODING 305
SWIDTH 246 0
DWIDTH 4 0
BBX 2 8 1 0
BITMAP
A9
A9
A9
A9
A9
A9
A9
A9
ENDCHAR
STARTCHAR uni0132
ENCODING 306
SWIDTH 526 0
DWIDTH 8 0
BBX 6 13 1 -3
BITMAP
8C005F
8C005F
8C005F
8C005F
8C005F
8C005F
8C005F
8C005F
8C005F
8C005F
00006E
00019C
003FD4
ENDCHAR
STARTCHAR uni0133
ENCODING 307
SWIDTH 493 0
DWIDTH 8 0
BBX 6 15 1 -3
BITMAP
220021
CC00DB
330032
000000
A900B9
A900B9
A900B9
A900B9
A900B9
A900B9
A900B9
A900B9
0000B8
0011E6
008FB1
ENDCHAR
STARTCHAR Jcircumflex
ENCODING 308
SWIDTH 480 0
DWIDTH 8 0
BBX 8 13 0 0
BITMAP
00009CB1
00077059
00000000
00001F40
00001F40
00001F40
00001F40
00001F40
00001F40
00001F40
01002F30
4D319D00
07DEC300
ENDCHAR
STARTCHAR jcircumflex
ENCODING 309
SWIDTH 247 0
DWIDTH 4 0
BBX 6 15 -1 -3
BITMAP
02EE10
0C78B0
480093
000000
00AA00
00AA00
00AA00
00AA00
00AA00
00AA00
00AA00
00AA00
00A900
11D700
7FB100
ENDCHAR
STARTCHAR uni0136
ENCODING 310
SWIDTH 579 0
DWIDTH 9 0
BBX 8 14 1 -4
BITMAP
8C0004E4
8C003E60
8C02D800
8C1CA000
8CBFC000
8FD2E700
8E206E20
8C000CA0
8C0003F4
8C00009D
00000000
0008C200
0002C600
004E9100
ENDCHAR
STARTCHAR uni0137
ENCODING 311
SWIDTH 495 0
DWIDTH 8 0
BBX 7 15 1 -4
BITMAP
A9000000
A9000000
A9000000
A9006E20
A903E300
A91D6000
A9AE1000
AEDD9000
AE24F400
A9009C00
A9001E70
00000000
006C3000
001A8000
02EA2000
ENDCHAR
STARTCHAR kgreenlandic
ENCODING 312
SWIDTH 495 0
DWIDTH 8 0
BBX 7 8 1 0
BITMAP
A9006E20
A903E400
A91D6000
AABE1000
AECBA000
AD13F400
A9008D00
A9001E70
ENDCHAR
STARTCHAR Lacute
ENCODING 313
SWIDTH 486 0
DWIDTH 8 0
BBX 7 14 1 0
BITMAP
02B10000
2DA00000
77000000
00000000
8C000000
8C000000
8C000000
8C000000
8C000000
8C000000
8C000000
8C000000
8C000000
8FFFFF50
ENDCHAR
STARTCHAR lacute
ENCODING 314
SWIDTH 255 0
DWIDTH 4 0
BBX 3 15 1 0
BITMAP
04A0
4E70
A400
0000
A900
A900
A900
A900
A900
A900
A900
A900
A900
AA00
5E50
ENDCHAR
STARTCHAR uni013B
ENCODING 315
SWIDTH 486 0
DWIDTH 8 0
BBX 7 14 1 -4
BITMAP
8C000000
8C000000
8C000000
8C000000
8C000000
8C000000
8C000000
8C000000
8C000000
8FFFFF50
00000000
002D6000
0017C000
00CC4000
ENDCHAR
STARTCHAR uni013C
ENCODING 316
SWIDTH 255 0
DWIDTH 4 0
BBX 3 15 1 -4
BITMAP
A900
A900
A900
A900
A900
A900
A900
A900
A900
AA00
5E50
0000
4D50
18B0
DB30
ENDCHAR
STARTCHAR Lcaron
ENCODING 317
SWIDTH 486 0
DWIDTH 8 0
BBX 7 11 1 0
BITMAP
0000B300
8C00A200
8C00A100
8C000000
8C000000
8C000000
8C000000
8C000000
8C000000
8C000000
8FFFFF50
ENDCHAR
STARTCHAR lcaron
ENCODING 318
SWIDTH 270 0
DWIDTH 4 0
BBX 4 12 1 0
BITMAP
0086
A985
A973
A900
A900
A900
A900
A900
A900
A900
AA00
5E50
ENDCHAR
STARTCHAR Ldot
ENCODING 319
SWIDTH 486 0
DWIDTH 8 0
BBX 7 10 1 0
BITMAP
8C000000
8C000000
8C000000
8C000000
8C00BB00
8C00BB00
8C000000
8C000000
8C000000
8FFFFF50
ENDCHAR
STARTCHAR ldot
ENCODING 320
SWIDTH 362 0
DWIDTH 6 0
BBX 5 11 1 0
BITMAP
A90000
A90000
A90000
A90000
A90000
A90D90
A90D90
A90000
A90000
AA0000
5E5000
ENDCHAR
STARTCHAR Lslash
ENCODING 321
SWIDTH 489 0
DWIDTH 8 0
BBX 8 10 0 0
BITMAP
07D00000
07D00000
07D00000
07D17D00
07ED9100
7EE20000
68D00000
07D00000
07D00000
07FFFFF7
ENDCHAR
STARTCHAR lslash
ENCODING 322
SWIDTH 262 0
DWIDTH 4 0
BBX 4 11 0 0
BITMAP
09A0
09A0
09A0
09A1
09EB
8EB0
5AA0
09A0
09A0
09B0
05E6
ENDCHAR
STARTCHAR Nacute
ENCODING 323
SWIDTH 647 0
DWIDTH 10 0
BBX 8 14 1 0
BITMAP
00001B20
0001CB10
00068000
00000000
8F20005E
8EB0005E
89D5005E
8A6D105E
8A0C805E
8B03F25E
8B009B5E
8B001E8E
8B0006EE
8B0000CE
ENDCHAR
STARTCHAR nacute
ENCODING 324
SWIDTH 547 0
DWIDTH 9 0
BBX 7 12 1 0
BITMAP
00007800
0006E300
001B2000
00000000
A77EE900
AE714F40
AA000D70
A9000C80
A9000C80
A9000C80
A9000C80
A9000C80
ENDCHAR
STARTCHAR uni0145
ENCODING 325
SWIDTH 647 0
DWIDTH 10 0
BBX 8 14 1 -4
BITMAP
8F20005E
8EB0005E
89D5005E
8A6D105E
8A0C805E
8B03F25E
8B009B5E
8B001E8E
8B0006EE
8B0000CE
00000000
0008C200
0002B700
003EA100
ENDCHAR
STARTCHAR uni0146
ENCODING 326
SWIDTH 547 0
DWIDTH 9 0
BBX 7 12 1 -4
BITMAP
A77EE900
AE714F40
AA000D70
A9000C80
A9000C80
A9000C80
A9000C80
A9000C80
00000000
004D4000
0019A000
00EB3000
ENDCHAR
STARTCHAR Ncaron
ENCODING 327
SWIDTH 647 0
DWIDTH 10 0
BBX 8 13 1 0
BITMAP
00A31940
002DD600
00000000
8F20005E
8EB0005E
89D5005E
8A6D105E
8A0C805E
8B03F25E
8B009B5E
8B001E8E
8B0006EE
8B0000CE
ENDCHAR
STARTCHAR ncaron
ENCODING 328
SWIDTH 547 0
DWIDTH 9 0
BBX 7 12 1 0
BITMAP
08401B00
02E4C700
005FB000
00000000
A77EE900
AE714F40
AA000D70
A9000C80
A9000C80
A9000C80
A9000C80
A9000C80
ENDCHAR
STARTCHAR napostrophe
ENCODING 329
SWIDTH 775 0
DWIDTH 12 0
BBX 11 11 1 0
BITMAP
8D0000000000
0D0000000000
780000000000
5002F3BED300
0002FC31AC00
0002F3004F00
0002F3004F10
0002F3004F10
0002F3004F10
0002F3004F10
0002F3004F10
ENDCHAR
STARTCHAR uni014A
ENCODING 330
SWIDTH 635 0
DWIDTH 10 0
BBX 9 11 1 -1
BITMAP
8B3BFE8000
8EA314E800
8C00007E10
8C00002F30
8C00001F50
8C00001F50
8C00002F30
8C00005F10
8C0011BB00
8C009FB200
3400000000
ENDCHAR
STARTCHAR uni014B
ENCODING 331
SWIDTH 547 0
DWIDTH 9 0
BBX 7 11 1 -3
BITMAP
A76DE900
AE814F40
AA000D70
A9000C80
A9000C80
A9000C80
A9000C80
A9000C80
00000C80
00011E50
0009EA00
ENDCHAR
STARTCHAR Omacron
ENCODING 332
SWIDTH 664 0
DWIDTH 11 0
BBX 10 12 0 0
BITMAP
000CFFF700
0000000000
0029EFD700
02EB204EA0
0AC00003F4
0F600000CA
2F400000AC
2F400000AC
0E600000C9
0AD00004F4
02DB204E90
0029EFD700
ENDCHAR
STARTCHAR omacron
ENCODING 333
SWIDTH 542 0
DWIDTH 9 0
BBX 8 11 0 0
BITMAP
00CFFF70
00000000
00000000
006DFC30
07E417F2
1E6000BA
3F20007D
3F20007D
1E6000BA
07E417F2
006DFC30
ENDCHAR
STARTCHAR uni014E
ENCODING 334
SWIDTH 664 0
DWIDTH 11 0
BBX 10 13 0 0
BITMAP
000C307700
0004DEB100
0000000000
0029EFD700
02EB204EA0
0AC00003F4
0F600000CA
2F400000AC
2F400000AC
0E600000C9
0AD00004F4
02DB204E90
0029EFD700
ENDCHAR
STARTCHAR uni014F
ENCODING 335
SWIDTH 542 0
DWIDTH 9 0
BBX 8 12 0 0
BITMAP
01B002B0
00C51A70
003CEA10
00000000
006DFC30
07E417F2
1E6000BA
3F20007D
3F20007D
1E6000BA
07E417F2
006DFC30
ENDCHAR
STARTCHAR Ohungarumlaut
ENCODING 336
SWIDTH 664 0
DWIDTH 11 0
BBX 10 14 0 0
BITMAP
00002B0850
0000A62D10
0002A08400
0000000000
0029EFD700
02EB204EA0
0AC00003F4
0F600000CA
2F400000AC
2F400000AC
0E600000C9
0AD00004F4
02DB204E90
0029EFD700
ENDCHAR
STARTCHAR ohungarumlaut
ENCODING 337
SWIDTH 542 0
DWIDTH 9 0
BBX 8 13 0 0
BITMAP
00000010
0002C0B4
000974C0
001B0830
00000000
006DFC30
07E417F2
1E6000BA
3F20007D
3F20007D
1E6000BA
07E417F2
006DFC30
ENDCHAR
STARTCHAR OE
ENCODING 338
SWIDTH 847 0
DWIDTH 14 0
BBX 13 10 0 0
BITMAP
0018DFFFFFFF90
02DB413F300000
0AD0003F200000
0F60003F200000
2F40003FFFFD00
2F40003F200000
0E70003F200000
09D1003F200000
01DB413F311110
0018DFFFFFFFC0
ENDCHAR
STARTCHAR oe
ENCODING 339
SWIDTH 839 0
DWIDTH 13 0
BBX 13 8 0 0
BITMAP
007DEA109ED600
07E419CA802D40
1F6000DD0007A0
3F2000AEAAACC0
3F20009C555540
1F6000DE100000
08D318CAA21520
007EEB209EEB30
ENDCHAR
STARTCHAR Racute
ENCODING 340
SWIDTH 569 0
DWIDTH 9 0
BBX 8 14 1 0
BITMAP
00007600
0007E300
001B2000
00000000
8FFFEB30
8C0029E2
8C0000F6
8C0001F4
8C002AB0
8FFFF600
8C01E900
8C006F30
8C000BC0
8C0002F6
ENDCHAR
STARTCHAR racute
ENCODING 341
SWIDTH 347 0
DWIDTH 6 0
BBX 5 12 1 0
BITMAP
000960
009D20
03B100
000000
A78E70
AD6100
AA0000
A90000
A90000
A90000
A90000
A90000
ENDCHAR
STARTCHAR uni0156
ENCODING 342
SWIDTH 569 0
DWIDTH 9 0
BBX 8 14 1 -4
BITMAP
8FFFEB30
8C0029E2
8C0000F6
8C0001F4
8C002AB0
8FFFF600
8C01E900
8C006F30
8C000BC0
8C0002F6
00000000
000D9000
0004F100
009D6000
ENDCHAR
STARTCHAR uni0157
ENCODING 343
SWIDTH 347 0
DWIDTH 6 0
BBX 6 12 0 -4
BITMAP
0A78E7
0AD610
0AA000
0A9000
0A9000
0A9000
0A9000
0A9000
000000
0CA000
03E200
8D7000
ENDCHAR
STARTCHAR Rcaron
ENCODING 344
SWIDTH 569 0
DWIDTH 9 0
BBX 8 13 1 0
BITMAP
07705900
009DB100
00000000
8FFFEB30
8C0029E2
8C0000F6
8C0001F4
8C002AB0
8FFFF600
8C01E900
8C006F30
8C000BC0
8C0002F6
ENDCHAR
STARTCHAR rcaron
ENCODING 345
SWIDTH 347 0
DWIDTH 6 0
BBX 5 12 1 0
BITMAP
A203A0
5D4D40
08F800
000000
A78E70
AD6100
AA0000
A90000
A90000
A90000
A90000
A90000
ENDCHAR
STARTCHAR Sacute
ENCODING 346
SWIDTH 534 0
DWIDTH 9 0
BBX 8 14 0 0
BITMAP
00000940
00009D20
0002B100
00000000
007DFD81
07D303B4
0B900000
08E40000
019FC610
00028ED3
000001CB
0200007D
2E9203D7
03AEFD70
ENDCHAR
STARTCHAR sacute
ENCODING 347
SWIDTH 419 0
DWIDTH 7 0
BBX 7 12 0 0
BITMAP
00009600
0008D200
002B1000
00000000
04CEC500
1E614500
1F400000
07FA4000
0028EA00
00003F20
3A316E10
18DFC400
ENDCHAR
STARTCHAR Scircumflex
ENCODING 348
SWIDTH 534 0
DWIDTH 9 0
BBX 8 13 0 0
BITMAP
000BCA00
00860680
00000000
007DFD81
07D303B4
0B900000
08E40000
019FC610
00028ED3
000001CB
0200007D
2E9203D7
03AEFD70
ENDCHAR
STARTCHAR scircumflex
ENCODING 349
SWIDTH 419 0
DWIDTH 7 0
BBX 7 12 0 0
BITMAP
008F8000
04D4D400
0A202A00
00000000
04CEC500
1E614500
1F400000
07FA4000
0028EA00
00003F20
3A316E10
18DFC400
ENDCHAR
STARTCHAR uni015E
ENCODING 350
SWIDTH 534 0
DWIDTH 9 0
BBX 8 15 0 -5
BITMAP
007DFD81
07D303B4
0B900000
08E40000
019FC610
00028ED3
000001CB
0200007D
2E9203D7
03AEFD70
0002A000
0007E300
0001A900
0002A700
001E9000
ENDCHAR
STARTCHAR uni015F
ENCODING 351
SWIDTH 419 0
DWIDTH 7 0
BBX 7 13 0 -5
BITMAP
04CEC500
1E614500
1F400000
07FA4000
0028EA00
00003F20
3A316E10
18DFC400
000C0000
004E5000
0007B000
0018A000
00DA1000
ENDCHAR
STARTCHAR Scaron
ENCODING 352
SWIDTH 534 0
DWIDTH 9 0
BBX 8 13 0 0
BITMAP
00860680
000BDA00
00000000
007DFD81
07D303B4
0B900000
08E40000
019FC610
00028ED3
000001CB
0200007D
2E9203D7
03AEFD70
ENDCHAR
STARTCHAR scaron
ENCODING 353
SWIDTH 419 0
DWIDTH 7 0
BBX 7 12 0 0
BITMAP
0A202A00
04D4D400
008F8000
00000000
04CEC500
1E614500
1F400000
07FA4000
0028EA00
00003F20
3A316E10
18DFC400
ENDCHAR
STARTCHAR uni0162
ENCODING 354
SWIDTH 536 0
DWIDTH 9 0
BBX 9 15 0 -5
BITMAP
8FFFFFFF20
0006E00000
0006E00000
0006E00000
0006E00000
0006E00000
0006E00000
0006E00000
0006E00000
0006F00000
0004800000
0009D20000
0001C60000
0002C50000
003D800000
ENDCHAR
STARTCHAR uni0163
ENCODING 355
SWIDTH 338 0
DWIDTH 5 0
BBX 6 15 0 -5
BITMAP
04D000
05D000
9FFFE0
07D000
07D000
07D000
07D000
07D000
04F310
009FE1
001B00
006E40
0019A0
001980
00EA10
ENDCHAR
STARTCHAR Tcaron
ENCODING 356
SWIDTH 536 0
DWIDTH 9 0
BBX 9 13 0 0
BITMAP
00A4095000
002CD70000
0000000000
8FFFFFFF20
0006E00000
0006E00000
0006E00000
0006E00000
0006E00000
0006E00000
0006E00000
0006E00000
0006E00000
ENDCHAR
STARTCHAR tcaron
ENCODING 357
SWIDTH 338 0
DWIDTH 5 0
BBX 6 12 0 0
BITMAP
0000E0
0000D0
04D0B0
05D000
9FFFE0
07D000
07D000
07D000
07D000
07D000
04F310
009EE1
ENDCHAR
STARTCHAR uni0166
ENCODING 358
SWIDTH 536 0
DWIDTH 9 0
BBX 9 10 0 0
BITMAP
8EEFFFFF20
0006E00000
0006E00000
0006E00000
05FFFFE000
0006E00000
0006E00000
0006E00000
0006E00000
0006E00000
ENDCHAR
STARTCHAR uni0167
ENCODING 359
SWIDTH 338 0
DWIDTH 5 0
BBX 6 10 0 0
BITMAP
04D000
05D000
9FFFE0
07D000
07D000
8FFFE0
07D000
07D000
04F310
009EE1
ENDCHAR
STARTCHAR Utilde
ENCODING 360
SWIDTH 645 0
DWIDTH 10 0
BBX 8 14 1 0
BITMAP
00110010
04EE62D0
0852BE60
00000000
9B00005E
9B00005E
9B00005E
9B00005E
9B00005E
9B00005E
8B00006D
6E1000AA
1DA216F4
02AEEC50
ENDCHAR
STARTCHAR utilde
ENCODING 361
SWIDTH 544 0
DWIDTH 9 0
BBX 7 12 1 0
BITMAP
02400300
2DCA2E00
5808E800
00000000
C8000E60
C8000E60
C8000E60
C8000E60
C8000E60
B9001E60
8D22AE60
1BEC3B60
ENDCHAR
STARTCHAR Umacron
ENCODING 362
SWIDTH 645 0
DWIDTH 10 0
BBX 8 12 1 0
BITMAP
00FFFF40
00000000
9B00005E
9B00005E
9B00005E
9B00005E
9B00005E
9B00005E
8B00006D
6E1000AA
1DA216F4
02AEEC50
ENDCHAR
STARTCHAR umacron
ENCODING 363
SWIDTH 544 0
DWIDTH 9 0
BBX 7 11 1 0
BITMAP
0CFFF600
00000000
00000000
C8000E60
C8000E60
C8000E60
C8000E60
C8000E60
B9001E60
8D22AE60
1BEC3B60
ENDCHAR
STARTCHAR Ubreve
ENCODING 364
SWIDTH 645 0
DWIDTH 10 0
BBX 8 13 1 0
BITMAP
01C21950
006DE900
00000000
9B00005E
9B00005E
9B00005E
9B00005E
9B00005E
9B00005E
8B00006D
6E1000AA
1DA216F4
02AEEC50
ENDCHAR
STARTCHAR ubreve
ENCODING 365
SWIDTH 544 0
DWIDTH 9 0
BBX 7 12 1 0
BITMAP
1B001B00
0C61A800
02CEA100
00000000
C8000E60
C8000E60
C8000E60
C8000E60
C8000E60
B9001E60
8D22AE60
1BEC3B60
ENDCHAR
STARTCHAR Uring
ENCODING 366
SWIDTH 645 0
DWIDTH 10 0
BBX 8 14 1 0
BITMAP
001CE400
00584A00
001CE400
00000000
9B00005E
9B00005E
9B00005E
9B00005E
9B00005E
9B00005E
8B00006D
6E1000AA
1DA216F4
02AEEC50
ENDCHAR
STARTCHAR uring
ENCODING 367
SWIDTH 544 0
DWIDTH 9 0
BBX 7 12 1 0
BITMAP
01CE9000
05A2D100
01CE9000
00000000
C8000E60
C8000E60
C8000E60
C8000E60
C8000E60
B9001E60
8D22AE60
1BEC3B60
ENDCHAR
STARTCHAR Uhungarumlaut
ENCODING 368
SWIDTH 645 0
DWIDTH 10 0
BBX 8 14 1 0
BITMAP
000490A3
000C44C0
00480A20
00000000
9B00005E
9B00005E
9B00005E
9B00005E
9B00005E
9B00005E
8B00006D
6E1000AA
1DA216F4
02AEEC50
ENDCHAR
STARTCHAR uhungarumlaut
ENCODING 369
SWIDTH 544 0
DWIDTH 9 0
BBX 7 13 1 0
BITMAP
00000100
001C0B50
00974C00
01B08300
00000000
C8000E60
C8000E60
C8000E60
C8000E60
C8000E60
B9001E60
8D22AE60
1BEC3B60
ENDCHAR
STARTCHAR Uogonek
ENCODING 370
SWIDTH 645 0
DWIDTH 10 0
BBX 8 13 1 -3
BITMAP
9B00005E
9B00005E
9B00005E
9B00005E
9B00005E
9B00005E
8B00006D
6E1000AA
1DA216F3
02AEFD40
00069000
000D4100
0008E900
ENDCHAR
STARTCHAR uogonek
ENCODING 371
SWIDTH 544 0
DWIDTH 9 0
BBX 7 11 1 -3
BITMAP
C8000E60
C8000E60
C8000E60
C8000E60
C8000E60
B9001E60
8D22AE60
1BEC3B60
00007810
0000E210
00009E70
ENDCHAR
STARTCHAR Wcircumflex
ENCODING 372
SWIDTH 786 0
DWIDTH 13 0
BBX 13 13 0 0
BITMAP
00001CD7000000
0000A408500000
00000000000000
8D0006F1003F10
4F100AE5006D00
1F400E99009A00
0D703D4D00C600
09A0791F20F300
06D0B50C63F000
03F1E108A6C000
00E7C004D98000
00BD8000ED5000
008F5000BF2000
ENDCHAR
STARTCHAR wcircumflex
ENCODING 373
SWIDTH 718 0
DWIDTH 11 0
BBX 11 12 0 0
BITMAP
00004FC00000
0001D5B80000
0007501B1000
000000000000
7D000E8004E0
3F204DC008B0
0E5087E10B70
0A90C3B50F30
06D1E0794E00
02F5B04D7A00
00DC700EC600
009F300BF200
ENDCHAR
STARTCHAR Ycircumflex
ENCODING 374
SWIDTH 476 0
DWIDTH 8 0
BBX 8 13 0 0
BITMAP
006DD200
04913B00
00000000
BA0001E6
4F2007D0
0B901E50
03F27C00
00B9D500
003FC000
000D7000
000D7000
000D7000
000D7000
ENDCHAR
STARTCHAR ycircumflex
ENCODING 375
SWIDTH 467 0
DWIDTH 7 0
BBX 8 15 0 -3
BITMAP
003FD100
01D6AA00
06700A20
00000000
9B0002F2
3F2007B0
0C700C60
06D02F10
01E37B00
0099C500
003EE100
000CA000
001E4000
019C0000
5EB20000
ENDCHAR
STARTCHAR Ydieresis
ENCODING 376
SWIDTH 476 0
DWIDTH 8 0
BBX 8 13 0 0
BITMAP
06B02E10
06B02E10
00000000
BA0001E6
4F2007D0
0B901E50
03F27C00
00B9D500
003FC000
000D7000
000D7000
000D7000
000D7000
ENDCHAR
STARTCHAR Zacute
ENCODING 377
SWIDTH 539 0
DWIDTH 9 0
BBX 8 14 0 0
BITMAP
00000940
00009D20
0002B100
00000000
0CFFFFFE
000002E8
00000CD0
00007F30
0003F700
000DC000
008E2000
04F60000
1DB00000
4FFFFFFE
ENDCHAR
STARTCHAR zacute
ENCODING 378
SWIDTH 425 0
DWIDTH 7 0
BBX 7 12 0 0
BITMAP
00007800
0006E300
001C2000
00000000
1FFFFF40
0000BD10
0006F400
002E8000
00CC0000
07F30000
3F700000
8FFFFF60
ENDCHAR
STARTCHAR Zdotaccent
ENCODING 379
SWIDTH 539 0
DWIDTH 9 0
BBX 8 13 0 0
BITMAP
0003E300
0003E300
00000000
0CFFFFFE
000002E8
00000CD0
00007F30
0003F700
000DC000
008E2000
04F60000
1DB00000
4FFFFFFE
ENDCHAR
STARTCHAR zdotaccent
ENCODING 380
SWIDTH 425 0
DWIDTH 7 0
BBX 7 11 0 0
BITMAP
001E4000
001E4000
00000000
1FFFFF40
0000BD10
0006F400
002E8000
00CC0000
07F30000
3F700000
8FFFFF60
ENDCHAR
STARTCHAR Zcaron
ENCODING 381
SWIDTH 539 0
DWIDTH 9 0
BBX 8 13 0 0
BITMAP
00860680
000ADA00
00000000
0CFFFFFE
000002E8
00000CD0
00007F30
0003F700
000DC000
008E2000
04F60000
1DB00000
4FFFFFFE
ENDCHAR
STARTCHAR zcaron
ENCODING 382
SWIDTH 425 0
DWIDTH 7 0
BBX 7 12 0 0
BITMAP
09401B00
03E4C600
006FA000
00000000
1FFFFF40
0000BD10
0006F400
002E8000
00CC0000
07F30000
3F700000
8FFFFF60
ENDCHAR
STARTCHAR uni0180
ENCODING 384
SWIDTH 544 0
DWIDTH 9 0
BBX 9 11 0 0
BITMAP
0A90000000
CFFFF80000
0A90000000
0A90000000
0AA8EE9100
0AE613D900
0A90006F00
0A90004F10
0A90007E00
0AE514E700
0A8AED7000
ENDCHAR
STARTCHAR uni018F
ENCODING 399
SWIDTH 658 0
DWIDTH 11 0
BBX 10 10 0 0
BITMAP
004BEFD700
00A7104DA0
00000004F4
00000000D8
00000000AA
1FFFFFFFFA
0E600000B8
0AB00002F3
02E9214D90
002AEFC700
ENDCHAR
STARTCHAR uni0192
ENCODING 402
SWIDTH 497 0
DWIDTH 8 0
BBX 8 13 0 -2
BITMAP
00006DE3
0002F510
0006D000
0009A000
02FFFFA0
000C7000
000D5000
000F4000
001F3000
003F1000
006D0000
11C80000
8FB10000
ENDCHAR
STARTCHAR uni0193
ENCODING 403
SWIDTH 617 0
DWIDTH 10 0
BBX 10 13 0 0
BITMAP
00000004EA
0000000D60
0000000E30
0018DFEF80
01DB301730
09D0000000
0E70000000
2F40000000
2F400AFFC0
0E700006C0
0AD00006C0
01DC302AC0
0019DFEA20
ENDCHAR
STARTCHAR Ohorn
ENCODING 416
SWIDTH 664 0
DWIDTH 11 0
BBX 10 13 0 0
BITMAP
0000000002
000000005D
000000006C
0029EFDBC3
01DB204DB0
09D00003F5
0E700000BA
1F5000009C
1F5000009C
0E700000CA
09D00003F5
01DB204EA0
0019EFD700
ENDCHAR
STARTCHAR ohorn
ENCODING 417
SWIDTH 542 0
DWIDTH 9 0
BBX 9 11 0 0
BITMAP
0000000510
0000000D50
0000001E30
006DFCC600
07E417F300
1E6000BA00
3F20007D00
3F20007D00
1E6000BA00
07E417F200
006DFC3000
ENDCHAR
STARTCHAR Uhorn
ENCODING 431
SWIDTH 659 0
DWIDTH 11 0
BBX 10 13 1 0
BITMAP
0000000035
000000007B
00000001B8
9B00005FA1
9B00005E00
9B00005E00
9B00005E00
9B00005E00
9B00005E00
8B00006D00
6E1000AB00
1DA216F500
02AEEC5000
ENDCHAR
STARTCHAR uhorn
ENCODING 432
SWIDTH 544 0
DWIDTH 9 0
BBX 8 11 1 0
BITMAP
00000039
0000004D
000001A9
C8000EC1
C8000E60
C8000E60
C8000E60
C8000E60
B9000E60
8D22AF60
1BED5B60
ENDCHAR
STARTCHAR uni01C2
ENCODING 450
SWIDTH 288 0
DWIDTH 5 0
BBX 5 17 0 -5
BITMAP
01C000
01D000
01D000
01D000
01D000
01D000
DFFF80
01D000
01D000
DFFF80
01D000
01D000
01D000
01D000
01D000
01D000
017000
ENDCHAR
STARTCHAR uni01CD
ENCODING 461
SWIDTH 544 0
DWIDTH 9 0
BBX 9 13 0 0
BITMAP
00A4086000
001CD80000
0000000000
0009F40000
000EAA0000
004D3E1000
00A80D5000
01E309B000
05E004F100
0BFFFFF600
1F40009C00
6E00004F20
C900000E70
ENDCHAR
STARTCHAR uni01CE
ENCODING 462
SWIDTH 504 0
DWIDTH 8 0
BBX 7 12 0 0
BITMAP
02A00670
009A5D10
000CF400
00000000
03AEEA10
06612D90
000007D0
0059DFE0
0AE737E0
2F3006E0
1F604EE0
06DEA5E0
ENDCHAR
STARTCHAR uni01CF
ENCODING 463
SWIDTH 263 0
DWIDTH 4 0
BBX 6 13 -1 0
BITMAP
1B21A3
03DD50
000000
008C00
008C00
008C00
008C00
008C00
008C00
008C00
008C00
008C00
008C00
ENDCHAR
STARTCHAR uni01D0
ENCODING 464
SWIDTH 246 0
DWIDTH 4 0
BBX 6 12 -1 0
BITMAP
480093
0C78B0
02EE10
000000
00A900
00A900
00A900
00A900
00A900
00A900
00A900
00A900
ENDCHAR
STARTCHAR uni01D1
ENCODING 465
SWIDTH 664 0
DWIDTH 11 0
BBX 10 13 0 0
BITMAP
000A408600
0001CD8000
0000000000
0029EFD700
02EB204EA0
0AC00003F4
0F600000CA
2F400000AC
2F400000AC
0E600000C9
0AD00004F4
02DB204E90
0029EFD700
ENDCHAR
STARTCHAR uni01D2
ENCODING 466
SWIDTH 542 0
DWIDTH 9 0
BBX 8 12 0 0
BITMAP
00B10480
007C4E20
000AF600
00000000
006DFC30
07E417F2
1E6000BA
3F20007D
3F20007D
1E6000BA
07E417F2
006DFC30
ENDCHAR
STARTCHAR uni01D3
ENCODING 467
SWIDTH 645 0
DWIDTH 10 0
BBX 8 13 1 0
BITMAP
01B31A30
002DD600
00000000
9B00005E
9B00005E
9B00005E
9B00005E
9B00005E
9B00005E
8B00006D
6E1000AA
1DA216F4
02AEEC50
ENDCHAR
STARTCHAR uni01D4
ENCODING 468
SWIDTH 544 0
DWIDTH 9 0
BBX 7 12 1 0
BITMAP
0B104900
06C4E300
00AF6000
00000000
C8000E60
C8000E60
C8000E60
C8000E60
C8000E60
B9001E60
8D22AE60
1BEC3B60
ENDCHAR
STARTCHAR uni01D5
ENCODING 469
SWIDTH 645 0
DWIDTH 10 0
BBX 8 14 1 0
BITMAP
00FFFF40
00000000
01D10B50
00000000
9B00005E
9B00005E
9B00005E
9B00005E
9B00005E
9B00005E
8B00006D
6E1000AA
1DA216F4
02AEEC50
ENDCHAR
STARTCHAR uni01D6
ENCODING 470
SWIDTH 544 0
DWIDTH 9 0
BBX 7 13 1 0
BITMAP
0CFFF700
00000000
0A509600
00000000
00000000
C8000E60
C8000E60
C8000E60
C8000E60
C8000E60
B9001E60
8D22AE60
1BEC3B60
ENDCHAR
STARTCHAR uni01D7
ENCODING 471
SWIDTH 645 0
DWIDTH 10 0
BBX 8 15 1 0
BITMAP
00006800
0003A100
00000000
01D10B50
00000000
9B00005E
9B00005E
9B00005E
9B00005E
9B00005E
9B00005E
8B00006D
6E1000AA
1DA216F4
02AEEC50
ENDCHAR
STARTCHAR uni01D8
ENCODING 472
SWIDTH 544 0
DWIDTH 9 0
BBX 7 13 1 0
BITMAP
00067000
001A0000
0A509600
00000000
00000000
C8000E60
C8000E60
C8000E60
C8000E60
C8000E60
B9001E60
8D22AE60
1BEC3B60
ENDCHAR
STARTCHAR uni01D9
ENCODING 473
SWIDTH 645 0
DWIDTH 10 0
BBX 8 15 1 0
BITMAP
00A42B10
001CE400
00000000
01D10B50
00000000
9B00005E
9B00005E
9B00005E
9B00005E
9B00005E
9B00005E
8B00006D
6E1000AA
1DA216F4
02AEEC50
ENDCHAR
STARTCHAR uni01DA
ENCODING 474
SWIDTH 544 0
DWIDTH 9 0
BBX 7 14 1 0
BITMAP
0671A200
00AE6000
00000000
0A509600
00000000
00000000
C8000E60
C8000E60
C8000E60
C8000E60
C8000E60
B9001E60
8D22AE60
1BEC3B60
ENDCHAR
STARTCHAR uni01DB
ENCODING 475
SWIDTH 645 0
DWIDTH 10 0
BBX 8 15 1 0
BITMAP
004A0000
00077000
00000000
01D10B50
00000000
9B00005E
9B00005E
9B00005E
9B00005E
9B00005E
9B00005E
8B00006D
6E1000AA
1DA216F4
02AEEC50
ENDCHAR
STARTCHAR uni01DC
ENCODING 476
SWIDTH 544 0
DWIDTH 9 0
BBX 7 13 1 0
BITMAP
00A20000
002A0000
0A509600
00000000
00000000
C8000E60
C8000E60
C8000E60
C8000E60
C8000E60
B9001E60
8D22AE60
1BEC3B60
ENDCHAR
STARTCHAR uni01E2
ENCODING 482
SWIDTH 822 0
DWIDTH 13 0
BBX 13 12 0 0
BITMAP
0000002FFFF300
00000000000000
00000AFFFFFF30
00003FAC000000
0000B89C000000
0005E19C000000
000D709FFFF700
006D109C000000
01EFFFFC000000
08D0009C000000
1E50009C000000
9C00009FFFFF60
ENDCHAR
STARTCHAR uni01E3
ENCODING 483
SWIDTH 785 0
DWIDTH 13 0
BBX 12 11 0 0
BITMAP
00008FFFB000
000000000000
000000000000
03AEE907ED80
05722CCA11C7
000006F1005C
0049DFFAAABE
09E735E55554
1F5003F20000
0E814DCC3153
05DEB308EEB4
ENDCHAR
STARTCHAR Gcaron
ENCODING 486
SWIDTH 617 0
DWIDTH 10 0
BBX 9 13 0 0
BITMAP
0006804900
00008DC100
0000000000
0018DFE920
01DB302A50
09D0000000
0E70000000
2F40000000
2F400AFFC0
0E700006C0
0AD00006C0
01DC302AC0
0019DFEA20
ENDCHAR
STARTCHAR gcaron
ENCODING 487
SWIDTH 504 0
DWIDTH 8 0
BBX 8 15 0 -3
BITMAP
01B10580
008B5E20
000BF500
00000000
02AEFFFB
0BB12C70
0E5007B0
0AB12C80
03EEE900
0B500000
0B800000
05EFFFC5
1D20019C
3F5114C8
06CEEC60
ENDCHAR
STARTCHAR uni01EA
ENCODING 490
SWIDTH 664 0
DWIDTH 11 0
BBX 10 13 0 -3
BITMAP
0029EFD700
02EB204EA0
0AC00003F4
0F600000CA
2F400000AC
2F400000AB
0F600000C9
0AD00004F4
02EB204E90
002AEFE600
00004A1000
0000A61000
00006EB000
ENDCHAR
STARTCHAR uni01EB
ENCODING 491
SWIDTH 542 0
DWIDTH 9 0
BBX 8 11 0 -3
BITMAP
007DFC40
07E417F2
1E6000BA
3F20007D
3F20007D
1E6000BA
07E417E3
006DFC30
0004A000
000A6100
0006EB00
ENDCHAR
STARTCHAR uni01F4
ENCODING 500
SWIDTH 617 0
DWIDTH 10 0
BBX 9 14 0 0
BITMAP
0000007600
000007E400
00001B2000
0000000000
0018DFE920
01DB302A50
09D0000000
0E70000000
2F40000000
2F400AFFC0
0E700006C0
0AD00006C0
01DC302AC0
0019DFEA20
ENDCHAR
STARTCHAR uni01F5
ENCODING 501
SWIDTH 504 0
DWIDTH 8 0
BBX 8 15 0 -3
BITMAP
00001B30
0000BB10
00059000
00000000
02AEFFFB
0BB12C70
0E5007B0
0AB12C80
03EEE900
0B500000
0B800000
05EFFFC5
1D20019C
3F5114C8
06CEEC60
ENDCHAR
STARTCHAR uni01F8
ENCODING 504
SWIDTH 647 0
DWIDTH 10 0
BBX 8 14 1 0
BITMAP
00850000
005E5000
0003B000
00000000
8F20005E
8EB0005E
89D5005E
8A6D105E
8A0C805E
8B03F25E
8B009B5E
8B001E8E
8B0006EE
8B0000CE
ENDCHAR
STARTCHAR uni01F9
ENCODING 505
SWIDTH 547 0
DWIDTH 9 0
BBX 7 12 1 0
BITMAP
04A00000
01BA0000
000A4000
00000000
A77EE900
AE714F40
AA000D70
A9000C80
A9000C80
A9000C80
A9000C80
A9000C80
ENDCHAR
STARTCHAR uni01FC
ENCODING 508
SWIDTH 822 0
DWIDTH 13 0
BBX 13 14 0 0
BITMAP
0000000002B000
000000002E8000
00000000860000
00000000000000
00000AFFFFFF30
00003FAC000000
0000B89C000000
0005E19C000000
000D709FFFF700
006D109C000000
01EFFFFC000000
08D0009C000000
1E50009C000000
9C00009FFFFF60
ENDCHAR
STARTCHAR uni01FD
ENCODING 509
SWIDTH 785 0
DWIDTH 13 0
BBX 12 12 0 0
BITMAP
000000087000
0000007D3000
000001B20000
000000000000
03AEE907ED80
05722CCA11C7
000006F1005C
0049DFFAAABE
09E735E55554
1F5003F20000
0E814DCC3153
05DEB308EEB4
ENDCHAR
STARTCHAR uni0218
ENCODING 536
SWIDTH 534 0
DWIDTH 9 0
BBX 8 14 0 -4
BITMAP
007DFD81
07D303B4
0B900000
08E40000
019FC610
00028ED3
000001CB
0200007D
2E9203D7
03AEFD70
00000000
0006C400
0001A800
001EB200
ENDCHAR
STARTCHAR uni0219
ENCODING 537
SWIDTH 419 0
DWIDTH 7 0
BBX 7 12 0 -4
BITMAP
04CEC500
1E614500
1F400000
07FA4000
0028EA00
00003F20
3A316E10
18DFC400
00000000
003D5000
0018B000
00DB3000
ENDCHAR
STARTCHAR uni021A
ENCODING 538
SWIDTH 536 0
DWIDTH 9 0
BBX 9 14 0 -4
BITMAP
8FFFFFFF20
0006E00000
0006E00000
0006E00000
0006E00000
0006E00000
0006E00000
0006E00000
0006E00000
0006E00000
0000000000
0007C30000
0001B70000
002EA10000
ENDCHAR
STARTCHAR uni021B
ENCODING 539
SWIDTH 338 0
DWIDTH 5 0
BBX 6 14 0 -4
BITMAP
04D000
05D000
9FFFE0
07D000
07D000
07D000
07D000
07D000
04F310
009EE1
000000
005D40
001A90
01EB20
ENDCHAR
STARTCHAR uni0237
ENCODING 567
SWIDTH 247 0
DWIDTH 4 0
BBX 4 11 -1 -3
BITMAP
00AA
00AA
00AA
00AA
00AA
00AA
00AA
00AA
00A9
11D7
7FB1
ENDCHAR
STARTCHAR uni0243
ENCODING 579
SWIDTH 603 0
DWIDTH 10 0
BBX 9 10 0 0
BITMAP
04FFFEC500
04F1016F40
04F1000E60
04F2128D10
04FCCDE600
04F1002CA0
4AF99405F0
16F33106E0
04F1015E80
04FFFEC600
ENDCHAR
STARTCHAR uni0250
ENCODING 592
SWIDTH 512 0
DWIDTH 8 0
BBX 7 8 1 0
BITMAP
C57DE800
CE614F30
C8002F30
C826DB00
CFDA5000
A9000000
6E413900
07DFC700
ENDCHAR
STARTCHAR uni0251
ENCODING 593
SWIDTH 555 0
DWIDTH 9 0
BBX 8 8 0 0
BITMAP
007EE998
07E416E8
1E6000C8
3F3000C8
3F2000C8
1F5000C8
09D317F8
01AEE798
ENDCHAR
STARTCHAR uni0252
ENCODING 594
SWIDTH 555 0
DWIDTH 9 0
BBX 8 8 1 0
BITMAP
A78EE900
AF713E80
A90007E0
A90004F1
A90005F1
A90009D0
AE515F50
A8AED600
ENDCHAR
STARTCHAR uni0253
ENCODING 595
SWIDTH 555 0
DWIDTH 9 0
BBX 8 11 1 0
BITMAP
09EE3000
6E210000
AA000000
A98EE800
AE613D80
A90007E0
A90004F1
A90005F1
A90009D0
AE515E50
A8AED500
ENDCHAR
STARTCHAR uni0254
ENCODING 596
SWIDTH 456 0
DWIDTH 7 0
BBX 7 8 0 0
BITMAP
2AEE9100
1712CC00
00002F50
00000D80
00000D80
00002F50
3713CC00
2AEE9100
ENDCHAR
STARTCHAR uni0255
ENCODING 597
SWIDTH 456 0
DWIDTH 7 0
BBX 7 9 0 -1
BITMAP
007DFC40
07E41540
1F500000
3F100000
3F26DE50
0ECD35D0
07F816C0
0ABCEC30
0A200000
ENDCHAR
STARTCHAR uni0256
ENCODING 598
SWIDTH 555 0
DWIDTH 9 0
BBX 10 14 0 -3
BITMAP
000000C800
000000C800
000000B800
007EE9C800
07E415E800
1E6000C800
3F3000C800
3F2000C800
1F5000C800
09D316F800
01AEE8B800
000000B900
0000009B10
0000002DE1
ENDCHAR
STARTCHAR uni0257
ENCODING 599
SWIDTH 555 0
DWIDTH 9 0
BBX 10 11 0 0
BITMAP
0000002CF2
0000009C10
000000B900
007EE9C800
07E415E800
1E6000C800
3F3000C800
3F2000C800
1F5000C800
09D317F800
01AEE79800
ENDCHAR
STARTCHAR uni0258
ENCODING 600
SWIDTH 496 0
DWIDTH 8 0
BBX 8 8 0 0
BITMAP
02BEE700
0D712C70
4D0003E0
6FFFFFF2
000003F2
000007E0
06215E60
08DFD600
ENDCHAR
STARTCHAR uni0259
ENCODING 601
SWIDTH 496 0
DWIDTH 8 0
BBX 8 8 0 0
BITMAP
06CEE700
05314E70
000007E0
000003F2
6FFFFFF2
4D0003E0
1D612C70
02BEE700
ENDCHAR
STARTCHAR uni025A
ENCODING 602
SWIDTH 648 0
DWIDTH 10 0
BBX 11 8 0 0
BITMAP
06CED8000000
05314E945000
000007FDE210
00028DF36E70
16CD83F20000
4E3003E00000
0C812C700000
02AEE8000000
ENDCHAR
STARTCHAR uni025B
ENCODING 603
SWIDTH 440 0
DWIDTH 7 0
BBX 7 8 0 0
BITMAP
02AEEA20
0AB21610
08C20000
02DFF300
0D910000
2F200000
0D911540
02BEEB40
ENDCHAR
STARTCHAR uni025C
ENCODING 604
SWIDTH 456 0
DWIDTH 7 0
BBX 7 8 0 0
BITMAP
08DEC400
06218E00
00018D00
00EFE400
00015F30
00000D70
17216F30
2ADEC500
ENDCHAR
STARTCHAR uni025E
ENCODING 606
SWIDTH 546 0
DWIDTH 9 0
BBX 8 8 0 0
BITMAP
02BEEB30
0AB217F4
08B200AB
02DFB06F
0D91006F
2F2000AB
0D9116F3
02AEEB40
ENDCHAR
STARTCHAR uni025F
ENCODING 607
SWIDTH 270 0
DWIDTH 4 0
BBX 6 11 -1 -3
BITMAP
008C00
008C00
008C00
0DFFF2
008C00
008C00
008C00
008C00
008C00
01BA00
5FC300
ENDCHAR
STARTCHAR uni0260
ENCODING 608
SWIDTH 559 0
DWIDTH 9 0
BBX 10 13 0 -3
BITMAP
0000002CF2
0000009C10
006DE9B900
06E515E900
0E7000B900
2F3000B900
2F3000B900
0F6000B900
09D316F900
009EE8B900
000000C800
046116F300
03BEEC5000
ENDCHAR
STARTCHAR uni0261
ENCODING 609
SWIDTH 559 0
DWIDTH 9 0
BBX 8 11 0 -3
BITMAP
006DE9A9
06E515E9
0E7000B9
2F3000B9
2F3000B9
0F6000B9
09D316F9
009EE8B9
000000C8
046116F3
03BEEC50
ENDCHAR
STARTCHAR uni0262
ENCODING 610
SWIDTH 497 0
DWIDTH 8 0
BBX 8 8 0 0
BITMAP
005DFD60
07E51370
1E600000
3F200000
3F20BFF3
1F6000F3
07E413F3
006DED80
ENDCHAR
STARTCHAR uni0263
ENCODING 611
SWIDTH 467 0
DWIDTH 7 0
BBX 8 11 0 -3
BITMAP
9B0003F2
3F2009B0
0C700E50
06D04E00
01E3A800
009AF200
003FC000
007CD000
00D4B600
00E4B700
007ED200
ENDCHAR
STARTCHAR uni0264
ENCODING 612
SWIDTH 511 0
DWIDTH 8 0
BBX 8 8 0 0
BITMAP
8FC32BFA
117EE911
003EE500
01D74E30
08C009A0
0A9007C0
07E21C90
009EEA10
ENDCHAR
STARTCHAR uni0265
ENCODING 613
SWIDTH 547 0
DWIDTH 9 0
BBX 7 11 1 -3
BITMAP
C8000D70
C8000D70
C8000D70
C8000D70
C8000D70
B9001E70
8D22AE70
1BEC3D70
00000D70
00000D70
00000D70
ENDCHAR
STARTCHAR uni0266
ENCODING 614
SWIDTH 544 0
DWIDTH 9 0
BBX 7 11 1 0
BITMAP
09EE3000
6E310000
AA000000
A94DE900
AC914F40
AC000D70
A9000C80
A9000C80
A9000C80
A9000C80
A9000C80
ENDCHAR
STARTCHAR uni0267
ENCODING 615
SWIDTH 544 0
DWIDTH 9 0
BBX 7 14 1 -3
BITMAP
09EE3000
6E310000
AA000000
A94DE900
AC914F40
AC000D70
A9000C80
A9000C80
A9000C80
A9000C80
A9000C80
00000C80
00011E50
0009EA00
ENDCHAR
STARTCHAR uni0268
ENCODING 616
SWIDTH 270 0
DWIDTH 4 0
BBX 5 12 0 0
BITMAP
08D000
08D000
000000
000000
08C000
08C000
08C000
CFFF20
08C000
08C000
08C000
08C000
ENDCHAR
STARTCHAR uni026A
ENCODING 618
SWIDTH 341 0
DWIDTH 5 0
BBX 5 8 0 0
BITMAP
4FFFB0
00E600
00E600
00E600
00E600
00E600
00E600
4FFFB0
ENDCHAR
STARTCHAR uni026C
ENCODING 620
SWIDTH 302 0
DWIDTH 5 0
BBX 6 11 -1 0
BITMAP
000E60
000E60
001E60
0CEF60
1D1E60
08EFFB
000E60
000E60
000E60
000D70
0008F2
ENDCHAR
STARTCHAR uni026D
ENCODING 621
SWIDTH 255 0
DWIDTH 4 0
BBX 4 14 1 -3
BITMAP
A900
A900
A900
A900
A900
A900
A900
A900
A900
A900
A900
A900
8C10
2CE2
ENDCHAR
STARTCHAR uni026E
ENCODING 622
SWIDTH 577 0
DWIDTH 9 0
BBX 8 14 1 -3
BITMAP
A9000000
A9000000
A9000000
AFFFFFF8
A90006D1
A9002E30
A900C700
A909D510
A90AADE3
A90000BB
A900007D
0000009C
04B305E5
018DFD60
ENDCHAR
STARTCHAR uni026F
ENCODING 623
SWIDTH 829 0
DWIDTH 13 0
BBX 11 8 1 0
BITMAP
C8001F4005F0
C8001F4005F0
C8001F4005F0
C8001F4005F0
B8001F4005F0
B9002F5006F0
8D22CDA14DF0
1BEC23DEA3F0
ENDCHAR
STARTCHAR uni0270
ENCODING 624
SWIDTH 829 0
DWIDTH 13 0
BBX 11 11 1 -3
BITMAP
C8001F4005F0
C8001F4005F0
C8001F4005F0
C8001F4005F0
B8001F4005F0
B9002F5006F0
8D22CDA14DF0
1BEC23DE95F0
0000000005F0
0000000005F0
0000000005F0
ENDCHAR
STARTCHAR uni0271
ENCODING 625
SWIDTH 829 0
DWIDTH 13 0
BBX 12 11 1 -3
BITMAP
A77EE61AEC30
AE717FC51BC0
AA000F7005F0
A9000F5004F1
A9000F5004F1
A9000F5004F1
A9000F5004F1
A9000F5004F1
0000000004F0
0000000017D0
00000000EE50
ENDCHAR
STARTCHAR uni0272
ENCODING 626
SWIDTH 547 0
DWIDTH 9 0
BBX 9 11 -1 -3
BITMAP
00A76DE900
00AE814F40
00AA000D70
00A9000C80
00A9000C80
00A9000C80
00A9000C80
00A9000C80
00A9000000
01D7000000
3FC1000000
ENDCHAR
STARTCHAR uni0273
ENCODING 627
SWIDTH 547 0
DWIDTH 9 0
BBX 9 11 1 -3
BITMAP
A76DE90000
AE814F4000
AA000D7000
A9000C8000
A9000C8000
A9000C8000
A9000C8000
A9000C8000
00000C8000
00000AB100
000003DE10
ENDCHAR
STARTCHAR uni0274
ENCODING 628
SWIDTH 543 0
DWIDTH 9 0
BBX 7 8 1 0
BITMAP
AD000D60
AF700D60
A9E20D60
A89A0D60
A81E4D60
A806CC60
A800BF60
A8003F60
ENDCHAR
STARTCHAR uni0275
ENCODING 629
SWIDTH 542 0
DWIDTH 9 0
BBX 8 8 0 0
BITMAP
007DEC40
08C315E3
1F30007A
3FFFFFFD
3F10006D
1F5000AA
08D416F3
007DEC40
ENDCHAR
STARTCHAR uni0276
ENCODING 630
SWIDTH 699 0
DWIDTH 11 0
BBX 11 8 0 0
BITMAP
006DFEDDDD90
07E515F10000
1F7004F10000
3F3004FFFF20
3F3004F10000
1F7004F10000
07E515F10000
006CFEDDDDB0
ENDCHAR
STARTCHAR uni0278
ENCODING 632
SWIDTH 680 0
DWIDTH 11 0
BBX 11 14 0 -3
BITMAP
00003F100000
00003F100000
00003F100000
003BEFEA2000
05E64F27F300
0E703F109C00
3F303F104F10
3F303F105F10
0E703F109C00
05E64F28E300
003BEFEA2000
00003F100000
00003F100000
00003F100000
ENDCHAR
STARTCHAR uni0279
ENCODING 633
SWIDTH 347 0
DWIDTH 6 0
BBX 5 8 0 0
BITMAP
001F40
001F40
001F40
001F40
001F40
003F40
12AE40
DC3D40
ENDCHAR
STARTCHAR uni027A
ENCODING 634
SWIDTH 347 0
DWIDTH 6 0
BBX 5 11 0 0
BITMAP
001F40
001F40
001F40
001F40
001F40
001F40
001F40
001F40
002F40
12AF40
DC3D40
ENDCHAR
STARTCHAR uni027B
ENCODING 635
SWIDTH 347 0
DWIDTH 6 0
BBX 6 11 0 -3
BITMAP
001F40
001F40
001F40
001F40
001F40
003F40
12AF40
DC3E40
000E40
000C60
0005EB
ENDCHAR
STARTCHAR uni027D
ENCODING 637
SWIDTH 347 0
DWIDTH 6 0
BBX 5 11 1 -3
BITMAP
A77E70
AD7100
AB0000
A90000
A90000
A90000
A90000
A90000
AA0000
8C1000
2CE200
ENDCHAR
STARTCHAR uni027E
ENCODING 638
SWIDTH 334 0
DWIDTH 5 0
BBX 5 8 1 0
BITMAP
08EF40
6F4100
9B0000
A90000
A90000
A90000
A90000
A90000
ENDCHAR
STARTCHAR uni0280
ENCODING 640
SWIDTH 495 0
DWIDTH 8 0
BBX 7 8 1 0
BITMAP
AFFEB200
A901AC00
A9005F00
A902BC00
AFFFC200
A909B000
A901E600
A9005E20
ENDCHAR
STARTCHAR uni0281
ENCODING 641
SWIDTH 495 0
DWIDTH 8 0
BBX 7 8 0 0
BITMAP
3F400B90
08D10B90
00C80B90
02CFFF90
0DA10B90
1F400B90
0DA10B90
03CEFF90
ENDCHAR
STARTCHAR uni0282
ENCODING 642
SWIDTH 419 0
DWIDTH 7 0
BBX 7 11 0 -3
BITMAP
04CEC500
1E614500
1F400000
07FA4000
0028EA00
00003F20
28216E10
8EEFC400
8A000000
5D100000
1BE70000
ENDCHAR
STARTCHAR uni0283
ENCODING 643
SWIDTH 247 0
DWIDTH 4 0
BBX 6 14 -1 -3
BITMAP
001BE7
008D10
00AA00
00AA00
00AA00
00AA00
00AA00
00AA00
00AA00
00AA00
00AA00
00A900
11D700
7FC100
ENDCHAR
STARTCHAR uni0284
ENCODING 644
SWIDTH 270 0
DWIDTH 4 0
BBX 6 14 -1 -3
BITMAP
001AE9
006E20
007C00
008C00
008C00
008C00
0DFFF2
008C00
008C00
008C00
008C00
008C00
01BA00
5FC300
ENDCHAR
STARTCHAR uni0288
ENCODING 648
SWIDTH 338 0
DWIDTH 5 0
BBX 6 14 0 -3
BITMAP
012000
04D000
06D000
9FFFE0
07D000
07D000
07D000
07D000
07D000
07D000
07D000
07D000
04F310
009EE1
ENDCHAR
STARTCHAR uni0289
ENCODING 649
SWIDTH 575 0
DWIDTH 9 0
BBX 9 8 0 0
BITMAP
08C0009B00
08C0009B00
08C0009B00
CFFFFFFFF0
08C0009B00
07D000AB00
04F417DB00
009EE66B00
ENDCHAR
STARTCHAR uni028A
ENCODING 650
SWIDTH 541 0
DWIDTH 9 0
BBX 9 8 0 0
BITMAP
6FF80DFF10
04E308D100
0C7000C700
2F30008C00
3F20007D00
1F5000BA00
08D316F300
007DFC4000
ENDCHAR
STARTCHAR uni028B
ENCODING 651
SWIDTH 530 0
DWIDTH 8 0
BBX 7 8 1 0
BITMAP
C807E900
C8003F50
C8000C90
C8000BA0
C8000C80
BA001F50
5E41AD00
07DEB200
ENDCHAR
STARTCHAR uni028C
ENCODING 652
SWIDTH 467 0
DWIDTH 7 0
BBX 8 8 0 0
BITMAP
004FA000
009AE100
00E3D500
04E08B00
09903F10
0E400D60
4E0008B0
AA0004F2
ENDCHAR
STARTCHAR uni028D
ENCODING 653
SWIDTH 718 0
DWIDTH 11 0
BBX 11 8 0 0
BITMAP
00AF300BF100
00EC700EC500
03E6B04B9900
07B2E0785D00
0B70D4B42F20
0E4097E00D60
3F005DB009B0
7B001F7005E0
ENDCHAR
STARTCHAR uni028E
ENCODING 654
SWIDTH 467 0
DWIDTH 7 0
BBX 8 11 0 0
BITMAP
00005DE0
0003F410
000A9000
001F4000
006F8000
00C7E000
02E0C600
08A06C00
0D501F30
4E000AA0
9A0004F1
ENDCHAR
STARTCHAR uni028F
ENCODING 655
SWIDTH 415 0
DWIDTH 7 0
BBX 7 8 0 0
BITMAP
B9001E60
4F207D00
0B80D600
04E6D000
00BF6000
005F0000
005F0000
005F0000
ENDCHAR
STARTCHAR uni0290
ENCODING 656
SWIDTH 425 0
DWIDTH 7 0
BBX 8 11 0 -3
BITMAP
1FFFFF30
0000BA00
0006E200
001E6000
00AB0000
04F20000
1D700000
7FFFFF30
00001F30
00000E60
000006EB
ENDCHAR
STARTCHAR uni0291
ENCODING 657
SWIDTH 449 0
DWIDTH 7 0
BBX 8 10 0 -2
BITMAP
1FFFFF20
0000BA00
0006E100
002E6000
00CB2DD1
07E2B485
3F62A1B3
8FFFFE80
000B0000
00030000
ENDCHAR
STARTCHAR uni0292
ENCODING 658
SWIDTH 425 0
DWIDTH 7 0
BBX 7 11 0 -3
BITMAP
4FFFFF20
0000C800
0009B000
005D1000
02EA5000
03A9EB00
00003F40
00000D70
00001F50
9711AD10
3BEEA200
ENDCHAR
STARTCHAR uni0294
ENCODING 660
SWIDTH 417 0
DWIDTH 7 0
BBX 7 11 0 0
BITMAP
3AEEB300
C7119D10
00001F50
00001F40
00009D10
001AE300
00AC2000
00AA0000
00AA0000
00AA0000
00AA0000
ENDCHAR
STARTCHAR uni0295
ENCODING 661
SWIDTH 443 0
DWIDTH 7 0
BBX 7 11 0 0
BITMAP
03BEEA20
2E811990
7E000000
6E000000
2E700000
05F91000
003E8000
000C8000
000C8000
000C8000
000C8000
ENDCHAR
STARTCHAR uni0298
ENCODING 664
SWIDTH 525 0
DWIDTH 8 0
BBX 8 11 0 0
BITMAP
005DE910
03F41C90
0A9003F1
0E5000E4
0F3000D6
1F35B0C7
0F3000D6
0D5000E4
0A9003F1
04E41B90
006DEA10
ENDCHAR
STARTCHAR uni0299
ENCODING 665
SWIDTH 508 0
DWIDTH 8 0
BBX 7 8 1 0
BITMAP
AFFFD600
A9006F10
A9006E10
AFFFF600
A9015F40
A9000D70
A9005F40
AFFFD600
ENDCHAR
STARTCHAR uni029C
ENCODING 668
SWIDTH 562 0
DWIDTH 9 0
BBX 7 8 1 0
BITMAP
AA0009B0
AA0009B0
AA0009B0
AFFFFFB0
AA0009B0
AA0009B0
AA0009B0
AA0009B0
ENDCHAR
STARTCHAR uni029D
ENCODING 669
SWIDTH 284 0
DWIDTH 5 0
BBX 7 16 -2 -4
BITMAP
0003E400
0003E400
00000000
00000000
0001F400
0001F400
0001F400
0001F400
0001F400
0001F400
0001F400
0001F400
1BFDF300
4D29F700
1AEC6E40
00000690
ENDCHAR
STARTCHAR uni029F
ENCODING 671
SWIDTH 411 0
DWIDTH 7 0
BBX 6 8 1 0
BITMAP
A90000
A90000
A90000
A90000
A90000
A90000
A90000
AFFFF2
ENDCHAR
STARTCHAR uni02A1
ENCODING 673
SWIDTH 441 0
DWIDTH 7 0
BBX 7 11 0 0
BITMAP
19EEC500
8A216F30
00000C80
00000D70
00006E10
0008D300
DFFFFFB0
007D0000
007D0000
007D0000
007D0000
ENDCHAR
STARTCHAR uni02A2
ENCODING 674
SWIDTH 441 0
DWIDTH 7 0
BBX 7 11 0 0
BITMAP
04BEEA20
3F711990
7D000000
6E000000
1D700000
02D80000
BFFFFFD0
000C8000
000C8000
000C8000
000C8000
ENDCHAR
STARTCHAR h.sups
ENCODING 688
SWIDTH 366 0
DWIDTH 6 0
BBX 6 8 0 6
BITMAP
3C0000
3C0000
3DAE80
3E52E1
3C00D2
3C00D2
3C00D2
3C00D2
ENDCHAR
STARTCHAR j.sups
ENCODING 690
SWIDTH 169 0
DWIDTH 3 0
BBX 3 9 -1 4
BITMAP
02C0
0000
02D0
02D0
02D0
02D0
02D0
04C0
5E70
ENDCHAR
STARTCHAR r.sups
ENCODING 691
SWIDTH 240 0
DWIDTH 4 0
BBX 4 6 0 6
BITMAP
29AB
3F50
3D00
3D00
3D00
3D00
ENDCHAR
STARTCHAR w.sups
ENCODING 695
SWIDTH 487 0
DWIDTH 8 0
BBX 8 5 0 6
BITMAP
960A8086
5A0BB0C2
1D38B2C0
0B947980
07E03F40
ENDCHAR
STARTCHAR y.sups
ENCODING 696
SWIDTH 319 0
DWIDTH 5 0
BBX 5 7 0 4
BITMAP
A502C0
4B0760
0C2C10
069B00
00E500
03D000
7E4000
ENDCHAR
STARTCHAR uni02B9
ENCODING 697
SWIDTH 249 0
DWIDTH 4 0
BBX 2 4 1 7
BITMAP
6D
7B
88
A4
ENDCHAR
STARTCHAR uni02BB
ENCODING 699
SWIDTH 249 0
DWIDTH 4 0
BBX 3 4 0 7
BITMAP
0050
0870
0D00
1D80
ENDCHAR
STARTCHAR uni02BC
ENCODING 700
SWIDTH 249 0
DWIDTH 4 0
BBX 2 4 1 7
BITMAP
8D
0D
78
50
ENDCHAR
STARTCHAR uni02BE
ENCODING 702
SWIDTH 166 0
DWIDTH 3 0
BBX 3 3 0 9
BITMAP
8C10
0860
8C10
ENDCHAR
STARTCHAR uni02BF
ENCODING 703
SWIDTH 166 0
DWIDTH 3 0
BBX 3 3 0 9
BITMAP
5E30
B400
5E30
ENDCHAR
STARTCHAR uni02C1
ENCODING 705
SWIDTH 302 0
DWIDTH 5 0
BBX 5 8 0 6
BITMAP
1AEC20
7A1450
960000
4C1000
05D100
00D200
00D200
00B200
ENDCHAR
STARTCHAR circumflex
ENCODING 710
SWIDTH 542 0
DWIDTH 9 0
BBX 5 3 2 9
BITMAP
0AF600
7C4E20
B10480
ENDCHAR
STARTCHAR caron
ENCODING 711
SWIDTH 542 0
DWIDTH 9 0
BBX 5 3 2 9
BITMAP
B10480
7C4E20
0AF600
ENDCHAR
STARTCHAR uni02C8
ENCODING 712
SWIDTH 114 0
DWIDTH 2 0
BBX 2 3 0 9
BITMAP
97
96
86
ENDCHAR
STARTCHAR uni02C9
ENCODING 713
SWIDTH 277 0
DWIDTH 4 0
BBX 5 1 0 10
BITMAP
EFFF50
ENDCHAR
STARTCHAR uni02CA
ENCODING 714
SWIDTH 225 0
DWIDTH 4 0
BBX 3 3 1 9
BITMAP
05A0
4E50
B300
ENDCHAR
STARTCHAR uni02CB
ENCODING 715
SWIDTH 225 0
DWIDTH 4 0
BBX 4 3 -1 9
BITMAP
3B10
0AC1
0086
ENDCHAR
STARTCHAR uni02CC
ENCODING 716
SWIDTH 114 0
DWIDTH 2 0
BBX 2 3 0 -4
BITMAP
96
96
A7
ENDCHAR
STARTCHAR uni02D0
ENCODING 720
SWIDTH 249 0
DWIDTH 4 0
BBX 3 7 0 0
BITMAP
1DD0
0650
0000
0000
0000
0650
1DD0
ENDCHAR
STARTCHAR uni02D1
ENCODING 721
SWIDTH 249 0
DWIDTH 4 0
BBX 3 2 0 4
BITMAP
1DD0
0650
ENDCHAR
STARTCHAR breve
ENCODING 728
SWIDTH 542 0
DWIDTH 9 0
BBX 6 3 1 9
BITMAP
1B002B
0C51A7
03CEA1
ENDCHAR
STARTCHAR dotaccent
ENCODING 729
SWIDTH 542 0
DWIDTH 9 0
BBX 3 2 3 9
BITMAP
5E10
5E10
ENDCHAR
STARTCHAR ring
ENCODING 730
SWIDTH 542 0
DWIDTH 9 0
BBX 5 3 2 9
BITMAP
1CE900
6A2D10
1CE900
ENDCHAR
STARTCHAR ogonek
ENCODING 731
SWIDTH 542 0
DWIDTH 9 0
BBX 3 4 3 -3
BITMAP
0610
6800
A610
5EA0
ENDCHAR
STARTCHAR tilde
ENCODING 732
SWIDTH 542 0
DWIDTH 9 0
BBX 6 3 1 9
BITMAP
034003
2DCA2E
5808E7
ENDCHAR
STARTCHAR hungarumlaut
ENCODING 733
SWIDTH 542 0
DWIDTH 9 0
BBX 6 4 2 9
BITMAP
000010
02C0B4
0974C0
1B0830
ENDCHAR
STARTCHAR uni02DE
ENCODING 734
SWIDTH 151 0
DWIDTH 2 0
BBX 5 3 -2 4
BITMAP
17B000
78C310
004E80
ENDCHAR
STARTCHAR uni02E0
ENCODING 736
SWIDTH 318 0
DWIDTH 5 0
BBX 5 7 0 4
BITMAP
A503B0
4B0850
0C2C00
06C800
04E500
095B00
06E800
ENDCHAR
STARTCHAR l.sups
ENCODING 737
SWIDTH 174 0
DWIDTH 3 0
BBX 3 8 0 6
BITMAP
3C00
3C00
3C00
3C00
3C00
3C00
2D00
1D50
ENDCHAR
STARTCHAR s.sups
ENCODING 738
SWIDTH 283 0
DWIDTH 5 0
BBX 5 5 0 6
BITMAP
2CE900
6B1300
08C700
431D20
4CEA00
ENDCHAR
STARTCHAR x.sups
ENCODING 739
SWIDTH 307 0
DWIDTH 5 0
BBX 5 5 0 6
BITMAP
6A0A50
0B8900
05F400
0C6C00
870A70
ENDCHAR
STARTCHAR uni0300
ENCODING 768
SWIDTH 0 0
DWIDTH 0 0
BBX 4 3 -3 9
BITMAP
1B30
07E2
0069
ENDCHAR
STARTCHAR uni0301
ENCODING 769
SWIDTH 0 0
DWIDTH 0 0
BBX 4 3 -1 9
BITMAP
03B1
2E70
9600
ENDCHAR
STARTCHAR uni0302
ENCODING 770
SWIDTH 0 0
DWIDTH 0 0
BBX 6 3 -3 9
BITMAP
02EE20
0B88B0
480084
ENDCHAR
STARTCHAR uni0303
ENCODING 771
SWIDTH 0 0
DWIDTH 0 0
BBX 6 3 -3 9
BITMAP
042013
7CD65A
A32BE3
ENDCHAR
STARTCHAR uni0304
ENCODING 772
SWIDTH 0 0
DWIDTH 0 0
BBX 6 1 -3 10
BITMAP
2FFFF2
ENDCHAR
STARTCHAR uni0305
ENCODING 773
SWIDTH 0 0
DWIDTH 0 0
BBX 6 1 -3 10
BITMAP
2FFFF2
ENDCHAR
STARTCHAR uni0306
ENCODING 774
SWIDTH 0 0
DWIDTH 0 0
BBX 6 3 -3 9
BITMAP
660076
2D22D2
06DD60
ENDCHAR
STARTCHAR uni0307
ENCODING 775
SWIDTH 0 0
DWIDTH 0 0
BBX 2 2 -1 9
BITMAP
AA
AA
ENDCHAR
STARTCHAR uni0308
ENCODING 776
SWIDTH 0 0
DWIDTH 0 0
BBX 6 2 -3 9
BITMAP
3E11E2
3E11E3
ENDCHAR
STARTCHAR uni0309
ENCODING 777
SWIDTH 0 0
DWIDTH 0 0
BBX 4 4 -2 9
BITMAP
1E80
02E3
02E3
0870
ENDCHAR
STARTCHAR uni030A
ENCODING 778
SWIDTH 0 0
DWIDTH 0 0
BBX 4 3 -2 9
BITMAP
5EE4
B55B
5EE5
ENDCHAR
STARTCHAR uni030B
ENCODING 779
SWIDTH 0 0
DWIDTH 0 0
BBX 6 4 -2 9
BITMAP
000010
0672D1
0D2970
570A00
ENDCHAR
STARTCHAR uni030C
ENCODING 780
SWIDTH 0 0
DWIDTH 0 0
BBX 6 3 -3 9
BITMAP
480084
0C88C0
02EE20
ENDCHAR
STARTCHAR uni030F
ENCODING 783
SWIDTH 0 0
DWIDTH 0 0
BBX 6 3 -4 9
BITMAP
1C1760
0882D0
01B075
ENDCHAR
STARTCHAR uni0311
ENCODING 785
SWIDTH 0 0
DWIDTH 0 0
BBX 6 3 -3 9
BITMAP
06DD60
2D22D2
660076
ENDCHAR
STARTCHAR uni0312
ENCODING 786
SWIDTH 0 0
DWIDTH 0 0
BBX 2 3 -1 9
BITMAP
15
92
A6
ENDCHAR
STARTCHAR uni0313
ENCODING 787
SWIDTH 0 0
DWIDTH 0 0
BBX 2 3 -1 9
BITMAP
7A
29
51
ENDCHAR
STARTCHAR uni0318
ENCODING 792
SWIDTH 0 0
DWIDTH 0 0
BBX 4 5 -2 -5
BITMAP
0011
0075
3FF5
0075
0011
ENDCHAR
STARTCHAR uni0319
ENCODING 793
SWIDTH 0 0
DWIDTH 0 0
BBX 4 5 -2 -5
BITMAP
1100
5700
5FF3
5700
1100
ENDCHAR
STARTCHAR uni031A
ENCODING 794
SWIDTH 0 0
DWIDTH 0 0
BBX 4 3 -2 8
BITMAP
3FF5
0075
0033
ENDCHAR
STARTCHAR uni031B
ENCODING 795
SWIDTH 0 0
DWIDTH 0 0
BBX 4 4 -1 7
BITMAP
0072
00D5
04E2
1C40
ENDCHAR
STARTCHAR uni031C
ENCODING 796
SWIDTH 0 0
DWIDTH 0 0
BBX 2 3 -1 -4
BITMAP
9D
D1
9D
ENDCHAR
STARTCHAR uni031D
ENCODING 797
SWIDTH 0 0
DWIDTH 0 0
BBX 4 3 -2 -3
BITMAP
0440
0660
8FF8
ENDCHAR
STARTCHAR uni031E
ENCODING 798
SWIDTH 0 0
DWIDTH 0 0
BBX 4 3 -2 -4
BITMAP
8FF8
0660
0440
ENDCHAR
STARTCHAR uni031F
ENCODING 799
SWIDTH 0 0
DWIDTH 0 0
BBX 4 5 -2 -5
BITMAP
0110
0660
8FF8
0660
0110
ENDCHAR
STARTCHAR uni0320
ENCODING 800
SWIDTH 0 0
DWIDTH 0 0
BBX 4 1 -2 -3
BITMAP
8FF8
ENDCHAR
STARTCHAR uni0323
ENCODING 803
SWIDTH 0 0
DWIDTH 0 0
BBX 2 2 -1 -4
BITMAP
AA
AA
ENDCHAR
STARTCHAR uni0324
ENCODING 804
SWIDTH 0 0
DWIDTH 0 0
BBX 6 2 -3 -4
BITMAP
3E11E2
3E11E3
ENDCHAR
STARTCHAR uni0325
ENCODING 805
SWIDTH 0 0
DWIDTH 0 0
BBX 4 3 -2 -4
BITMAP
5EE4
B55B
5EE5
ENDCHAR
STARTCHAR uni0326
ENCODING 806
SWIDTH 0 0
DWIDTH 0 0
BBX 4 3 -2 -4
BITMAP
0BA1
03E3
7D80
ENDCHAR
STARTCHAR uni0327
ENCODING 807
SWIDTH 0 0
DWIDTH 0 0
BBX 4 6 -2 -5
BITMAP
0010
0740
0DB0
02E3
03E2
7C50
ENDCHAR
STARTCHAR uni0328
ENCODING 808
SWIDTH 0 0
DWIDTH 0 0
BBX 3 4 -1 -3
BITMAP
1500
B300
F210
9E60
ENDCHAR
STARTCHAR uni0329
ENCODING 809
SWIDTH 0 0
DWIDTH 0 0
BBX 2 3 -1 -4
BITMAP
77
88
88
ENDCHAR
STARTCHAR uni032A
ENCODING 810
SWIDTH 0 0
DWIDTH 0 0
BBX 4 3 -2 -4
BITMAP
EFFE
B00B
6006
ENDCHAR
STARTCHAR uni032C
ENCODING 812
SWIDTH 0 0
DWIDTH 0 0
BBX 6 3 -3 -4
BITMAP
480084
0C88C0
02EE20
ENDCHAR
STARTCHAR uni032E
ENCODING 814
SWIDTH 0 0
DWIDTH 0 0
BBX 6 3 -3 -4
BITMAP
660076
2D22D2
06DD60
ENDCHAR
STARTCHAR uni032F
ENCODING 815
SWIDTH 0 0
DWIDTH 0 0
BBX 6 3 -3 -4
BITMAP
06DD60
2D22D2
660076
ENDCHAR
STARTCHAR uni0330
ENCODING 816
SWIDTH 0 0
DWIDTH 0 0
BBX 6 3 -3 -4
BITMAP
042013
7CD65A
A32BE3
ENDCHAR
STARTCHAR uni0331
ENCODING 817
SWIDTH 0 0
DWIDTH 0 0
BBX 6 1 -3 -2
BITMAP
2FFFF2
ENDCHAR
STARTCHAR uni0334
ENCODING 820
SWIDTH 0 0
DWIDTH 0 0
BBX 6 3 -3 3
BITMAP
042013
7CD65A
A32BE3
ENDCHAR
STARTCHAR uni0339
ENCODING 825
SWIDTH 0 0
DWIDTH 0 0
BBX 2 3 -1 -4
BITMAP
D9
1D
D9
ENDCHAR
STARTCHAR uni033A
ENCODING 826
SWIDTH 0 0
DWIDTH 0 0
BBX 4 3 -2 -4
BITMAP
6006
B00B
EFFE
ENDCHAR
STARTCHAR uni033B
ENCODING 827
SWIDTH 0 0
DWIDTH 0 0
BBX 4 3 -2 -4
BITMAP
EFFE
B00B
EFFE
ENDCHAR
STARTCHAR uni033C
ENCODING 828
SWIDTH 0 0
DWIDTH 0 0
BBX 6 2 -3 -3
BITMAP
4EAAE4
A48849
ENDCHAR
STARTCHAR uni033D
ENCODING 829
SWIDTH 0 0
DWIDTH 0 0
BBX 4 3 -2 8
BITMAP
2AA2
0CC0
2552
ENDCHAR
STARTCHAR uni0342
ENCODING 834
SWIDTH 0 0
DWIDTH 0 0
BBX 6 3 -3 9
BITMAP
042013
7CD65A
A32BE3
ENDCHAR
STARTCHAR uni0345
ENCODING 837
SWIDTH 0 0
DWIDTH 0 0
BBX 3 3 -1 -3
BITMAP
3300
8800
3E50
ENDCHAR
STARTCHAR uni0361
ENCODING 865
SWIDTH 0 0
DWIDTH 0 0
BBX 16 3 -8 9
BITMAP
00038BDEEDB83000
04CB64100146BC40
1920000000000291
ENDCHAR
STARTCHAR uni0374
ENCODING 884
SWIDTH 249 0
DWIDTH 4 0
BBX 2 4 1 7
BITMAP
6D
7B
88
A4
ENDCHAR
STARTCHAR uni0375
ENCODING 885
SWIDTH 249 0
DWIDTH 4 0
BBX 2 4 1 0
BITMAP
49
88
B7
D5
ENDCHAR
STARTCHAR uni037A
ENCODING 890
SWIDTH 542 0
DWIDTH 9 0
BBX 3 3 3 -3
BITMAP
0500
1E10
0BC0
ENDCHAR
STARTCHAR uni037E
ENCODING 894
SWIDTH 249 0
DWIDTH 4 0
BBX 4 11 0 -3
BITMAP
0BB0
0BB0
0000
0000
0000
0000
0AC0
0AF2
00D1
0980
1700
ENDCHAR
STARTCHAR tonos
ENCODING 900
SWIDTH 542 0
DWIDTH 9 0
BBX 3 3 3 9
BITMAP
0990
0D50
1D00
ENDCHAR
STARTCHAR dieresistonos
ENCODING 901
SWIDTH 542 0
DWIDTH 9 0
BBX 5 3 2 9
BITMAP
009600
C2D5B0
01A000
ENDCHAR
STARTCHAR Alphatonos
ENCODING 902
SWIDTH 566 0
DWIDTH 9 0
BBX 9 10 0 0
BITMAP
7903FA0000
A709AE1000
C30E3D5000
304E08B000
00A903F100
01E400D600
05FFFFFC00
0B90004F20
1F40000E70
6E000009D0
ENDCHAR
STARTCHAR anoteleia
ENCODING 903
SWIDTH 249 0
DWIDTH 4 0
BBX 2 2 1 6
BITMAP
BB
BB
ENDCHAR
STARTCHAR Epsilontonos
ENCODING 904
SWIDTH 591 0
DWIDTH 9 0
BBX 10 10 -1 0
BITMAP
0D38FFFFF8
1F18C00000
3C08C00000
1208C00000
0008FFFFC0
0008C00000
0008C00000
0008C00000
0008C00000
0008FFFFFA
ENDCHAR
STARTCHAR Etatonos
ENCODING 905
SWIDTH 716 0
DWIDTH 11 0
BBX 11 10 -1 0
BITMAP
0D38C00005F0
1F18C00005F0
3C08C00005F0
1208C00005F0
0008FFFFFFF0
0008C00005F0
0008C00005F0
0008C00005F0
0008C00005F0
0008C00005F0
ENDCHAR
STARTCHAR Iotatonos
ENCODING 906
SWIDTH 327 0
DWIDTH 5 0
BBX 5 10 -1 0
BITMAP
0D38C0
1F18C0
3C08C0
1208C0
0008C0
0008C0
0008C0
0008C0
0008C0
0008C0
ENDCHAR
STARTCHAR Omicrontonos
ENCODING 908
SWIDTH 711 0
DWIDTH 11 0
BBX 12 10 -1 0
BITMAP
0D304BEEC400
1F15F8117F60
3C0D900007E1
124F200001F6
006F000000D8
006F000000E8
003F300001F6
000D900007E1
0004F8117F60
00003BEEC400
ENDCHAR
STARTCHAR Upsilontonos
ENCODING 910
SWIDTH 600 0
DWIDTH 10 0
BBX 11 10 -1 0
BITMAP
0D3C90001E50
1F14F2008C00
3C00B901E500
12003F17C000
00000B8E4000
000003FC0000
000000D70000
000000D70000
000000D70000
000000D70000
ENDCHAR
STARTCHAR Omegatonos
ENCODING 911
SWIDTH 723 0
DWIDTH 12 0
BBX 12 10 -1 0
BITMAP
0E303AEFC600
2E03E9115E80
4B0CA00005F3
122F400000D8
004F200000BA
003F200000C9
001E500001E5
0008C00007D1
0001CA005E30
008FFF30DFFD
ENDCHAR
STARTCHAR iotadieresistonos
ENCODING 912
SWIDTH 262 0
DWIDTH 4 0
BBX 6 12 -1 0
BITMAP
001D00
5A59A4
008300
000000
00A900
00A900
00A900
00A900
00A800
00A800
00A900
005E90
ENDCHAR
STARTCHAR Alpha
ENCODING 913
SWIDTH 544 0
DWIDTH 9 0
BBX 9 10 0 0
BITMAP
0009F40000
000EAA0000
004D3E1000
00A80D5000
01E309B000
05E004F100
0BFFFFF600
1F40009C00
6E00004F20
C900000E70
ENDCHAR
STARTCHAR Beta
ENCODING 914
SWIDTH 588 0
DWIDTH 9 0
BBX 8 10 1 0
BITMAP
8FFFEA30
8C002AE1
8C0003F2
8C002AB0
8FFFFE40
8C0016F5
8C0000AA
8C0000AA
8C0017F4
8FFFEB40
ENDCHAR
STARTCHAR Gamma
ENCODING 915
SWIDTH 498 0
DWIDTH 8 0
BBX 7 10 1 0
BITMAP
8FFFFF70
8C000000
8C000000
8C000000
8C000000
8C000000
8C000000
8C000000
8C000000
8C000000
ENDCHAR
STARTCHAR uni0394
ENCODING 916
SWIDTH 588 0
DWIDTH 9 0
BBX 9 10 0 0
BITMAP
0004FA0000
0009AF1000
001E3C6000
006D07C000
00B802F200
02F200C800
07C0006D00
0D70001F40
4F20000BA0
8FFFFFFFE0
ENDCHAR
STARTCHAR Epsilon
ENCODING 917
SWIDTH 527 0
DWIDTH 8 0
BBX 7 10 1 0
BITMAP
8FFFFF70
8C000000
8C000000
8C000000
8FFFFB00
8C000000
8C000000
8C000000
8C000000
8FFFFFA0
ENDCHAR
STARTCHAR Zeta
ENCODING 918
SWIDTH 539 0
DWIDTH 9 0
BBX 8 10 0 0
BITMAP
0CFFFFFE
000002E8
00000CD0
00007F30
0003F700
000DC000
008E2000
04F60000
1DB00000
4FFFFFFE
ENDCHAR
STARTCHAR Eta
ENCODING 919
SWIDTH 652 0
DWIDTH 10 0
BBX 8 10 1 0
BITMAP
8C00005F
8C00005F
8C00005F
8C00005F
8FFFFFFF
8C00005F
8C00005F
8C00005F
8C00005F
8C00005F
ENDCHAR
STARTCHAR Theta
ENCODING 920
SWIDTH 664 0
DWIDTH 11 0
BBX 10 10 0 0
BITMAP
0029EFD700
02EB204EA0
0AC00003F4
0F600000CA
2F47FFF2AC
2F400000AC
0E600000C9
0AD00004F4
02DB204E90
0029EFD700
ENDCHAR
STARTCHAR Iota
ENCODING 921
SWIDTH 263 0
DWIDTH 4 0
BBX 2 10 1 0
BITMAP
8C
8C
8C
8C
8C
8C
8C
8C
8C
8C
ENDCHAR
STARTCHAR Kappa
ENCODING 922
SWIDTH 579 0
DWIDTH 9 0
BBX 8 10 1 0
BITMAP
8C0004E4
8C003E60
8C02D800
8C1CA000
8CBFC000
8FD2E700
8E206E20
8C000CA0
8C0003F4
8C00009D
ENDCHAR
STARTCHAR Lambda
ENCODING 923
SWIDTH 515 0
DWIDTH 8 0
BBX 9 10 0 0
BITMAP
000CF10000
002ED60000
007A7B0000
00C53F1000
02F10D6000
07B009B000
0D7004F100
2F2000E600
8C0000AB00
D800005F10
ENDCHAR
STARTCHAR Mu
ENCODING 924
SWIDTH 727 0
DWIDTH 12 0
BBX 10 10 1 0
BITMAP
8F400009F3
8E90001DE3
8AE10069F3
89B600B4F3
8A5C02D1F3
8A1E2781F3
8A098D21F3
8A03EC01F3
8A00C601F3
8A000001F3
ENDCHAR
STARTCHAR Nu
ENCODING 925
SWIDTH 647 0
DWIDTH 10 0
BBX 8 10 1 0
BITMAP
8F20005E
8EB0005E
89D5005E
8A6D105E
8A0C805E
8B03F25E
8B009B5E
8B001E8E
8B0006EE
8B0000CE
ENDCHAR
STARTCHAR Xi
ENCODING 926
SWIDTH 533 0
DWIDTH 9 0
BBX 8 10 0 0
BITMAP
1FFFFFF9
00000000
00000000
00000000
00FFFF80
00000000
00000000
00000000
00000000
3FFFFFFB
ENDCHAR
STARTCHAR Omicron
ENCODING 927
SWIDTH 664 0
DWIDTH 11 0
BBX 10 10 0 0
BITMAP
0029EFD700
02EB204EA0
0AC00003F4
0F600000CA
2F400000AC
2F400000AC
0E600000C9
0AD00004F4
02DB204E90
0029EFD700
ENDCHAR
STARTCHAR Pi
ENCODING 928
SWIDTH 645 0
DWIDTH 10 0
BBX 8 10 1 0
BITMAP
8FFFFFFD
8C00007D
8C00007D
8C00007D
8C00007D
8C00007D
8C00007D
8C00007D
8C00007D
8C00007D
ENDCHAR
STARTCHAR Rho
ENCODING 929
SWIDTH 566 0
DWIDTH 9 0
BBX 8 10 1 0
BITMAP
8FFFDA30
8C0029E1
8C0001F5
8C0001F5
8C002AD1
8FFFD920
8C000000
8C000000
8C000000
8C000000
ENDCHAR
STARTCHAR Sigma
ENCODING 931
SWIDTH 538 0
DWIDTH 9 0
BBX 8 10 0 0
BITMAP
3FFFFFF8
09C10000
00BA0000
001D8000
0002E500
0003E300
002E6000
01C90000
0AC00000
4FFFFFFF
ENDCHAR
STARTCHAR Tau
ENCODING 932
SWIDTH 536 0
DWIDTH 9 0
BBX 9 10 0 0
BITMAP
8FFFFFFF20
0006E00000
0006E00000
0006E00000
0006E00000
0006E00000
0006E00000
0006E00000
0006E00000
0006E00000
ENDCHAR
STARTCHAR Upsilon
ENCODING 933
SWIDTH 476 0
DWIDTH 8 0
BBX 8 10 0 0
BITMAP
BA0001E6
4F2007D0
0B901E50
03F27C00
00B9D500
003FC000
000D7000
000D7000
000D7000
000D7000
ENDCHAR
STARTCHAR Phi
ENCODING 934
SWIDTH 719 0
DWIDTH 12 0
BBX 11 11 0 0
BITMAP
00000D500000
00000D500000
003ADFEC7000
05F72D64CC10
0E700D501E70
3F200D500AA0
3F200D500AA0
0E800D501E70
05F82D64CC00
003ADFEC7000
00000D500000
ENDCHAR
STARTCHAR Chi
ENCODING 935
SWIDTH 513 0
DWIDTH 8 0
BBX 8 10 0 0
BITMAP
4F3000D7
0AB007D0
02E51E50
007D8B00
000DF200
002EE400
00A97D00
04E11D70
0D7005E2
7D1000CA
ENDCHAR
STARTCHAR Psi
ENCODING 936
SWIDTH 699 0
DWIDTH 11 0
BBX 10 10 1 0
BITMAP
F501F302F3
F501F302F3
F501F303F2
D701F305F1
8E31F32C90
08EDFDE910
0003F51000
0001F30000
0001F30000
0001F30000
ENDCHAR
STARTCHAR uni03A9
ENCODING 937
SWIDTH 678 0
DWIDTH 11 0
BBX 11 10 0 0
BITMAP
0019DFD81000
01DB203DB000
08D00002F600
0E700000AB00
1F5000007D00
0F6000008C00
0B900000C900
05E20004F300
009C102D7000
4FFF709FFF20
ENDCHAR
STARTCHAR Iotadieresis
ENCODING 938
SWIDTH 263 0
DWIDTH 4 0
BBX 6 13 -1 0
BITMAP
3E10D5
3E10D5
000000
008C00
008C00
008C00
008C00
008C00
008C00
008C00
008C00
008C00
008C00
ENDCHAR
STARTCHAR Upsilondieresis
ENCODING 939
SWIDTH 476 0
DWIDTH 8 0
BBX 8 13 0 0
BITMAP
06B02E10
06B02E10
00000000
BA0001E6
4F2007D0
0B901E50
03F27C00
00B9D500
003FC000
000D7000
000D7000
000D7000
000D7000
ENDCHAR
STARTCHAR alphatonos
ENCODING 940
SWIDTH 560 0
DWIDTH 9 0
BBX 9 12 0 0
BITMAP
00006C0000
0000A80000
0000C20000
0000000000
007EE83F20
08E419AE00
1E6000EB00
3F3000C800
3F2000D600
1F4000E400
0AC218D600
01AED46E90
ENDCHAR
STARTCHAR epsilontonos
ENCODING 941
SWIDTH 448 0
DWIDTH 7 0
BBX 7 12 0 0
BITMAP
0001E400
0004E000
00068000
00000000
02BEEB30
0CA21630
0AA10000
03EFF300
1E710000
3F100000
1E911560
03BEEC40
ENDCHAR
STARTCHAR etatonos
ENCODING 942
SWIDTH 541 0
DWIDTH 9 0
BBX 7 14 1 -2
BITMAP
0005D000
0009A000
000B3000
00000000
B74DE900
BBA13F40
AC000D60
A9000C70
A9000C70
A9000C70
A9000C70
A9000D70
00000D70
00000D70
ENDCHAR
STARTCHAR iotatonos
ENCODING 943
SWIDTH 262 0
DWIDTH 4 0
BBX 3 12 1 0
BITMAP
0E40
3E10
6800
0000
A900
A900
A900
A900
A800
A800
A900
5E90
ENDCHAR
STARTCHAR upsilondieresistonos
ENCODING 944
SWIDTH 510 0
DWIDTH 8 0
BBX 7 12 1 0
BITMAP
002C0000
6868B300
00920000
00000000
F4009B00
E5005E00
E5002F20
E5001F40
E4002F30
D5004F10
9C22C900
1AEE9100
ENDCHAR
STARTCHAR alpha
ENCODING 945
SWIDTH 560 0
DWIDTH 9 0
BBX 9 8 0 0
BITMAP
007EE83F20
08E419AE00
1E6000EB00
3F3000C800
3F2000D600
1F4000E400
0AC218D600
01AED46E90
ENDCHAR
STARTCHAR beta
ENCODING 946
SWIDTH 565 0
DWIDTH 9 0
BBX 8 13 1 -2
BITMAP
05CEC500
4F516F20
9B000E50
B9002F30
B806D600
B81DEC30
B80008E1
B80001F4
B80001F4
BE612AD0
B99DEB20
B8000000
B9000000
ENDCHAR
STARTCHAR gamma
ENCODING 947
SWIDTH 484 0
DWIDTH 8 0
BBX 8 10 0 -2
BITMAP
8B0000F5
1D5002F1
06D007C0
00E40D60
00895D00
004DB600
000EC000
000C6000
000C7000
000C7000
ENDCHAR
STARTCHAR delta
ENCODING 948
SWIDTH 531 0
DWIDTH 9 0
BBX 8 11 0 0
BITMAP
009EFDA4
04F21363
01E50000
004E8100
002AFC20
04E619E1
0D6000C8
2F20009B
1F4000B9
08D316F3
007DEC40
ENDCHAR
STARTCHAR epsilon
ENCODING 949
SWIDTH 448 0
DWIDTH 7 0
BBX 7 8 0 0
BITMAP
02BEEB30
0CA21630
0AA10000
03EFF300
1E710000
3F100000
1E911560
03BEEC40
ENDCHAR
STARTCHAR zeta
ENCODING 950
SWIDTH 424 0
DWIDTH 7 0
BBX 7 13 0 -2
BITMAP
0BFFFF80
01108B10
0009B000
007D1000
02F30000
0BA00000
1F400000
3F200000
2F500000
0BD40000
019EFB30
00002B90
00001C30
ENDCHAR
STARTCHAR eta
ENCODING 951
SWIDTH 541 0
DWIDTH 9 0
BBX 7 10 1 -2
BITMAP
B74DE900
BBA13F40
AC000D60
A9000C70
A9000C70
A9000C70
A9000C70
A9000D70
00000D70
00000D70
ENDCHAR
STARTCHAR theta
ENCODING 952
SWIDTH 522 0
DWIDTH 8 0
BBX 8 11 0 0
BITMAP
006DE910
04E42C90
0A9004F1
0E6001F4
0F4000E5
1FFFFFF6
0F4000E5
0E5000F4
0A9004F1
04E41B90
006DEA10
ENDCHAR
STARTCHAR iota
ENCODING 953
SWIDTH 262 0
DWIDTH 4 0
BBX 3 8 1 0
BITMAP
A900
A900
A900
A900
A800
A800
A900
5E90
ENDCHAR
STARTCHAR kappa
ENCODING 954
SWIDTH 494 0
DWIDTH 8 0
BBX 7 8 1 0
BITMAP
C8001A50
B903EB20
A92D7000
A9BD0000
AE9D6000
AE14E200
AA00AB00
A8001D80
ENDCHAR
STARTCHAR lambda
ENCODING 955
SWIDTH 494 0
DWIDTH 8 0
BBX 8 11 0 0
BITMAP
7ED50000
115E2000
000A9000
0007E000
000DF500
005D8B00
00B73F20
03F10C70
0AA007D0
2F4002F3
8D0000C9
ENDCHAR
STARTCHAR uni03BC
ENCODING 956
SWIDTH 562 0
DWIDTH 9 0
BBX 8 10 1 -2
BITMAP
A9000D60
A9000D60
A9000D60
A9000D60
A9000D50
AA001E50
AE21AD70
ACEE66F7
A8000000
A9000000
ENDCHAR
STARTCHAR nu
ENCODING 957
SWIDTH 474 0
DWIDTH 8 0
BBX 8 8 0 0
BITMAP
AA0002F2
2F3004E0
0AA008B0
03F10C60
00D53E10
008A9900
004EE200
001FA000
ENDCHAR
STARTCHAR xi
ENCODING 958
SWIDTH 431 0
DWIDTH 7 0
BBX 7 13 0 -2
BITMAP
8FFFFFA0
01C91000
06E00000
06E00000
01DA1000
005FFE00
08D41000
1F400000
2F400000
0DC41000
029EFC50
00002AB0
00000B40
ENDCHAR
STARTCHAR omicron
ENCODING 959
SWIDTH 535 0
DWIDTH 9 0
BBX 8 8 0 0
BITMAP
007DFB30
08D317E2
1F5000C9
3F20009C
3F20009C
1F5000C9
08D317E2
007DFB30
ENDCHAR
STARTCHAR pi
ENCODING 960
SWIDTH 586 0
DWIDTH 9 0
BBX 9 8 0 0
BITMAP
9FFFFFFFF0
00D600D600
00E500D500
00E400E500
00F400E500
02F200E400
03F100D600
05F0007EB0
ENDCHAR
STARTCHAR rho
ENCODING 961
SWIDTH 549 0
DWIDTH 9 0
BBX 7 10 1 -2
BITMAP
04BED700
2F714E60
9C0008C0
B80006F0
B80006F0
B80009B0
BE415F40
B9AED500
B8000000
B9000000
ENDCHAR
STARTCHAR uni03C2
ENCODING 962
SWIDTH 432 0
DWIDTH 7 0
BBX 7 10 0 -2
BITMAP
007EEB20
07E41710
1E600000
3F200000
3F200000
1F600000
08E60000
006DE800
00006E00
00009700
ENDCHAR
STARTCHAR sigma
ENCODING 963
SWIDTH 546 0
DWIDTH 9 0
BBX 9 8 0 0
BITMAP
008DFFFF80
09D3199000
1F5001E400
3F2000B800
3F2000B900
1F6000E600
08D319D100
007EEB2000
ENDCHAR
STARTCHAR tau
ENCODING 964
SWIDTH 460 0
DWIDTH 7 0
BBX 7 8 0 0
BITMAP
8FFFFFE0
000F5000
000F4000
000F4000
000F4000
000F4000
000E6100
0008EB00
ENDCHAR
STARTCHAR upsilon
ENCODING 965
SWIDTH 510 0
DWIDTH 8 0
BBX 7 8 1 0
BITMAP
F4009B00
E5005E00
E5002F20
E5001F40
E4002F30
D5004F10
9C22C900
1AEE9100
ENDCHAR
STARTCHAR phi
ENCODING 966
SWIDTH 680 0
DWIDTH 11 0
BBX 11 12 0 -2
BITMAP
00003F100000
00003F100000
003BEFEA2000
05E64F27F300
0E703F109C00
3F303F104F10
3F303F105F10
0E703F109C00
05E64F28E300
003BEFEA2000
00003F100000
00003F100000
ENDCHAR
STARTCHAR chi
ENCODING 967
SWIDTH 481 0
DWIDTH 8 0
BBX 8 10 0 -2
BITMAP
8C0005E1
0D600D70
04E16D00
00AAD500
002EC000
002ED100
00B8B800
05D12E30
1D5007C0
8B0000C7
ENDCHAR
STARTCHAR psi
ENCODING 968
SWIDTH 689 0
DWIDTH 11 0
BBX 10 12 1 -2
BITMAP
0002F10000
0002F10000
F402F10B90
E502F107D0
E502F104F0
E502F104F1
D502F105F1
B802F109C0
4E53F37F50
04CFFEB400
0002F10000
0002F10000
ENDCHAR
STARTCHAR omega
ENCODING 969
SWIDTH 701 0
DWIDTH 11 0
BBX 11 8 0 0
BITMAP
01B10001C500
08E200009C00
0E8000003F30
2F301F400F50
2F100F300E50
1F301F301F40
0AA17D918E00
01BEB29EC300
ENDCHAR
STARTCHAR iotadieresis
ENCODING 970
SWIDTH 262 0
DWIDTH 4 0
BBX 6 11 -1 0
BITMAP
3E12E2
3E12E2
000000
00A900
00A900
00A900
00A900
00A800
00A800
00A900
005E90
ENDCHAR
STARTCHAR upsilondieresis
ENCODING 971
SWIDTH 510 0
DWIDTH 8 0
BBX 7 11 1 0
BITMAP
4D13E100
4E13E100
00000000
F4009B00
E5005E00
E5002F20
E5001F40
E4002F30
D5004F10
9C22C900
1AEE9100
ENDCHAR
STARTCHAR omicrontonos
ENCODING 972
SWIDTH 535 0
DWIDTH 9 0
BBX 8 12 0 0
BITMAP
0000A800
0000E400
0002C000
00000000
007DFB30
08D317E2
1F5000C9
3F20009C
3F20009C
1F5000C9
08D317E2
007DFB30
ENDCHAR
STARTCHAR upsilontonos
ENCODING 973
SWIDTH 510 0
DWIDTH 8 0
BBX 7 12 1 0
BITMAP
001E3000
005D0000
00770000
00000000
F4009B00
E5005E00
E5002F20
E5001F40
E4002F30
D5004F10
9C22C900
1AEE9100
ENDCHAR
STARTCHAR omegatonos
ENCODING 974
SWIDTH 701 0
DWIDTH 11 0
BBX 11 12 0 0
BITMAP
000005C00000
000009900000
00000C300000
000000000000
01B10001C500
08E200009C00
0E8000003F30
2F301F400F50
2F100F300E50
1F301F301F40
0AA17D918E00
01BEB29EC300
ENDCHAR
STARTCHAR uni03D0
ENCODING 976
SWIDTH 560 0
DWIDTH 9 0
BBX 8 11 1 0
BITMAP
06DFC400
4F416E10
9A001F40
B8007F20
BA6BE600
BFEDD910
B9000AC0
B80002F2
9B0003F3
2E712BC0
03BEE910
ENDCHAR
STARTCHAR uni03D1
ENCODING 977
SWIDTH 522 0
DWIDTH 8 0
BBX 7 11 1 0
BITMAP
19EE8000
9B13D800
D5004E10
C8000F40
5F843E50
039CBF60
87000E50
99000F40
8A004F10
5E31BA00
08EEA100
ENDCHAR
STARTCHAR uni03D5
ENCODING 981
SWIDTH 680 0
DWIDTH 11 0
BBX 11 10 0 -2
BITMAP
00B303CE9100
08D10D72D900
1E601F106E00
3F202F004F10
3F202F005F10
1E602F009C00
06E63F28F300
004BEFEB2000
00002F100000
00002F100000
ENDCHAR
STARTCHAR uni03D7
ENCODING 983
SWIDTH 494 0
DWIDTH 8 0
BBX 7 10 1 -2
BITMAP
C8001A50
B903EA20
A92D6000
A9BE1000
AE9D7000
AE15E200
AA00BB00
A8001E80
00002D70
0003D600
ENDCHAR
STARTCHAR uni03D9
ENCODING 985
SWIDTH 535 0
DWIDTH 9 0
BBX 8 10 0 -2
BITMAP
007DFB30
07D317E1
1E5000C9
3F20009C
3F20009B
1F5000C9
08D317E2
008EFC30
0005E000
0005F000
ENDCHAR
STARTCHAR uni03DB
ENCODING 987
SWIDTH 466 0
DWIDTH 7 0
BBX 8 10 0 -2
BITMAP
007CEFF1
08E40000
1F600000
3F200000
3F200000
1F700000
07F71000
006DFB20
00002C70
00002C10
ENDCHAR
STARTCHAR uni03DD
ENCODING 989
SWIDTH 413 0
DWIDTH 7 0
BBX 6 10 1 -2
BITMAP
AFFFF3
A80000
A80000
A90000
A90000
AFFFD0
A90000
A90000
A90000
A90000
ENDCHAR
STARTCHAR uni03E1
ENCODING 993
SWIDTH 498 0
DWIDTH 8 0
BBX 8 14 0 -3
BITMAP
09800000
05EA0000
002EA000
0003F600
00008E10
004AFE70
4CE828D0
581004F2
0003AFF5
03CF92C7
018100B8
000000B8
000000C7
000000D5
ENDCHAR
STARTCHAR uni0400
ENCODING 1024
SWIDTH 527 0
DWIDTH 8 0
BBX 7 14 1 0
BITMAP
04900000
02D90000
001B3000
00000000
8FFFFF70
8C000000
8C000000
8C000000
8FFFFB00
8C000000
8C000000
8C000000
8C000000
8FFFFFA0
ENDCHAR
STARTCHAR uni0401
ENCODING 1025
SWIDTH 527 0
DWIDTH 8 0
BBX 7 13 1 0
BITMAP
0A706C00
0A706C00
00000000
8FFFFF70
8C000000
8C000000
8C000000
8FFFFB00
8C000000
8C000000
8C000000
8C000000
8FFFFFA0
ENDCHAR
STARTCHAR uni0402
ENCODING 1026
SWIDTH 687 0
DWIDTH 11 0
BBX 11 10 0 0
BITMAP
8FFFFFFF4000
000BA0000000
000BA0000000
000BA0000000
000BEEFD9100
000BA103CB00
000BA0003F20
000BA0003F20
000BA001AD00
000BA08EB300
ENDCHAR
STARTCHAR uni0403
ENCODING 1027
SWIDTH 498 0
DWIDTH 8 0
BBX 7 14 1 0
BITMAP
00007600
0007E400
001B2000
00000000
8FFFFF70
8C000000
8C000000
8C000000
8C000000
8C000000
8C000000
8C000000
8C000000
8C000000
ENDCHAR
STARTCHAR uni0404
ENCODING 1028
SWIDTH 571 0
DWIDTH 9 0
BBX 9 10 0 0
BITMAP
0029DFD700
02E9203B20
0AA0000000
0F50000000
2FFFFF9000
2F30000000
0F60000000
0AB0000100
02EA303C60
002AEFD700
ENDCHAR
STARTCHAR uni0405
ENCODING 1029
SWIDTH 534 0
DWIDTH 9 0
BBX 8 10 0 0
BITMAP
007DFD81
07D303B4
0B900000
08E40000
019FC610
00028ED3
000001CB
0200007D
2E9203D7
03AEFD70
ENDCHAR
STARTCHAR uni0406
ENCODING 1030
SWIDTH 263 0
DWIDTH 4 0
BBX 2 10 1 0
BITMAP
8C
8C
8C
8C
8C
8C
8C
8C
8C
8C
ENDCHAR
STARTCHAR uni0407
ENCODING 1031
SWIDTH 263 0
DWIDTH 4 0
BBX 6 13 -1 0
BITMAP
3E10D5
3E10D5
000000
008C00
008C00
008C00
008C00
008C00
008C00
008C00
008C00
008C00
008C00
ENDCHAR
STARTCHAR uni0408
ENCODING 1032
SWIDTH 480 0
DWIDTH 8 0
BBX 7 10 0 0
BITMAP
00001F40
00001F40
00001F40
00001F40
00001F40
00001F40
00001F40
01002F30
4D319D00
07DEC300
ENDCHAR
STARTCHAR uni0409
ENCODING 1033
SWIDTH 903 0
DWIDTH 14 0
BBX 14 10 0 0
BITMAP
0009FFFF600000
000C700E600000
000F400E600000
003F100E600000
005D000EFFEC50
008A000E6016F5
00B7000E6000AB
01F4000E6000AA
07D0000E6016F4
BE40000EFFEB50
ENDCHAR
STARTCHAR uni040A
ENCODING 1034
SWIDTH 929 0
DWIDTH 15 0
BBX 14 10 1 0
BITMAP
8C00008C000000
8C00008C000000
8C00008C000000
8C00008C000000
8FFFFFFFFFD810
8C00008C013CB0
8C00008C0004F2
8C00008C0004F1
8C00008C013CA0
8C00008FFFD810
ENDCHAR
STARTCHAR uni040B
ENCODING 1035
SWIDTH 696 0
DWIDTH 11 0
BBX 11 10 0 0
BITMAP
8FFFFFFF4000
000BA0000000
000BA0000000
000BA0000000
000BEEFD8100
000BA103CA00
000BA0005E00
000BA0004F10
000BA0004F10
000BA0004F10
ENDCHAR
STARTCHAR uni040C
ENCODING 1036
SWIDTH 580 0
DWIDTH 9 0
BBX 9 14 1 0
BITMAP
00001B1000
0001CA1000
0006800000
0000000000
8C0002CD00
8C000C8000
8C007C0000
8C02E30000
8FFFC00000
8C02F50000
8C007E1000
8C000C9000
8C0003F400
8C00008D10
ENDCHAR
STARTCHAR uni040D
ENCODING 1037
SWIDTH 656 0
DWIDTH 11 0
BBX 9 14 1 0
BITMAP
0076000000
004E600000
0002B00000
0000000000
8B0000AF10
8B0004EF10
8B000D8F10
8B007C3F10
8B02E34F10
8B0B904F10
8A5E104F10
8AD6004F10
8EB0004F10
8F30004F10
ENDCHAR
STARTCHAR uni040E
ENCODING 1038
SWIDTH 514 0
DWIDTH 8 0
BBX 9 13 0 0
BITMAP
03E21C6000
008EEA0000
0000000000
AB00005E10
3F3000B900
0A9003F200
03F109B000
00B81E4000
003E6D0000
000BE70000
0007E10000
002D800000
0BE9000000
ENDCHAR
STARTCHAR uni040F
ENCODING 1039
SWIDTH 645 0
DWIDTH 10 0
BBX 8 13 1 -3
BITMAP
8C00007D
8C00007D
8C00007D
8C00007D
8C00007D
8C00007D
8C00007D
8C00007D
8C00007D
8FFFFFFD
0006D000
0006C000
0006C000
ENDCHAR
STARTCHAR uni0410
ENCODING 1040
SWIDTH 544 0
DWIDTH 9 0
BBX 9 10 0 0
BITMAP
0009F40000
000EAA0000
004D3E1000
00A80D5000
01E309B000
05E004F100
0BFFFFF600
1F40009C00
6E00004F20
C900000E70
ENDCHAR
STARTCHAR uni0411
ENCODING 1041
SWIDTH 580 0
DWIDTH 9 0
BBX 8 10 1 0
BITMAP
8FFFFFE0
8C000000
8C000000
8C000000
8ECCB920
8C3349E3
8C0000C9
8C0000C8
8C0017F4
8FFFEB40
ENDCHAR
STARTCHAR uni0412
ENCODING 1042
SWIDTH 588 0
DWIDTH 9 0
BBX 8 10 1 0
BITMAP
8FFFEA30
8C002AE1
8C0003F2
8C002AB0
8FFFFE40
8C0016F5
8C0000AA
8C0000AA
8C0017F4
8FFFEB40
ENDCHAR
STARTCHAR uni0413
ENCODING 1043
SWIDTH 498 0
DWIDTH 8 0
BBX 7 10 1 0
BITMAP
8FFFFF70
8C000000
8C000000
8C000000
8C000000
8C000000
8C000000
8C000000
8C000000
8C000000
ENDCHAR
STARTCHAR uni0414
ENCODING 1044
SWIDTH 638 0
DWIDTH 10 0
BBX 10 13 0 -3
BITMAP
000CFFFF90
000E400B90
002F100B90
005E000B90
007B000B90
00A8000B90
00D5000B90
03F1000B90
0AA0000B90
9FFFFFFFFC
8B0000008B
8B0000008B
7B0000008A
ENDCHAR
STARTCHAR uni0415
ENCODING 1045
SWIDTH 527 0
DWIDTH 8 0
BBX 7 10 1 0
BITMAP
8FFFFF70
8C000000
8C000000
8C000000
8FFFFB00
8C000000
8C000000
8C000000
8C000000
8FFFFFA0
ENDCHAR
STARTCHAR uni0416
ENCODING 1046
SWIDTH 805 0
DWIDTH 13 0
BBX 13 10 0 0
BITMAP
AD4003F1005E80
05E103F102E300
00A903F10B8000
003F23F14E1000
000DFFFFFB0000
005E13F12F3000
00D703F109B000
07D003F101E500
1E6003F1008D00
9C0003F1001E70
ENDCHAR
STARTCHAR uni0417
ENCODING 1047
SWIDTH 554 0
DWIDTH 9 0
BBX 9 10 0 0
BITMAP
03AEFD7000
088204E600
000000AA00
000015E500
002FFF9000
000013CB00
0000003F20
0100003F20
2E7203CA00
04BEFD8100
ENDCHAR
STARTCHAR uni0418
ENCODING 1048
SWIDTH 656 0
DWIDTH 11 0
BBX 9 10 1 0
BITMAP
8B0000AF10
8B0004EF10
8B000D8F10
8B007C3F10
8B02E34F10
8B0B904F10
8A5E104F10
8AD6004F10
8EB0004F10
8F30004F10
ENDCHAR
STARTCHAR uni0419
ENCODING 1049
SWIDTH 656 0
DWIDTH 11 0
BBX 9 13 1 0
BITMAP
00E41A9000
005DEB2000
0000000000
8B0000AF10
8B0004EF10
8B000D8F10
8B007C3F10
8B02E34F10
8B0B904F10
8A5E104F10
8AD6004F10
8EB0004F10
8F30004F10
ENDCHAR
STARTCHAR uni041A
ENCODING 1050
SWIDTH 580 0
DWIDTH 9 0
BBX 9 10 1 0
BITMAP
8C0002CD00
8C000C8000
8C007C0000
8C02E30000
8FFFC00000
8C02F50000
8C007E1000
8C000C9000
8C0003F400
8C00008D10
ENDCHAR
STARTCHAR uni041B
ENCODING 1051
SWIDTH 630 0
DWIDTH 10 0
BBX 9 10 0 0
BITMAP
000BFFFFA0
000D500AA0
001F200AA0
004E000AA0
007C000AA0
00A9000AA0
00D6000AA0
02F2000AA0
09C0000AA0
DD30000AA0
ENDCHAR
STARTCHAR uni041C
ENCODING 1052
SWIDTH 727 0
DWIDTH 12 0
BBX 10 10 1 0
BITMAP
8F400009F3
8E90001DE3
8AE10069F3
89B600B4F3
8A5C02D1F3
8A1E2781F3
8A098D21F3
8A03EC01F3
8A00C601F3
8A000001F3
ENDCHAR
STARTCHAR uni041D
ENCODING 1053
SWIDTH 652 0
DWIDTH 10 0
BBX 8 10 1 0
BITMAP
8C00005F
8C00005F
8C00005F
8C00005F
8FFFFFFF
8C00005F
8C00005F
8C00005F
8C00005F
8C00005F
ENDCHAR
STARTCHAR uni041E
ENCODING 1054
SWIDTH 664 0
DWIDTH 11 0
BBX 10 10 0 0
BITMAP
0029EFD700
02EB204EA0
0AC00003F4
0F600000CA
2F400000AC
2F400000AC
0E600000C9
0AD00004F4
02DB204E90
0029EFD700
ENDCHAR
STARTCHAR uni041F
ENCODING 1055
SWIDTH 645 0
DWIDTH 10 0
BBX 8 10 1 0
BITMAP
8FFFFFFD
8C00007D
8C00007D
8C00007D
8C00007D
8C00007D
8C00007D
8C00007D
8C00007D
8C00007D
ENDCHAR
STARTCHAR uni0420
ENCODING 1056
SWIDTH 566 0
DWIDTH 9 0
BBX 8 10 1 0
BITMAP
8FFFDA30
8C0029E1
8C0001F5
8C0001F5
8C002AD1
8FFFD920
8C000000
8C000000
8C000000
8C000000
ENDCHAR
STARTCHAR uni0421
ENCODING 1057
SWIDTH 571 0
DWIDTH 9 0
BBX 9 10 0 0
BITMAP
0019DFD700
01DB303B20
09D0000000
0E60000000
2F40000000
2F40000000
0E70000000
0AD0000100
02DB203C60
0019EFD700
ENDCHAR
STARTCHAR uni0422
ENCODING 1058
SWIDTH 536 0
DWIDTH 9 0
BBX 9 10 0 0
BITMAP
8FFFFFFF20
0006E00000
0006E00000
0006E00000
0006E00000
0006E00000
0006E00000
0006E00000
0006E00000
0006E00000
ENDCHAR
STARTCHAR uni0423
ENCODING 1059
SWIDTH 514 0
DWIDTH 8 0
BBX 9 10 0 0
BITMAP
AB00005E10
3F3000B900
0A9003F200
03F109B000
00B81E4000
003E6D0000
000BE70000
0007E10000
002D800000
0BE9000000
ENDCHAR
STARTCHAR uni0424
ENCODING 1060
SWIDTH 732 0
DWIDTH 12 0
BBX 11 10 0 0
BITMAP
00000B700000
003ADFFD9200
06E72B739E30
1E600B700BB0
3F200B7006E0
3F200B7006E0
0E700B700BA0
06E72B73AE20
003ADFFC9100
00000B700000
ENDCHAR
STARTCHAR uni0425
ENCODING 1061
SWIDTH 513 0
DWIDTH 8 0
BBX 8 10 0 0
BITMAP
4F3000D7
0AB007D0
02E51E50
007D8B00
000DF200
002EE400
00A97D00
04E11D70
0D7005E2
7D1000CA
ENDCHAR
STARTCHAR uni0426
ENCODING 1062
SWIDTH 642 0
DWIDTH 10 0
BBX 9 13 1 -3
BITMAP
8C0000AA00
8C0000AA00
8C0000AA00
8C0000AA00
8C0000AA00
8C0000AA00
8C0000AA00
8C0000AA00
8C0000AA00
8FFFFFFFD0
00000007C0
00000007C0
00000007B0
ENDCHAR
STARTCHAR uni0427
ENCODING 1063
SWIDTH 598 0
DWIDTH 10 0
BBX 8 10 1 0
BITMAP
E60003F2
E60003F2
D70003F2
9D4104F2
08DFFEF2
000003F2
000003F2
000003F2
000003F2
000003F2
ENDCHAR
STARTCHAR uni0428
ENCODING 1064
SWIDTH 865 0
DWIDTH 14 0
BBX 12 10 1 0
BITMAP
8B000B8000E6
8B000B8000E6
8B000B8000E6
8B000B8000E6
8B000B8000E6
8B000B8000E6
8B000B8000E6
8B000B8000E6
8B000B8000E6
8FFFFFFFFFF6
ENDCHAR
STARTCHAR uni0429
ENCODING 1065
SWIDTH 874 0
DWIDTH 14 0
BBX 13 13 1 -3
BITMAP
8B000B8000E600
8B000B8000E600
8B000B8000E600
8B000B8000E600
8B000B8000E600
8B000B8000E600
8B000B8000E600
8B000B8000E600
8B000B8000E600
8FFFFFFFFFFF80
00000000000B80
00000000000B70
00000000000B70
ENDCHAR
STARTCHAR uni042A
ENCODING 1066
SWIDTH 720 0
DWIDTH 12 0
BBX 11 10 0 0
BITMAP
8FFFF2000000
0003F2000000
0003F2000000
0003F2000000
0003FFFEC500
0003F2016F60
0003F20009B0
0003F20009B0
0003F2015F50
0003FFFEC500
ENDCHAR
STARTCHAR uni042B
ENCODING 1067
SWIDTH 798 0
DWIDTH 13 0
BBX 11 10 1 0
BITMAP
8C0000000F50
8C0000000F50
8C0000000F50
8C0000000F50
8FFFD9200F50
8C003BD00F50
8C0002F30F50
8C0002F30F50
8C003BC00F50
8FFFD9100F50
ENDCHAR
STARTCHAR uni042C
ENCODING 1068
SWIDTH 580 0
DWIDTH 9 0
BBX 8 10 1 0
BITMAP
8C000000
8C000000
8C000000
8C000000
8FFFEB40
8C0027F3
8C0000C8
8C0000D8
8C0028E2
8FFFEB30
ENDCHAR
STARTCHAR uni042D
ENCODING 1069
SWIDTH 571 0
DWIDTH 9 0
BBX 9 10 0 0
BITMAP
05CEEB3000
1B5127E400
0000008C00
0000003F20
007FFFFF40
0000001F40
0000004F20
010000AC00
3E5128F400
06CFEB3000
ENDCHAR
STARTCHAR uni042E
ENCODING 1070
SWIDTH 908 0
DWIDTH 15 0
BBX 13 10 1 0
BITMAP
8C00018EFD7000
8C000CC304E900
8C007E10004F30
8C00BA00000D80
8FFFF800000BA0
8C00D800000BA0
8C00AA00000D80
8C005E10004F30
8C000BC304E900
8C00018DFD7000
ENDCHAR
STARTCHAR uni042F
ENCODING 1071
SWIDTH 582 0
DWIDTH 9 0
BBX 8 10 0 0
BITMAP
019DFFFD
0BC3007D
1F50007D
0F50007D
0AD4007D
018EFFFD
003F407D
01D9007D
09D1007D
4F40007D
ENDCHAR
STARTCHAR uni0430
ENCODING 1072
SWIDTH 504 0
DWIDTH 8 0
BBX 7 8 0 0
BITMAP
03AEEA10
06612D90
000007D0
0059DFE0
0AE737E0
2F3006E0
1F604EE0
06DEA5E0
ENDCHAR
STARTCHAR uni0431
ENCODING 1073
SWIDTH 544 0
DWIDTH 9 0
BBX 8 12 0 0
BITMAP
00000022
0017BEE6
01CC5200
08C00000
0D600000
1F7BED70
2FA314E7
2F20009C
1F30007E
0D7000AB
05E415F4
006DFC50
ENDCHAR
STARTCHAR uni0432
ENCODING 1074
SWIDTH 508 0
DWIDTH 8 0
BBX 7 8 1 0
BITMAP
AFFFD600
A9006F10
A9006E10
AFFFF600
A9015F40
A9000D70
A9005F40
AFFFD600
ENDCHAR
STARTCHAR uni0433
ENCODING 1075
SWIDTH 411 0
DWIDTH 7 0
BBX 6 8 1 0
BITMAP
AFFFF2
A90000
A90000
A90000
A90000
A90000
A90000
A90000
ENDCHAR
STARTCHAR uni0434
ENCODING 1076
SWIDTH 532 0
DWIDTH 9 0
BBX 9 10 0 -2
BITMAP
00DFFFF000
00F304F000
01F104F000
03E004F000
05C004F000
08A004F000
1D5004F000
BFFFFFFF20
A900002F20
9900002F10
ENDCHAR
STARTCHAR uni0435
ENCODING 1077
SWIDTH 496 0
DWIDTH 8 0
BBX 8 8 0 0
BITMAP
006DEB20
07C317D0
1E3000E3
3FFFFFF5
3F200000
1F600000
07E51250
006DFD70
ENDCHAR
STARTCHAR uni0436
ENCODING 1078
SWIDTH 681 0
DWIDTH 11 0
BBX 11 8 0 0
BITMAP
7D402C005E50
05D02F01E300
00B62F08A000
007FFFFF5000
00D52F07C000
07D02F01E500
1E502F007D00
8D002F001E60
ENDCHAR
STARTCHAR uni0437
ENCODING 1079
SWIDTH 456 0
DWIDTH 7 0
BBX 7 8 0 0
BITMAP
18DFD700
07204F40
00004E20
00BFF700
00003E60
00000AA0
18214E60
19DFD600
ENDCHAR
STARTCHAR uni0438
ENCODING 1080
SWIDTH 565 0
DWIDTH 9 0
BBX 7 8 1 0
BITMAP
A9000CB0
A9007EB0
A902E8B0
A90B68B0
A86C08B0
A9E208B0
AE7008B0
AC0008B0
ENDCHAR
STARTCHAR uni0439
ENCODING 1081
SWIDTH 565 0
DWIDTH 9 0
BBX 7 12 1 0
BITMAP
0D301F00
09918B00
01BEB200
00000000
A9000CB0
A9007EB0
A902E8B0
A90B68B0
A86C08B0
A9E208B0
AE7008B0
AC0008B0
ENDCHAR
STARTCHAR uni043A
ENCODING 1082
SWIDTH 498 0
DWIDTH 8 0
BBX 7 8 1 0
BITMAP
88006E40
A902E200
A9098000
AFFF4000
A909B000
A901E500
A9007D00
A9001E70
ENDCHAR
STARTCHAR uni043B
ENCODING 1083
SWIDTH 531 0
DWIDTH 9 0
BBX 8 8 0 0
BITMAP
00AFFFF3
00B602F3
00D402F3
00F202F3
02F002F3
03D002F3
09A002F3
BC2002C2
ENDCHAR
STARTCHAR uni043C
ENCODING 1084
SWIDTH 633 0
DWIDTH 10 0
BBX 8 8 1 0
BITMAP
AE1000DC
AE7004EC
AAD00AAC
A7D41E6C
A779796C
A81EC36C
A80AC06C
A802206C
ENDCHAR
STARTCHAR uni043D
ENCODING 1085
SWIDTH 562 0
DWIDTH 9 0
BBX 7 8 1 0
BITMAP
A90009A0
A90009A0
A90009A0
AFFFFFA0
A90009A0
A90009A0
A90009A0
A90009A0
ENDCHAR
STARTCHAR uni043E
ENCODING 1086
SWIDTH 542 0
DWIDTH 9 0
BBX 8 8 0 0
BITMAP
006DFC30
07E417F2
1E6000BA
3F20007D
3F20007D
1E6000BA
07E417F2
006DFC30
ENDCHAR
STARTCHAR uni043F
ENCODING 1087
SWIDTH 553 0
DWIDTH 9 0
BBX 7 8 1 0
BITMAP
AFFFFF80
A9000C80
A9000C80
A9000C80
A9000C80
A9000C80
A9000C80
A9000C80
ENDCHAR
STARTCHAR uni0440
ENCODING 1088
SWIDTH 555 0
DWIDTH 9 0
BBX 8 11 1 -3
BITMAP
A78EE900
AE713E80
A90007E0
A90004F1
A90005F1
A90009D0
AD415F50
ABAED600
A9000000
A9000000
A9000000
ENDCHAR
STARTCHAR uni0441
ENCODING 1089
SWIDTH 456 0
DWIDTH 7 0
BBX 7 8 0 0
BITMAP
006DEC40
07E51540
1E700000
3F300000
3F200000
1F600000
08E41460
007DEC50
ENDCHAR
STARTCHAR uni0442
ENCODING 1090
SWIDTH 460 0
DWIDTH 7 0
BBX 7 8 0 0
BITMAP
9FFFFFE0
000F5000
000F5000
000F5000
000F5000
000F5000
000F5000
000F5000
ENDCHAR
STARTCHAR uni0443
ENCODING 1091
SWIDTH 467 0
DWIDTH 7 0
BBX 8 11 0 -3
BITMAP
9B0002F2
3F2007B0
0C700C60
06D02F10
01E37B00
0099C500
003EE100
000CA000
001E4000
019C0000
5EB20000
ENDCHAR
STARTCHAR uni0444
ENCODING 1092
SWIDTH 734 0
DWIDTH 12 0
BBX 11 14 0 -3
BITMAP
00000C800000
00000C800000
00000B800000
009ECDCDE900
09D22DA13E70
1F500B7009C0
3F200B7006E0
3F200B7007E0
1F500B7009B0
0AC22DA14F50
01BFCDCDE700
00000B800000
00000C800000
00000C800000
ENDCHAR
STARTCHAR uni0445
ENCODING 1093
SWIDTH 446 0
DWIDTH 7 0
BBX 7 8 0 0
BITMAP
4F200D70
0AB07C00
01E5E400
007FA000
00AEB000
04E2E500
0D706E10
7D000C90
ENDCHAR
STARTCHAR uni0446
ENCODING 1094
SWIDTH 554 0
DWIDTH 9 0
BBX 8 10 1 -2
BITMAP
A9000D60
A9000D60
A9000D60
A9000D60
A9000D60
A9000D60
A9000D60
AFFFFFF8
000000B8
000000B7
ENDCHAR
STARTCHAR uni0447
ENCODING 1095
SWIDTH 512 0
DWIDTH 8 0
BBX 7 8 0 0
BITMAP
1F4007D0
1F4007D0
0F4007D0
0CB207D0
02BEFED0
000007D0
000007D0
000007D0
ENDCHAR
STARTCHAR uni0448
ENCODING 1096
SWIDTH 749 0
DWIDTH 12 0
BBX 10 8 1 0
BITMAP
A900A9009A
A900A9009A
A900A9009A
A900A9009A
A900A9009A
A900A9009A
A900A9009A
AFFFFFFFFA
ENDCHAR
STARTCHAR uni0449
ENCODING 1097
SWIDTH 757 0
DWIDTH 12 0
BBX 11 10 1 -2
BITMAP
A900A9009A00
A900A9009A00
A900A9009A00
A900A9009A00
A900A9009A00
A900A9009A00
A900A9009A00
AFFFFFFFFFC0
0000000007C0
0000000007B0
ENDCHAR
STARTCHAR uni044A
ENCODING 1098
SWIDTH 596 0
DWIDTH 10 0
BBX 9 8 0 0
BITMAP
9FFF700000
000C700000
000C700000
000CFFEA10
000C702CA0
000C7007C0
000C702C90
000CFFEA10
ENDCHAR
STARTCHAR uni044B
ENCODING 1099
SWIDTH 674 0
DWIDTH 11 0
BBX 9 8 1 0
BITMAP
A900000D70
A900000D70
A900000D70
AFFE910D70
A902C90D70
A9008B0D70
A902D90D70
AFFE910D70
ENDCHAR
STARTCHAR uni044C
ENCODING 1100
SWIDTH 491 0
DWIDTH 8 0
BBX 7 8 1 0
BITMAP
A9000000
A9000000
A9000000
AFFEB300
A9018E00
A9002F20
A9019E00
AFFEC300
ENDCHAR
STARTCHAR uni044D
ENCODING 1101
SWIDTH 456 0
DWIDTH 7 0
BBX 7 8 0 0
BITMAP
2AEEA200
17119D00
00000D50
02FFFF80
00000C80
00001E50
4612BC00
2AEEA100
ENDCHAR
STARTCHAR uni044E
ENCODING 1102
SWIDTH 738 0
DWIDTH 12 0
BBX 11 8 1 0
BITMAP
A9001AFD6000
A900C814E500
A905C0008D00
A90990005F10
AFFF90005F10
A908C0008D00
A903F815E500
A9004CED6000
ENDCHAR
STARTCHAR uni044F
ENCODING 1103
SWIDTH 514 0
DWIDTH 8 0
BBX 7 8 0 0
BITMAP
02AEFFE0
0AC206E0
0D7006E0
0AC206E0
01AFFFE0
00AC06E0
06E206E0
2E5006E0
ENDCHAR
STARTCHAR uni0450
ENCODING 1104
SWIDTH 496 0
DWIDTH 8 0
BBX 8 12 0 0
BITMAP
00A50000
004E4000
0003B000
00000000
006DEB20
07C317D0
1E3000E3
3FFFFFF5
3F200000
1F600000
07E51250
006DFD70
ENDCHAR
STARTCHAR uni0451
ENCODING 1105
SWIDTH 496 0
DWIDTH 8 0
BBX 8 11 0 0
BITMAP
00D40C60
00D40C60
00000000
006DEB20
07C317D0
1E3000E3
3FFFFFF5
3F200000
1F600000
07E51250
006DFD70
ENDCHAR
STARTCHAR uni0452
ENCODING 1106
SWIDTH 548 0
DWIDTH 9 0
BBX 8 14 0 -3
BITMAP
0A900000
CFFFF800
0A900000
0A900000
0A97EE90
0AE714E7
0AA0009C
0A90006E
0A90006F
0A90006E
0A90008C
000000B9
000015F4
0002ED60
ENDCHAR
STARTCHAR uni0453
ENCODING 1107
SWIDTH 411 0
DWIDTH 7 0
BBX 6 12 1 0
BITMAP
0003B1
002E70
009500
000000
AFFFF2
A90000
A90000
A90000
A90000
A90000
A90000
A90000
ENDCHAR
STARTCHAR uni0454
ENCODING 1108
SWIDTH 456 0
DWIDTH 7 0
BBX 7 8 0 0
BITMAP
006CFC40
08C31540
1F300000
3FFFFA00
3F100000
1F500000
08D41460
007DEC40
ENDCHAR
STARTCHAR uni0455
ENCODING 1109
SWIDTH 419 0
DWIDTH 7 0
BBX 7 8 0 0
BITMAP
04CEC500
1E614500
1F400000
07FA4000
0028EA00
00003F20
3A316E10
18DFC400
ENDCHAR
STARTCHAR uni0456
ENCODING 1110
SWIDTH 246 0
DWIDTH 4 0
BBX 2 12 1 0
BITMAP
77
BA
00
00
A9
A9
A9
A9
A9
A9
A9
A9
ENDCHAR
STARTCHAR uni0457
ENCODING 1111
SWIDTH 246 0
DWIDTH 4 0
BBX 6 11 -1 0
BITMAP
3E12E2
3E12E2
000000
00A900
00A900
00A900
00A900
00A900
00A900
00A900
00A900
ENDCHAR
STARTCHAR uni0458
ENCODING 1112
SWIDTH 247 0
DWIDTH 4 0
BBX 4 15 -1 -3
BITMAP
0067
00AA
0000
0000
00AA
00AA
00AA
00AA
00AA
00AA
00AA
00AA
00A9
11D7
7FB1
ENDCHAR
STARTCHAR uni0459
ENCODING 1113
SWIDTH 735 0
DWIDTH 12 0
BBX 12 8 0 0
BITMAP
00BFFFF00000
00C605F00000
00D505F00000
00E405FFEB30
01F205F019D0
02F105F004F1
08B005F019D0
AD3005FFEB30
ENDCHAR
STARTCHAR uni045A
ENCODING 1114
SWIDTH 758 0
DWIDTH 12 0
BBX 11 8 1 0
BITMAP
A9000F500000
A9000F500000
A9000F500000
AFFFFFFFD600
A9000F505F40
A9000F500D60
A9000F505F30
A9000FFFD600
ENDCHAR
STARTCHAR uni045B
ENCODING 1115
SWIDTH 544 0
DWIDTH 9 0
BBX 8 11 0 0
BITMAP
0A900000
9EECC600
0A900000
0A905610
0ABB9CE1
0AD201E6
0A9000C8
0A9000C8
0A9000C8
0A9000C8
0A9000C8
ENDCHAR
STARTCHAR uni045C
ENCODING 1116
SWIDTH 498 0
DWIDTH 8 0
BBX 7 12 1 0
BITMAP
0000A500
0009C200
003B1000
00000000
88006E40
A902E200
A9098000
AFFF4000
A909B000
A901E500
A9007D00
A9001E70
ENDCHAR
STARTCHAR uni045D
ENCODING 1117
SWIDTH 565 0
DWIDTH 9 0
BBX 7 12 1 0
BITMAP
05A00000
02C90000
001B3000
00000000
A9000CB0
A9007EB0
A902E8B0
A90B68B0
A86C08B0
A9E208B0
AE7008B0
AC0008B0
ENDCHAR
STARTCHAR uni045E
ENCODING 1118
SWIDTH 467 0
DWIDTH 7 0
BBX 8 15 0 -3
BITMAP
09800C50
04D23E10
008ED500
00000000
9B0002F2
3F2007B0
0C700C60
06D02F10
01E37B00
0099C500
003EE100
000CA000
001E4000
019C0000
5EB20000
ENDCHAR
STARTCHAR uni045F
ENCODING 1119
SWIDTH 558 0
DWIDTH 9 0
BBX 7 10 1 -2
BITMAP
A9000B90
A9000B90
A9000B90
A9000B90
A9000B90
A9000B90
A9000B90
AFFFFF90
002F2000
002F1000
ENDCHAR
STARTCHAR uni0462
ENCODING 1122
SWIDTH 614 0
DWIDTH 10 0
BBX 10 11 0 0
BITMAP
005F000000
005F000000
8FFFFFFB00
005F000000
005F000000
005FFFD910
005F013CC0
005F0004F1
005F0004F1
005F003CA0
005FFFD810
ENDCHAR
STARTCHAR uni0463
ENCODING 1123
SWIDTH 576 0
DWIDTH 9 0
BBX 9 10 0 0
BITMAP
002D200000
002F200000
9FFFFFF300
002F200000
002F200000
002FFFD700
002F204E50
002F200C70
002F204E50
002FFFD700
ENDCHAR
STARTCHAR uni0472
ENCODING 1138
SWIDTH 664 0
DWIDTH 11 0
BBX 10 10 0 0
BITMAP
002AEFD700
02E9214CA0
0AA00002E5
0F500000AA
2FFFFFFFFC
2F3000009C
0F600000C9
0AC00003F5
02EA204DA0
002AEFD700
ENDCHAR
STARTCHAR uni0473
ENCODING 1139
SWIDTH 542 0
DWIDTH 9 0
BBX 8 8 0 0
BITMAP
007DEC40
08C315E3
1F30007A
3FFFFFFD
3F10006D
1F5000AA
08D416F3
007DEC40
ENDCHAR
STARTCHAR uni0474
ENCODING 1140
SWIDTH 529 0
DWIDTH 8 0
BBX 9 10 0 0
BITMAP
D900002CC0
7D0000AA00
2F3001E300
0C8005E000
07C0099000
02F20D5000
00C63F1000
007B7B0000
002FC60000
000CF20000
ENDCHAR
STARTCHAR uni0475
ENCODING 1141
SWIDTH 477 0
DWIDTH 8 0
BBX 8 8 0 0
BITMAP
AB0001CD
4F1008A0
0E500D40
09A03E00
04E18A00
00D5C500
008BF100
003FB000
ENDCHAR
STARTCHAR uni0490
ENCODING 1168
SWIDTH 498 0
DWIDTH 8 0
BBX 7 14 1 0
BITMAP
00000890
00000990
00000A80
00000B80
8FFFFF70
8C000000
8C000000
8C000000
8C000000
8C000000
8C000000
8C000000
8C000000
8C000000
ENDCHAR
STARTCHAR uni0491
ENCODING 1169
SWIDTH 416 0
DWIDTH 7 0
BBX 6 11 1 0
BITMAP
000084
0000C5
0000D4
AFFFF4
A90000
A90000
A90000
A90000
A90000
A90000
A90000
ENDCHAR
STARTCHAR uni0492
ENCODING 1170
SWIDTH 521 0
DWIDTH 8 0
BBX 8 10 0 0
BITMAP
03FFFFFD
03F20000
03F20000
03F20000
7FFFF800
03F20000
03F20000
03F20000
03F20000
03F20000
ENDCHAR
STARTCHAR uni0493
ENCODING 1171
SWIDTH 424 0
DWIDTH 7 0
BBX 7 8 0 0
BITMAP
07FFFF60
07D00000
07D00000
07D00000
7FFFF000
07D00000
07D00000
07D00000
ENDCHAR
STARTCHAR uni0496
ENCODING 1174
SWIDTH 847 0
DWIDTH 14 0
BBX 14 13 0 -3
BITMAP
AD4003F1005E80
05E103F102E300
00A903F10B8000
003F23F14E1000
000DFFFFFB0000
005E13F12F3000
00D703F109B000
07D003F101E400
1E6003F1008C00
9C0003F1001EF2
000000000003F2
000000000003F1
000000000003F0
ENDCHAR
STARTCHAR uni0497
ENCODING 1175
SWIDTH 718 0
DWIDTH 11 0
BBX 12 10 0 -2
BITMAP
7D402F005E50
05D02F01E300
00B62F08A000
007FFFFF5000
00D52F07C000
07D02F01E400
1E502F007C00
8D002F001EF3
0000000001F2
0000000001F1
ENDCHAR
STARTCHAR uni0498
ENCODING 1176
SWIDTH 554 0
DWIDTH 9 0
BBX 9 13 0 -3
BITMAP
03AEFD7000
088204E600
000000AA00
000015E500
002FFF9000
000013CB00
0000003F20
0100003F20
2E7203CB00
04BEFD8100
0002F20000
0002F10000
0002F10000
ENDCHAR
STARTCHAR uni0499
ENCODING 1177
SWIDTH 456 0
DWIDTH 7 0
BBX 7 10 0 -2
BITMAP
18DFD600
07204F30
00004F40
00BFF700
00003D30
00000A90
18214E70
19EFE800
001F2000
001F1000
ENDCHAR
STARTCHAR uni049A
ENCODING 1178
SWIDTH 628 0
DWIDTH 10 0
BBX 9 13 1 -3
BITMAP
8C0002CD00
8C000C8000
8C007C0000
8C02E30000
8FFFC00000
8C02F50000
8C007D1000
8C000C9000
8C0003F300
8C00008F90
0000000A90
0000000A80
0000000A80
ENDCHAR
STARTCHAR uni049B
ENCODING 1179
SWIDTH 536 0
DWIDTH 9 0
BBX 8 11 1 -3
BITMAP
A9006E40
A902E300
A9099000
AFFF4000
A9099000
A901E300
A9007C00
A9001EF4
000000F3
000000F3
000000B2
ENDCHAR
STARTCHAR uni04A0
ENCODING 1184
SWIDTH 716 0
DWIDTH 11 0
BBX 12 10 0 0
BITMAP
8FFFE0001AF1
0006E0009B00
0006E004E200
0006E01D7000
0006FFFE1000
0006E01D6000
0006E004E200
0006E000AB00
0006E0001E60
0006E00005E2
ENDCHAR
STARTCHAR uni04A1
ENCODING 1185
SWIDTH 614 0
DWIDTH 10 0
BBX 10 8 0 0
BITMAP
9FFF7008E2
000C704D10
000C70B600
000CFFF100
000C70B900
000C703F20
000C700AB0
000C7002F5
ENDCHAR
STARTCHAR uni04A2
ENCODING 1186
SWIDTH 661 0
DWIDTH 11 0
BBX 10 13 1 -3
BITMAP
8C00005F00
8C00005F00
8C00005F00
8C00005F00
8FFFFFFF00
8C00005F00
8C00005F00
8C00005F00
8C00005F00
8C00005FF2
00000002F2
00000002F1
00000002F1
ENDCHAR
STARTCHAR uni04A3
ENCODING 1187
SWIDTH 570 0
DWIDTH 9 0
BBX 8 10 1 -2
BITMAP
AA0009B0
AA0009B0
AA0009B0
AFFFFFB0
AA0009B0
AA0009B0
AA0009B0
AA0009FC
0000007B
0000007B
ENDCHAR
STARTCHAR uni04AA
ENCODING 1194
SWIDTH 571 0
DWIDTH 9 0
BBX 9 13 0 -3
BITMAP
0019DFD700
01DB303B20
09D0000000
0E60000000
2F40000000
2F40000000
0F70000000
09D0000100
01DB203C50
001AEFD700
00003F1000
00003F0000
00003F0000
ENDCHAR
STARTCHAR uni04AB
ENCODING 1195
SWIDTH 456 0
DWIDTH 7 0
BBX 7 10 0 -2
BITMAP
006DEC40
06E51540
1E700000
3F300000
3F200000
1F600000
08E41460
008EFD50
0004E000
0004D000
ENDCHAR
STARTCHAR uni04AE
ENCODING 1198
SWIDTH 476 0
DWIDTH 8 0
BBX 8 10 0 0
BITMAP
BA0001E6
4F2007D0
0B901E50
03F27C00
00B9D500
003FC000
000D7000
000D7000
000D7000
000D7000
ENDCHAR
STARTCHAR uni04AF
ENCODING 1199
SWIDTH 467 0
DWIDTH 7 0
BBX 8 11 0 -3
BITMAP
9B0003F2
4F1008B0
0D600D60
08B03F10
02F28A00
00C6D500
006DE000
001F9000
000D7000
000D7000
000D7000
ENDCHAR
STARTCHAR uni04B0
ENCODING 1200
SWIDTH 476 0
DWIDTH 8 0
BBX 8 10 0 0
BITMAP
CA0001E6
5F2007D0
0C901E70
05F27E10
00D9D700
006FE100
1EFFFFB0
000D7000
000D7000
000D7000
ENDCHAR
STARTCHAR uni04B1
ENCODING 1201
SWIDTH 467 0
DWIDTH 7 0
BBX 8 11 0 -3
BITMAP
9B0003F2
4F1008B0
0D600D60
08B03F10
03F28A00
00C6D500
007DE000
3BCFEB80
000D7000
000D7000
000D7000
ENDCHAR
STARTCHAR uni04B2
ENCODING 1202
SWIDTH 551 0
DWIDTH 9 0
BBX 9 13 0 -3
BITMAP
4F3000D700
09B007D000
01E51E4000
006D8A0000
000DF20000
003FE50000
00C97D0000
05E11D7000
1D7005E100
7D1000CF60
0000000D60
0000000D50
0000000D40
ENDCHAR
STARTCHAR uni04B3
ENCODING 1203
SWIDTH 482 0
DWIDTH 8 0
BBX 8 10 0 -2
BITMAP
4F200D70
0AB07C00
01E5E400
007FA000
00AEB000
04E2E500
0D706D10
7D000CF6
000000D5
000000D4
ENDCHAR
STARTCHAR uni04B6
ENCODING 1206
SWIDTH 607 0
DWIDTH 10 0
BBX 9 13 1 -3
BITMAP
E60003F200
E60003F200
D70003F200
9D4104F200
08DFFEF200
000003F200
000003F200
000003F200
000003F200
000003FF40
0000000F40
0000000F30
0000000F30
ENDCHAR
STARTCHAR uni04B7
ENCODING 1207
SWIDTH 520 0
DWIDTH 8 0
BBX 8 11 0 -3
BITMAP
1F4007D0
1F4007D0
0F4007D0
0CB207D0
02BEFED0
000007D0
000007D0
000007FF
0000004F
0000004E
0000004D
ENDCHAR
STARTCHAR uni04BA
ENCODING 1210
SWIDTH 598 0
DWIDTH 10 0
BBX 8 10 1 0
BITMAP
8C000000
8C000000
8C000000
8C000000
8FEFEB30
8C1028E2
8C0000E6
8C0000C7
8C0000C8
8C0000C8
ENDCHAR
STARTCHAR uni04BB
ENCODING 1211
SWIDTH 544 0
DWIDTH 9 0
BBX 7 11 1 0
BITMAP
A9000000
A9000000
A9000000
A96DE900
AE714F40
AA000D70
A9000C80
A9000C80
A9000C80
A9000C80
A9000C80
ENDCHAR
STARTCHAR uni04C0
ENCODING 1216
SWIDTH 263 0
DWIDTH 4 0
BBX 2 10 1 0
BITMAP
8C
8C
8C
8C
8C
8C
8C
8C
8C
8C
ENDCHAR
STARTCHAR uni04C1
ENCODING 1217
SWIDTH 805 0
DWIDTH 13 0
BBX 13 13 0 0
BITMAP
0000D608B00000
00004DFC300000
00000000000000
AD4003F1005E80
05E103F102E300
00A903F10B8000
003F23F14E1000
000DFFFFFB0000
005E13F12F3000
00D703F109B000
07D003F101E500
1E6003F1008D00
9C0003F1001E70
ENDCHAR
STARTCHAR uni04C2
ENCODING 1218
SWIDTH 681 0
DWIDTH 11 0
BBX 11 12 0 0
BITMAP
000F103D0000
000B81990000
0002BEB10000
000000000000
7D402C005E50
05D02F01E300
00B62F08A000
007FFFFF5000
00D52F07C000
07D02F01E500
1E502F007D00
8D002F001E60
ENDCHAR
STARTCHAR uni04CF
ENCODING 1231
SWIDTH 255 0
DWIDTH 4 0
BBX 3 11 1 0
BITMAP
A900
A900
A900
A900
A900
A900
A900
A900
A900
AA00
5E50
ENDCHAR
STARTCHAR uni04D0
ENCODING 1232
SWIDTH 544 0
DWIDTH 9 0
BBX 9 13 0 0
BITMAP
00E519A000
005DEC2000
0000000000
0009F40000
000EAA0000
004D3E1000
00A80D5000
01E309B000
05E004F100
0BFFFFF600
1F40009C00
6E00004F20
C900000E70
ENDCHAR
STARTCHAR uni04D1
ENCODING 1233
SWIDTH 504 0
DWIDTH 8 0
BBX 7 12 0 0
BITMAP
04C00790
01E41C50
004DE800
00000000
03AEEA10
06612D90
000007D0
0059DFE0
0AE737E0
2F3006E0
1F604EE0
06DEA5E0
ENDCHAR
STARTCHAR uni04D4
ENCODING 1236
SWIDTH 822 0
DWIDTH 13 0
BBX 13 10 0 0
BITMAP
00000AFFFFFF30
00003FAC000000
0000B89C000000
0005E19C000000
000D709FFFF700
006D109C000000
01EFFFFC000000
08D0009C000000
1E50009C000000
9C00009FFFFF60
ENDCHAR
STARTCHAR uni04D5
ENCODING 1237
SWIDTH 785 0
DWIDTH 13 0
BBX 12 8 0 0
BITMAP
03AEE907ED80
05722CCA11C7
000006F1005C
0049DFFAAABE
09E735E55554
1F5003F20000
0E814DCC3153
05DEB308EEB4
ENDCHAR
STARTCHAR uni04D6
ENCODING 1238
SWIDTH 527 0
DWIDTH 8 0
BBX 7 13 1 0
BITMAP
0B807D00
03CFD400
00000000
8FFFFF70
8C000000
8C000000
8C000000
8FFFFB00
8C000000
8C000000
8C000000
8C000000
8FFFFFA0
ENDCHAR
STARTCHAR uni04D7
ENCODING 1239
SWIDTH 496 0
DWIDTH 8 0
BBX 8 12 0 0
BITMAP
03D006A0
00E51C60
004DE900
00000000
006DEB20
07C317D0
1E3000E3
3FFFFFF5
3F200000
1F600000
07E51250
006DFD70
ENDCHAR
STARTCHAR uni04D8
ENCODING 1240
SWIDTH 658 0
DWIDTH 11 0
BBX 10 10 0 0
BITMAP
004BEFD700
00A7104DA0
00000004F4
00000000D8
00000000AA
1FFFFFFFFA
0E600000B8
0AB00002F3
02E9214D90
002AEFC700
ENDCHAR
STARTCHAR uni04D9
ENCODING 1241
SWIDTH 496 0
DWIDTH 8 0
BBX 8 8 0 0
BITMAP
06CEE700
05314E70
000007E0
000003F2
6FFFFFF2
4D0003E0
1D612C70
02BEE700
ENDCHAR
STARTCHAR uni04E2
ENCODING 1250
SWIDTH 656 0
DWIDTH 11 0
BBX 9 12 1 0
BITMAP
00CFFF7000
0000000000
8B0000AF10
8B0004EF10
8B000D8F10
8B007C3F10
8B02E34F10
8B0B904F10
8A5E104F10
8AD6004F10
8EB0004F10
8F30004F10
ENDCHAR
STARTCHAR uni04E3
ENCODING 1251
SWIDTH 565 0
DWIDTH 9 0
BBX 7 11 1 0
BITMAP
09FFFA00
00000000
00000000
A9000CB0
A9007EB0
A902E8B0
A90B68B0
A86C08B0
A9E208B0
AE7008B0
AC0008B0
ENDCHAR
STARTCHAR uni04E6
ENCODING 1254
SWIDTH 664 0
DWIDTH 11 0
BBX 10 13 0 0
BITMAP
000D409800
000D40A800
0000000000
0029EFD700
02EB204EA0
0AC00003F4
0F600000CA
2F400000AC
2F400000AC
0E600000C9
0AD00004F4
02DB204E90
0029EFD700
ENDCHAR
STARTCHAR uni04E7
ENCODING 1255
SWIDTH 542 0
DWIDTH 9 0
BBX 8 11 0 0
BITMAP
00C60B70
00C60B70
00000000
006DFC30
07E417F2
1E6000BA
3F20007D
3F20007D
1E6000BA
07E417F2
006DFC30
ENDCHAR
STARTCHAR uni04E8
ENCODING 1256
SWIDTH 664 0
DWIDTH 11 0
BBX 10 10 0 0
BITMAP
002AEFD700
02E9214CA0
0AA00002E5
0F500000AA
2FFFFFFFFC
2F3000009C
0F600000C9
0AC00003F5
02EA204DA0
002AEFD700
ENDCHAR
STARTCHAR uni04E9
ENCODING 1257
SWIDTH 542 0
DWIDTH 9 0
BBX 8 8 0 0
BITMAP
007DEC40
08C315E3
1F30007A
3FFFFFFD
3F10006D
1F5000AA
08D416F3
007DEC40
ENDCHAR
STARTCHAR uni04EE
ENCODING 1262
SWIDTH 514 0
DWIDTH 8 0
BBX 9 12 0 0
BITMAP
02FFFF3000
0000000000
AB00005E10
3F3000B900
0A9003F200
03F109B000
00B81E4000
003E6D0000
000BE70000
0007E10000
002D800000
0BE9000000
ENDCHAR
STARTCHAR uni04EF
ENCODING 1263
SWIDTH 467 0
DWIDTH 7 0
BBX 8 14 0 -3
BITMAP
04FFFF00
00000000
00000000
9B0002F2
3F2007B0
0C700C60
06D02F10
01E37B00
0099C500
003EE100
000CA000
001E4000
019C0000
5EB20000
ENDCHAR
STARTCHAR uni04F2
ENCODING 1266
SWIDTH 514 0
DWIDTH 8 0
BBX 9 14 0 0
BITMAP
000670B200
001D26A000
00560B1000
0000000000
AB00005E10
3F3000B900
0A9003F200
03F109B000
00B81E4000
003E6D0000
000BE70000
0007E10000
002D800000
0BE9000000
ENDCHAR
STARTCHAR uni04F3
ENCODING 1267
SWIDTH 467 0
DWIDTH 7 0
BBX 8 16 0 -3
BITMAP
00000010
000863C0
001D1B50
00661900
00000000
9B0002F2
3F2007B0
0C700C60
06D02F10
01E37B00
0099C500
003EE100
000CA000
001E4000
019C0000
5EB20000
ENDCHAR
STARTCHAR a.sups
ENCODING 7491
SWIDTH 345 0
DWIDTH 6 0
BBX 5 6 0 6
BITMAP
19ED30
0517A0
05BEB0
3D44C0
5B18C0
1CE6A0
ENDCHAR
STARTCHAR b.sups
ENCODING 7495
SWIDTH 374 0
DWIDTH 6 0
BBX 6 8 0 6
BITMAP
3C0000
3C0000
3C0000
3DBEA0
3E31C4
3C0096
3D22D3
3CCE70
ENDCHAR
STARTCHAR d.sups
ENCODING 7496
SWIDTH 374 0
DWIDTH 6 0
BBX 6 8 0 6
BITMAP
0000D2
0000D2
07EBD2
3E23E2
6900D2
6900D2
3D23E2
08EAA2
ENDCHAR
STARTCHAR e.sups
ENCODING 7497
SWIDTH 336 0
DWIDTH 5 0
BBX 5 6 0 6
BITMAP
07ED30
3A13B0
7FFFE0
780000
3D3130
07ED60
ENDCHAR
STARTCHAR g.sups
ENCODING 7501
SWIDTH 343 0
DWIDTH 5 0
BBX 6 7 0 4
BITMAP
1BEDD3
4B1891
0DFD40
3A0000
1EFFC1
6802D3
3CFD70
ENDCHAR
STARTCHAR k.sups
ENCODING 7503
SWIDTH 337 0
DWIDTH 5 0
BBX 6 8 0 6
BITMAP
3C0000
3C0000
3C0000
3C0790
3C6900
3ECB00
3E1A60
3C02D1
ENDCHAR
STARTCHAR m.sups
ENCODING 7504
SWIDTH 559 0
DWIDTH 9 0
BBX 9 6 0 6
BITMAP
29AE78E900
3E44F62E10
3C00F00C20
3C00F00C30
3C00F00C30
3C00F00C30
ENDCHAR
STARTCHAR o.sups
ENCODING 7506
SWIDTH 365 0
DWIDTH 6 0
BBX 6 6 0 6
BITMAP
07ED40
3D23E1
7800B4
7800B4
3D23E1
07ED40
ENDCHAR
STARTCHAR p.sups
ENCODING 7510
SWIDTH 374 0
DWIDTH 6 0
BBX 6 7 0 4
BITMAP
3CBEA0
3E31C4
3C0096
3D22D3
3DCE70
3C0000
3C0000
ENDCHAR
STARTCHAR t.sups
ENCODING 7511
SWIDTH 232 0
DWIDTH 4 0
BBX 4 6 0 6
BITMAP
0D00
BFF6
0F00
0F00
0E31
08F7
ENDCHAR
STARTCHAR u.sups
ENCODING 7512
SWIDTH 370 0
DWIDTH 6 0
BBX 6 5 0 6
BITMAP
3C00D2
3C00D2
3C00D2
2E14E2
0AEAC2
ENDCHAR
STARTCHAR v.sups
ENCODING 7515
SWIDTH 321 0
DWIDTH 5 0
BBX 5 5 0 6
BITMAP
A402C0
590770
0D0C10
097B00
03F500
ENDCHAR
STARTCHAR c.sups
ENCODING 7580
SWIDTH 306 0
DWIDTH 5 0
BBX 5 6 0 6
BITMAP
06ED40
3E3210
780000
780000
3E3120
07ED40
ENDCHAR
STARTCHAR f.sups
ENCODING 7584
SWIDTH 201 0
DWIDTH 3 0
BBX 4 8 0 6
BITMAP
06E6
0D30
0F00
AFF2
0F00
0F00
0F00
0F00
ENDCHAR
STARTCHAR z.sups
ENCODING 7611
SWIDTH 290 0
DWIDTH 5 0
BBX 5 5 0 6
BITMAP
5FFF40
006C10
05D100
4D2000
AFFF50
ENDCHAR
STARTCHAR uni1E06
ENCODING 7686
SWIDTH 588 0
DWIDTH 9 0
BBX 8 12 1 -2
BITMAP
8FFFEA30
8C002AE1
8C0003F2
8C002AB0
8FFFFE40
8C0016F5
8C0000AA
8C0000AA
8C0017F4
8FFFEB40
00000000
05FFFE00
ENDCHAR
STARTCHAR uni1E07
ENCODING 7687
SWIDTH 553 0
DWIDTH 9 0
BBX 8 13 1 -2
BITMAP
A9000000
A9000000
A9000000
AA8EE800
AE613E80
A90007E0
A90004F1
A90005F1
A90009D0
AE515F50
A8AED600
00000000
09FFFA00
ENDCHAR
STARTCHAR uni1E0C
ENCODING 7692
SWIDTH 615 0
DWIDTH 10 0
BBX 8 14 1 -4
BITMAP
8FFFD810
8C014CD1
8C0001E8
8C00009D
8C00006F
8C00007F
8C00009D
8C0001E8
8C014CC1
8FFFD810
00000000
00000000
000C7000
000C8000
ENDCHAR
STARTCHAR uni1E0D
ENCODING 7693
SWIDTH 555 0
DWIDTH 9 0
BBX 8 15 0 -4
BITMAP
000000C8
000000C8
000000B8
007EE9C8
07E415E8
1E6000C8
3F3000C8
3F2000C8
1F5000C8
09D317F8
01AEE798
00000000
00000000
0000C700
0000C700
ENDCHAR
STARTCHAR uni1E0E
ENCODING 7694
SWIDTH 615 0
DWIDTH 10 0
BBX 8 12 1 -2
BITMAP
8FFFD810
8C014CD1
8C0001E8
8C00009D
8C00006F
8C00007F
8C00009D
8C0001E8
8C014CC1
8FFFD810
00000000
04FFFF00
ENDCHAR
STARTCHAR uni1E0F
ENCODING 7695
SWIDTH 555 0
DWIDTH 9 0
BBX 8 13 0 -2
BITMAP
000000C8
000000C8
000000B8
007EE9C8
07E415E8
1E6000C8
3F3000C8
3F2000C8
1F5000C8
09D317F8
01AEE798
00000000
005FFFE0
ENDCHAR
STARTCHAR uni1E16
ENCODING 7702
SWIDTH 527 0
DWIDTH 8 0
BBX 7 15 1 0
BITMAP
0002B100
001B3000
00000000
09FFFA00
00000000
8FFFFF70
8C000000
8C000000
8C000000
8FFFFB00
8C000000
8C000000
8C000000
8C000000
8FFFFFA0
ENDCHAR
STARTCHAR uni1E17
ENCODING 7703
SWIDTH 496 0
DWIDTH 8 0
BBX 8 14 0 0
BITMAP
00007900
00088100
00000000
00DFFF50
00000000
00000000
006DEB20
07C317D0
1E3000E3
3FFFFFF5
3F200000
1F600000
07E51250
006DFD70
ENDCHAR
STARTCHAR uni1E20
ENCODING 7712
SWIDTH 617 0
DWIDTH 10 0
BBX 9 12 0 0
BITMAP
0008FFFC00
0000000000
0018DFE920
01DB302A50
09D0000000
0E70000000
2F40000000
2F400AFFC0
0E700006C0
0AD00006C0
01DC302AC0
0019DFEA20
ENDCHAR
STARTCHAR uni1E21
ENCODING 7713
SWIDTH 504 0
DWIDTH 8 0
BBX 8 14 0 -3
BITMAP
00DFFF60
00000000
00000000
02AEFFFB
0BB12C70
0E5007B0
0AB12C80
03EEE900
0B500000
0B800000
05EFFFC5
1D20019C
3F5114C8
06CEEC60
ENDCHAR
STARTCHAR uni1E24
ENCODING 7716
SWIDTH 652 0
DWIDTH 10 0
BBX 8 14 1 -4
BITMAP
8C00005F
8C00005F
8C00005F
8C00005F
8FFFFFFF
8C00005F
8C00005F
8C00005F
8C00005F
8C00005F
00000000
00000000
0006D000
0007D000
ENDCHAR
STARTCHAR uni1E25
ENCODING 7717
SWIDTH 544 0
DWIDTH 9 0
BBX 7 15 1 -4
BITMAP
A9000000
A9000000
A9000000
A96DE900
AE714F40
AA000D70
A9000C80
A9000C80
A9000C80
A9000C80
A9000C80
00000000
00000000
002E3000
002E4000
ENDCHAR
STARTCHAR uni1E2A
ENCODING 7722
SWIDTH 652 0
DWIDTH 10 0
BBX 8 14 1 -4
BITMAP
8C00005F
8C00005F
8C00005F
8C00005F
8FFFFFFF
8C00005F
8C00005F
8C00005F
8C00005F
8C00005F
00000000
03A00390
00D41B50
004DE900
ENDCHAR
STARTCHAR uni1E2B
ENCODING 7723
SWIDTH 544 0
DWIDTH 9 0
BBX 7 15 1 -4
BITMAP
A9000000
A9000000
A9000000
A96DE900
AE714F40
AA000D70
A9000C80
A9000C80
A9000C80
A9000C80
A9000C80
00000000
0C100C00
09817B00
01BEB200
ENDCHAR
STARTCHAR uni1E32
ENCODING 7730
SWIDTH 579 0
DWIDTH 9 0
BBX 8 14 1 -4
BITMAP
8C0004E4
8C003E60
8C02D800
8C1CA000
8CBFC000
8FD2E700
8E206E20
8C000CA0
8C0003F4
8C00009D
00000000
00000000
0006D000
0006D000
ENDCHAR
STARTCHAR uni1E33
ENCODING 7731
SWIDTH 495 0
DWIDTH 8 0
BBX 7 15 1 -4
BITMAP
A9000000
A9000000
A9000000
A9006E20
A903E300
A91D6000
A9AE1000
AEDD9000
AE24F400
A9009C00
A9001E70
00000000
00000000
005E1000
005E1000
ENDCHAR
STARTCHAR uni1E34
ENCODING 7732
SWIDTH 579 0
DWIDTH 9 0
BBX 8 12 1 -2
BITMAP
8C0004E4
8C003E60
8C02D800
8C1CA000
8CBFC000
8FD2E700
8E206E20
8C000CA0
8C0003F4
8C00009D
00000000
00EFFF50
ENDCHAR
STARTCHAR uni1E35
ENCODING 7733
SWIDTH 495 0
DWIDTH 8 0
BBX 7 13 1 -2
BITMAP
A9000000
A9000000
A9000000
A9006E20
A903E300
A91D6000
A9AE1000
AEDD9000
AE24F400
A9009C00
A9001E70
00000000
0CFFF700
ENDCHAR
STARTCHAR uni1E36
ENCODING 7734
SWIDTH 486 0
DWIDTH 8 0
BBX 7 14 1 -4
BITMAP
8C000000
8C000000
8C000000
8C000000
8C000000
8C000000
8C000000
8C000000
8C000000
8FFFFF50
00000000
00000000
001E4000
001E4000
ENDCHAR
STARTCHAR uni1E37
ENCODING 7735
SWIDTH 255 0
DWIDTH 4 0
BBX 3 15 1 -4
BITMAP
A900
A900
A900
A900
A900
A900
A900
A900
A900
AA00
5E50
0000
0000
2E30
2E30
ENDCHAR
STARTCHAR uni1E38
ENCODING 7736
SWIDTH 486 0
DWIDTH 8 0
BBX 8 16 0 -4
BITMAP
FFFF4000
00000000
08C00000
08C00000
08C00000
08C00000
08C00000
08C00000
08C00000
08C00000
08C00000
08FFFFF5
00000000
00000000
0001E400
0001E400
ENDCHAR
STARTCHAR uni1E39
ENCODING 7737
SWIDTH 255 0
DWIDTH 4 0
BBX 6 19 -1 -4
BITMAP
3FFFF1
000000
000000
000000
00A900
00A900
00A900
00A900
00A900
00A900
00A900
00A900
00A900
00AA00
005E50
000000
000000
002E30
002E30
ENDCHAR
STARTCHAR uni1E3A
ENCODING 7738
SWIDTH 486 0
DWIDTH 8 0
BBX 7 12 1 -2
BITMAP
8C000000
8C000000
8C000000
8C000000
8C000000
8C000000
8C000000
8C000000
8C000000
8FFFFF50
00000000
08FFFB00
ENDCHAR
STARTCHAR uni1E3B
ENCODING 7739
SWIDTH 255 0
DWIDTH 4 0
BBX 5 13 0 -2
BITMAP
0A9000
0A9000
0A9000
0A9000
0A9000
0A9000
0A9000
0A9000
0A9000
0AA000
05E500
000000
9FFFA0
ENDCHAR
STARTCHAR uni1E3E
ENCODING 7742
SWIDTH 727 0
DWIDTH 12 0
BBX 10 14 1 0
BITMAP
0000059000
00005E5000
0000B30000
0000000000
8F400009F3
8E90001DE3
8AE10069F3
89B600B4F3
8A5C02D1F3
8A1E2781F3
8A098D21F3
8A03EC01F3
8A00C601F3
8A000001F3
ENDCHAR
STARTCHAR uni1E3F
ENCODING 7743
SWIDTH 829 0
DWIDTH 13 0
BBX 12 12 1 0
BITMAP
000000690000
000005E40000
00000B300000
000000000000
A78EE71AEC30
AE617FD41BC0
AA000F6005F0
A9000F5004F1
A9000F5004F1
A9000F5004F1
A9000F5004F1
A9000F5004F1
ENDCHAR
STARTCHAR uni1E40
ENCODING 7744
SWIDTH 727 0
DWIDTH 12 0
BBX 10 13 1 0
BITMAP
0000D80000
0000D80000
0000000000
8F400009F3
8E90001DE3
8AE10069F3
89B600B4F3
8A5C02D1F3
8A1E2781F3
8A098D21F3
8A03EC01F3
8A00C601F3
8A000001F3
ENDCHAR
STARTCHAR uni1E41
ENCODING 7745
SWIDTH 829 0
DWIDTH 13 0
BBX 12 11 1 0
BITMAP
00001D500000
00001E500000
000000000000
A78EE71AEC30
AE617FD41BC0
AA000F6005F0
A9000F5004F1
A9000F5004F1
A9000F5004F1
A9000F5004F1
A9000F5004F1
ENDCHAR
STARTCHAR uni1E42
ENCODING 7746
SWIDTH 727 0
DWIDTH 12 0
BBX 10 14 1 -4
BITMAP
8F400009F3
8E90001DE3
8AE10069F3
89B600B4F3
8A5C02D1F3
8A1E2781F3
8A098D21F3
8A03EC01F3
8A00C601F3
8A000001F3
0000000000
0000000000
0000C70000
0000C70000
ENDCHAR
STARTCHAR uni1E43
ENCODING 7747
SWIDTH 829 0
DWIDTH 13 0
BBX 12 12 1 -4
BITMAP
A78EE71AEC30
AE617FD41BC0
AA000F6005F0
A9000F5004F1
A9000F5004F1
A9000F5004F1
A9000F5004F1
A9000F5004F1
000000000000
000000000000
00000C700000
00000C700000
ENDCHAR
STARTCHAR uni1E44
ENCODING 7748
SWIDTH 647 0
DWIDTH 10 0
BBX 8 13 1 0
BITMAP
0007D100
0007D100
00000000
8F20005E
8EB0005E
89D5005E
8A6D105E
8A0C805E
8B03F25E
8B009B5E
8B001E8E
8B0006EE
8B0000CE
ENDCHAR
STARTCHAR uni1E45
ENCODING 7749
SWIDTH 547 0
DWIDTH 9 0
BBX 7 11 1 0
BITMAP
001E5000
001E5000
00000000
A77EE900
AE714F40
AA000D70
A9000C80
A9000C80
A9000C80
A9000C80
A9000C80
ENDCHAR
STARTCHAR uni1E46
ENCODING 7750
SWIDTH 647 0
DWIDTH 10 0
BBX 8 14 1 -4
BITMAP
8F20005E
8EB0005E
89D5005E
8A6D105E
8A0C805E
8B03F25E
8B009B5E
8B001E8E
8B0006EE
8B0000CE
00000000
00000000
0006D000
0006D000
ENDCHAR
STARTCHAR uni1E47
ENCODING 7751
SWIDTH 547 0
DWIDTH 9 0
BBX 7 12 1 -4
BITMAP
A77EE900
AE714F40
AA000D70
A9000C80
A9000C80
A9000C80
A9000C80
A9000C80
00000000
00000000
003E2000
003E2000
ENDCHAR
STARTCHAR uni1E48
ENCODING 7752
SWIDTH 647 0
DWIDTH 10 0
BBX 8 12 1 -2
BITMAP
8F20005E
8EB0005E
89D5005E
8A6D105E
8A0C805E
8B03F25E
8B009B5E
8B001E8E
8B0006EE
8B0000CE
00000000
00DFFF60
ENDCHAR
STARTCHAR uni1E49
ENCODING 7753
SWIDTH 547 0
DWIDTH 9 0
BBX 7 10 1 -2
BITMAP
A77EE900
AE714F40
AA000D70
A9000C80
A9000C80
A9000C80
A9000C80
A9000C80
00000000
0AFFF900
ENDCHAR
STARTCHAR uni1E52
ENCODING 7762
SWIDTH 664 0
DWIDTH 11 0
BBX 10 15 0 0
BITMAP
000004B000
00003A2000
0000000000
000CFFF700
0000000000
0029EFD700
02EB204EA0
0AC00003F4
0F600000CA
2F400000AC
2F400000AC
0E600000C9
0AD00004F4
02DB204E90
0029EFD700
ENDCHAR
STARTCHAR uni1E53
ENCODING 7763
SWIDTH 542 0
DWIDTH 9 0
BBX 8 14 0 0
BITMAP
00006B00
00069100
00000000
00CFFF70
00000000
00000000
006DFC30
07E417F2
1E6000BA
3F20007D
3F20007D
1E6000BA
07E417F2
006DFC30
ENDCHAR
STARTCHAR uni1E58
ENCODING 7768
SWIDTH 569 0
DWIDTH 9 0
BBX 8 13 1 0
BITMAP
002E5000
002E5000
00000000
8FFFEB30
8C0029E2
8C0000F6
8C0001F4
8C002AB0
8FFFF600
8C01E900
8C006F30
8C000BC0
8C0002F6
ENDCHAR
STARTCHAR uni1E59
ENCODING 7769
SWIDTH 347 0
DWIDTH 6 0
BBX 5 11 1 0
BITMAP
03E200
03E200
000000
A78E70
AD6100
AA0000
A90000
A90000
A90000
A90000
A90000
ENDCHAR
STARTCHAR uni1E5A
ENCODING 7770
SWIDTH 569 0
DWIDTH 9 0
BBX 8 14 1 -4
BITMAP
8FFFEB30
8C0029E2
8C0000F6
8C0001F4
8C002AB0
8FFFF600
8C01E900
8C006F30
8C000BC0
8C0002F6
00000000
00000000
000C7000
000C7000
ENDCHAR
STARTCHAR uni1E5B
ENCODING 7771
SWIDTH 347 0
DWIDTH 6 0
BBX 5 12 1 -4
BITMAP
A78E70
AD6100
AA0000
A90000
A90000
A90000
A90000
A90000
000000
000000
B90000
B90000
ENDCHAR
STARTCHAR uni1E5C
ENCODING 7772
SWIDTH 569 0
DWIDTH 9 0
BBX 8 16 1 -4
BITMAP
08FFFB00
00000000
8FFFEB30
8C0029E2
8C0000F6
8C0001F4
8C002AB0
8FFFF600
8C01E900
8C006F30
8C000BC0
8C0002F6
00000000
00000000
000C7000
000C7000
ENDCHAR
STARTCHAR uni1E5D
ENCODING 7773
SWIDTH 347 0
DWIDTH 6 0
BBX 5 15 1 -4
BITMAP
AFFF90
000000
000000
A78E70
AD6100
AA0000
A90000
A90000
A90000
A90000
A90000
000000
000000
B90000
B90000
ENDCHAR
STARTCHAR uni1E5E
ENCODING 7774
SWIDTH 569 0
DWIDTH 9 0
BBX 8 12 1 -2
BITMAP
8FFFEB30
8C0029E2
8C0000F6
8C0001F4
8C002AB0
8FFFF600
8C01E900
8C006F30
8C000BC0
8C0002F6
00000000
04FFFF00
ENDCHAR
STARTCHAR uni1E5F
ENCODING 7775
SWIDTH 347 0
DWIDTH 6 0
BBX 7 10 -1 -2
BITMAP
00A78E70
00AD6100
00AA0000
00A90000
00A90000
00A90000
00A90000
00A90000
00000000
3FFFF100
ENDCHAR
STARTCHAR uni1E60
ENCODING 7776
SWIDTH 534 0
DWIDTH 9 0
BBX 8 13 0 0
BITMAP
0004E300
0004E300
00000000
007DFD81
07D303B4
0B900000
08E40000
019FC610
00028ED3
000001CB
0200007D
2E9203D7
03AEFD70
ENDCHAR
STARTCHAR uni1E61
ENCODING 7777
SWIDTH 419 0
DWIDTH 7 0
BBX 7 11 0 0
BITMAP
003E3000
003E3000
00000000
04CEC500
1E614500
1F400000
07FA4000
0028EA00
00003F20
3A316E10
18DFC400
ENDCHAR
STARTCHAR uni1E62
ENCODING 7778
SWIDTH 534 0
DWIDTH 9 0
BBX 8 14 0 -4
BITMAP
007DFD81
07D303B4
0B900000
08E40000
019FC610
00028ED3
000001CB
0200007D
2E9203D7
03AEFD70
00000000
00000000
0004E100
0004E100
ENDCHAR
STARTCHAR uni1E63
ENCODING 7779
SWIDTH 419 0
DWIDTH 7 0
BBX 7 12 0 -4
BITMAP
04CEC500
1E614500
1F400000
07FA4000
0028EA00
00003F20
3A316E10
18DFC400
00000000
00000000
002E3000
002E3000
ENDCHAR
STARTCHAR uni1E6C
ENCODING 7788
SWIDTH 536 0
DWIDTH 9 0
BBX 9 14 0 -4
BITMAP
8FFFFFFF20
0006E00000
0006E00000
0006E00000
0006E00000
0006E00000
0006E00000
0006E00000
0006E00000
0006E00000
0000000000
0000000000
0005D00000
0005D00000
ENDCHAR
STARTCHAR uni1E6D
ENCODING 7789
SWIDTH 338 0
DWIDTH 5 0
BBX 6 14 0 -4
BITMAP
04D000
05D000
9FFFE0
07D000
07D000
07D000
07D000
07D000
04F310
009EE1
000000
000000
004E20
004E20
ENDCHAR
STARTCHAR uni1E6E
ENCODING 7790
SWIDTH 536 0
DWIDTH 9 0
BBX 9 12 0 -2
BITMAP
8FFFFFFF20
0006E00000
0006E00000
0006E00000
0006E00000
0006E00000
0006E00000
0006E00000
0006E00000
0006E00000
0000000000
00CFFF6000
ENDCHAR
STARTCHAR uni1E6F
ENCODING 7791
SWIDTH 338 0
DWIDTH 5 0
BBX 6 12 0 -2
BITMAP
04D000
05D000
9FFFE0
07D000
07D000
07D000
07D000
07D000
04F310
009EE1
000000
0BFFF8
ENDCHAR
STARTCHAR Wgrave
ENCODING 7808
SWIDTH 786 0
DWIDTH 13 0
BBX 13 14 0 0
BITMAP
00008600000000
00004E60000000
000003B0000000
00000000000000
8D0006F1003F10
4F100AE5006D00
1F400E99009A00
0D703D4D00C600
09A0791F20F300
06D0B50C63F000
03F1E108A6C000
00E7C004D98000
00BD8000ED5000
008F5000BF2000
ENDCHAR
STARTCHAR wgrave
ENCODING 7809
SWIDTH 718 0
DWIDTH 11 0
BBX 11 12 0 0
BITMAP
0003B1000000
0001AB100000
000009600000
000000000000
7D000E8004E0
3F204DC008B0
0E5087E10B70
0A90C3B50F30
06D1E0794E00
02F5B04D7A00
00DC700EC600
009F300BF200
ENDCHAR
STARTCHAR Wacute
ENCODING 7810
SWIDTH 786 0
DWIDTH 13 0
BBX 13 14 0 0
BITMAP
0000001B200000
000001BB100000
00000590000000
00000000000000
8D0006F1003F10
4F100AE5006D00
1F400E99009A00
0D703D4D00C600
09A0791F20F300
06D0B50C63F000
03F1E108A6C000
00E7C004D98000
00BD8000ED5000
008F5000BF2000
ENDCHAR
STARTCHAR wacute
ENCODING 7811
SWIDTH 718 0
DWIDTH 11 0
BBX 11 12 0 0
BITMAP
0000005A0000
000004E40000
00000B300000
000000000000
7D000E8004E0
3F204DC008B0
0E5087E10B70
0A90C3B50F30
06D1E0794E00
02F5B04D7A00
00DC700EC600
009F300BF200
ENDCHAR
STARTCHAR Wdieresis
ENCODING 7812
SWIDTH 786 0
DWIDTH 13 0
BBX 13 13 0 0
BITMAP
0001E40A800000
0001E40A800000
00000000000000
8D0006F1003F10
4F100AE5006D00
1F400E99009A00
0D703D4D00C600
09A0791F20F300
06D0B50C63F000
03F1E108A6C000
00E7C004D98000
00BD8000ED5000
008F5000BF2000
ENDCHAR
STARTCHAR wdieresis
ENCODING 7813
SWIDTH 718 0
DWIDTH 11 0
BBX 11 11 0 0
BITMAP
0006C04D0000
0006C04D0000
000000000000
7D000E8004E0
3F204DC008B0
0E5087E10B70
0A90C3B50F30
06D1E0794E00
02F5B04D7A00
00DC700EC600
009F300BF200
ENDCHAR
STARTCHAR uni1E8E
ENCODING 7822
SWIDTH 476 0
DWIDTH 8 0
BBX 8 13 0 0
BITMAP
000D8000
000D8000
00000000
BA0001E6
4F2007D0
0B901E50
03F27C00
00B9D500
003FC000
000D7000
000D7000
000D7000
000D7000
ENDCHAR
STARTCHAR uni1E8F
ENCODING 7823
SWIDTH 467 0
DWIDTH 7 0
BBX 8 14 0 -3
BITMAP
000C8000
000C8000
00000000
9B0002F2
3F2007B0
0C700C60
06D02F10
01E37B00
0099C500
003EE100
000CA000
001E4000
019C0000
5EB20000
ENDCHAR
STARTCHAR uni1E92
ENCODING 7826
SWIDTH 539 0
DWIDTH 9 0
BBX 8 14 0 -4
BITMAP
0CFFFFFE
000002E8
00000CD0
00007F30
0003F700
000DC000
008E2000
04F60000
1DB00000
4FFFFFFE
00000000
00000000
0003E300
0003E300
ENDCHAR
STARTCHAR uni1E93
ENCODING 7827
SWIDTH 425 0
DWIDTH 7 0
BBX 7 12 0 -4
BITMAP
1FFFFF40
0000BD10
0006F400
002E8000
00CC0000
07F30000
3F700000
8FFFFF60
00000000
00000000
001E4000
001E4000
ENDCHAR
STARTCHAR uni1E94
ENCODING 7828
SWIDTH 539 0
DWIDTH 9 0
BBX 8 12 0 -2
BITMAP
0CFFFFFE
000002E8
00000CD0
00007F30
0003F700
000DC000
008E2000
04F60000
1DB00000
4FFFFFFE
00000000
009FFF90
ENDCHAR
STARTCHAR uni1E95
ENCODING 7829
SWIDTH 425 0
DWIDTH 7 0
BBX 7 10 0 -2
BITMAP
1FFFFF40
0000BD10
0006F400
002E8000
00CC0000
07F30000
3F700000
8FFFFF60
00000000
07FFFC00
ENDCHAR
STARTCHAR uni1E96
ENCODING 7830
SWIDTH 544 0
DWIDTH 9 0
BBX 7 13 1 -2
BITMAP
A9000000
A9000000
A9000000
A96DE900
AE714F40
AA000D70
A9000C80
A9000C80
A9000C80
A9000C80
A9000C80
00000000
08FFFB00
ENDCHAR
STARTCHAR uni1E97
ENCODING 7831
SWIDTH 338 0
DWIDTH 5 0
BBX 6 13 0 0
BITMAP
D50B60
D50B70
000000
04D000
05D000
9FFFE0
07D000
07D000
07D000
07D000
07D000
04F310
009EE1
ENDCHAR
STARTCHAR uni1E9E
ENCODING 7838
SWIDTH 667 0
DWIDTH 11 0
BBX 9 10 1 0
BITMAP
018DFD8000
0DB313D900
5F1000A900
8D00099000
8C007F9300
8C0027DF50
8C00000BD0
8C000007E0
8C09612C90
8C03BEE910
ENDCHAR
STARTCHAR uni1EA0
ENCODING 7840
SWIDTH 544 0
DWIDTH 9 0
BBX 9 14 0 -4
BITMAP
0009F40000
000EAA0000
004D3E1000
00A80D5000
01E309B000
05E004F100
0BFFFFF600
1F40009C00
6E00004F20
C900000E70
0000000000
0000000000
0005E10000
0005E10000
ENDCHAR
STARTCHAR uni1EA1
ENCODING 7841
SWIDTH 504 0
DWIDTH 8 0
BBX 7 12 0 -4
BITMAP
03AEEA10
06612D90
000007D0
0059DFE0
0AE737E0
2F3006E0
1F604EE0
06DEA5E0
00000000
00000000
000B9000
000B9000
ENDCHAR
STARTCHAR uni1EA2
ENCODING 7842
SWIDTH 544 0
DWIDTH 9 0
BBX 9 14 0 0
BITMAP
000AC30000
0001A80000
0004C20000
0000000000
0009F40000
000EAA0000
004D3E1000
00A80D5000
01E309B000
05E004F100
0BFFFFF600
1F40009C00
6E00004F20
C900000E70
ENDCHAR
STARTCHAR uni1EA3
ENCODING 7843
SWIDTH 504 0
DWIDTH 8 0
BBX 7 13 0 0
BITMAP
000CA000
0001C600
0001C500
0006A000
00000000
03AEEA10
06612D90
000007D0
0059DFE0
0AE737E0
2F3006E0
1F604EE0
06DEA5E0
ENDCHAR
STARTCHAR uni1EA4
ENCODING 7844
SWIDTH 544 0
DWIDTH 9 0
BBX 9 14 0 0
BITMAP
0000003900
000AF7A100
00782B2000
0000000000
0009F40000
000EAA0000
004D3E1000
00A80D5000
01E309B000
05E004F100
0BFFFFF600
1F40009C00
6E00004F20
C900000E70
ENDCHAR
STARTCHAR uni1EA5
ENCODING 7845
SWIDTH 504 0
DWIDTH 8 0
BBX 8 12 0 0
BITMAP
00000049
000BE3A1
00894C10
00400310
03AEEA10
06612D90
000007D0
0059DFE0
0AE737E0
2F3006E0
1F604EE0
06DEA5E0
ENDCHAR
STARTCHAR uni1EA6
ENCODING 7846
SWIDTH 544 0
DWIDTH 9 0
BBX 9 14 0 0
BITMAP
0A10000000
039AF60000
00782B2000
0000000000
0009F40000
000EAA0000
004D3E1000
00A80D5000
01E309B000
05E004F100
0BFFFFF600
1F40009C00
6E00004F20
C900000E70
ENDCHAR
STARTCHAR uni1EA7
ENCODING 7847
SWIDTH 504 0
DWIDTH 8 0
BBX 7 12 0 0
BITMAP
68000000
085BE300
00894C10
00400310
03AEEA10
06612D90
000007D0
0059DFE0
0AE737E0
2F3006E0
1F604EE0
06DEA5E0
ENDCHAR
STARTCHAR uni1EA8
ENCODING 7848
SWIDTH 544 0
DWIDTH 9 0
BBX 9 15 0 0
BITMAP
000005D400
0000007900
000AF6B300
00782B2000
0000000000
0009F40000
000EAA0000
004D3E1000
00A80D5000
01E309B000
05E004F100
0BFFFFF600
1F40009C00
6E00004F20
C900000E70
ENDCHAR
STARTCHAR uni1EA9
ENCODING 7849
SWIDTH 504 0
DWIDTH 8 0
BBX 8 13 0 0
BITMAP
000007C3
00000097
000BE3C2
00894C10
00400310
03AEEA10
06612D90
000007D0
0059DFE0
0AE737E0
2F3006E0
1F604EE0
06DEA5E0
ENDCHAR
STARTCHAR uni1EAA
ENCODING 7850
SWIDTH 544 0
DWIDTH 9 0
BBX 9 16 0 0
BITMAP
008E747000
00A2AE4000
0000000000
000AF60000
00782B2000
0000000000
0009F40000
000EAA0000
004D3E1000
00A80D5000
01E309B000
05E004F100
0BFFFFF600
1F40009C00
6E00004F20
C900000E70
ENDCHAR
STARTCHAR uni1EAB
ENCODING 7851
SWIDTH 504 0
DWIDTH 8 0
BBX 7 14 0 0
BITMAP
007B4630
00B4CD10
00000000
000BE300
00894C10
00400310
03AEEA10
06612D90
000007D0
0059DFE0
0AE737E0
2F3006E0
1F604EE0
06DEA5E0
ENDCHAR
STARTCHAR uni1EAC
ENCODING 7852
SWIDTH 544 0
DWIDTH 9 0
BBX 9 17 0 -4
BITMAP
001CC80000
00A4086000
0000000000
0009F40000
000EAA0000
004D3E1000
00A80D5000
01E309B000
05E004F100
0BFFFFF600
1F40009C00
6E00004F20
C900000E70
0000000000
0000000000
0005E10000
0005E10000
ENDCHAR
STARTCHAR uni1EAD
ENCODING 7853
SWIDTH 504 0
DWIDTH 8 0
BBX 7 16 0 -4
BITMAP
000CF300
009A5D10
02A00670
00000000
03AEEA10
06612D90
000007D0
0059DFE0
0AE737E0
2F3006E0
1F604EE0
06DEA5E0
00000000
00000000
000B9000
000B9000
ENDCHAR
STARTCHAR uni1EAE
ENCODING 7854
SWIDTH 544 0
DWIDTH 9 0
BBX 9 15 0 0
BITMAP
00004B0000
0001B20000
00C3068000
004DEB1000
0000000000
0009F40000
000EAA0000
004D3E1000
00A80D5000
01E309B000
05E004F100
0BFFFFF600
1F40009C00
6E00004F20
C900000E70
ENDCHAR
STARTCHAR uni1EAF
ENCODING 7855
SWIDTH 504 0
DWIDTH 8 0
BBX 7 13 0 0
BITMAP
00108610
03949490
00D41B40
004DE800
00000000
03AEEA10
06612D90
000007D0
0059DFE0
0AE737E0
2F3006E0
1F604EE0
06DEA5E0
ENDCHAR
STARTCHAR uni1EB0
ENCODING 7856
SWIDTH 544 0
DWIDTH 9 0
BBX 9 15 0 0
BITMAP
002C100000
0005900000
00C3068000
004DEB1000
0000000000
0009F40000
000EAA0000
004D3E1000
00A80D5000
01E309B000
05E004F100
0BFFFFF600
1F40009C00
6E00004F20
C900000E70
ENDCHAR
STARTCHAR uni1EB1
ENCODING 7857
SWIDTH 504 0
DWIDTH 8 0
BBX 7 13 0 0
BITMAP
002B1010
03959490
00D41B40
004DE800
00000000
03AEEA10
06612D90
000007D0
0059DFE0
0AE737E0
2F3006E0
1F604EE0
06DEA5E0
ENDCHAR
STARTCHAR uni1EB2
ENCODING 7858
SWIDTH 544 0
DWIDTH 9 0
BBX 9 16 0 0
BITMAP
0008C20000
0000A60000
0002C10000
00C3068000
004DEB1000
0000000000
0009F40000
000EAA0000
004D3E1000
00A80D5000
01E309B000
05E004F100
0BFFFFF600
1F40009C00
6E00004F20
C900000E70
ENDCHAR
STARTCHAR uni1EB3
ENCODING 7859
SWIDTH 504 0
DWIDTH 8 0
BBX 7 14 0 0
BITMAP
000BB100
0011C510
0395B490
00D41B40
004DE800
00000000
03AEEA10
06612D90
000007D0
0059DFE0
0AE737E0
2F3006E0
1F604EE0
06DEA5E0
ENDCHAR
STARTCHAR uni1EB4
ENCODING 7860
SWIDTH 544 0
DWIDTH 9 0
BBX 9 16 0 0
BITMAP
008E747000
00B2AE4000
0000000000
00B3077000
004DEB1000
0000000000
0009F40000
000EAA0000
004D3E1000
00A80D5000
01E309B000
05E004F100
0BFFFFF600
1F40009C00
6E00004F20
C900000E70
ENDCHAR
STARTCHAR uni1EB5
ENCODING 7861
SWIDTH 504 0
DWIDTH 8 0
BBX 7 14 0 0
BITMAP
008C4650
00C4CD10
00100000
00D21A50
005DE900
00000000
03AEEA10
06612D90
000007D0
0059DFE0
0AE737E0
2F3006E0
1F604EE0
06DEA5E0
ENDCHAR
STARTCHAR uni1EB6
ENCODING 7862
SWIDTH 544 0
DWIDTH 9 0
BBX 9 17 0 -4
BITMAP
00C3078000
004DEB1000
0000000000
0009F40000
000EAA0000
004D3E1000
00A80D5000
01E309B000
05E004F100
0BFFFFF600
1F40009C00
6E00004F20
C900000E70
0000000000
0000000000
0005E10000
0005E10000
ENDCHAR
STARTCHAR uni1EB7
ENCODING 7863
SWIDTH 504 0
DWIDTH 8 0
BBX 7 16 0 -4
BITMAP
03900480
01D41C50
004DE800
00000000
03AEEA10
06612D90
000007D0
0059DFE0
0AE737E0
2F3006E0
1F604EE0
06DEA5E0
00000000
00000000
000B9000
000B9000
ENDCHAR
STARTCHAR uni1EB8
ENCODING 7864
SWIDTH 527 0
DWIDTH 8 0
BBX 7 14 1 -4
BITMAP
8FFFFF70
8C000000
8C000000
8C000000
8FFFFB00
8C000000
8C000000
8C000000
8C000000
8FFFFFA0
00000000
00000000
000D5000
000D5000
ENDCHAR
STARTCHAR uni1EB9
ENCODING 7865
SWIDTH 496 0
DWIDTH 8 0
BBX 8 12 0 -4
BITMAP
006DEB20
07C317D0
1E3000E3
3FFFFFF5
3F200000
1F600000
07E51250
006DFD70
00000000
00000000
0007C000
0007D000
ENDCHAR
STARTCHAR uni1EBA
ENCODING 7866
SWIDTH 527 0
DWIDTH 8 0
BBX 7 14 1 0
BITMAP
007D5000
0007B000
001D4000
00000000
8FFFFF70
8C000000
8C000000
8C000000
8FFFFB00
8C000000
8C000000
8C000000
8C000000
8FFFFFA0
ENDCHAR
STARTCHAR uni1EBB
ENCODING 7867
SWIDTH 496 0
DWIDTH 8 0
BBX 8 13 0 0
BITMAP
000CA100
0001B600
0001B600
0005A000
00000000
006DEB20
07C317D0
1E3000E3
3FFFFFF5
3F200000
1F600000
07E51250
006DFD70
ENDCHAR
STARTCHAR uni1EBC
ENCODING 7868
SWIDTH 527 0
DWIDTH 8 0
BBX 7 14 1 0
BITMAP
00100000
0CEB1B40
3A07EB00
00000000
8FFFFF70
8C000000
8C000000
8C000000
8FFFFB00
8C000000
8C000000
8C000000
8C000000
8FFFFFA0
ENDCHAR
STARTCHAR uni1EBD
ENCODING 7869
SWIDTH 496 0
DWIDTH 8 0
BBX 8 12 0 0
BITMAP
00340040
03DC82D0
06609E60
00000000
006DEB20
07C317D0
1E3000E3
3FFFFFF5
3F200000
1F600000
07E51250
006DFD70
ENDCHAR
STARTCHAR uni1EBE
ENCODING 7870
SWIDTH 527 0
DWIDTH 8 0
BBX 7 14 1 0
BITMAP
000002A0
008F9A30
04A29500
00000000
8FFFFF70
8C000000
8C000000
8C000000
8FFFFB00
8C000000
8C000000
8C000000
8C000000
8FFFFFA0
ENDCHAR
STARTCHAR uni1EBF
ENCODING 7871
SWIDTH 496 0
DWIDTH 8 0
BBX 8 12 0 0
BITMAP
0000004A
000BF4A1
008A4D10
00400310
006DEB20
07C317D0
1E3000E3
3FFFFFF5
3F200000
1F600000
07E51250
006DFD70
ENDCHAR
STARTCHAR uni1EC0
ENCODING 7872
SWIDTH 527 0
DWIDTH 8 0
BBX 7 14 1 0
BITMAP
83000000
1A8F9000
04A29500
00000000
8FFFFF70
8C000000
8C000000
8C000000
8FFFFB00
8C000000
8C000000
8C000000
8C000000
8FFFFFA0
ENDCHAR
STARTCHAR uni1EC1
ENCODING 7873
SWIDTH 496 0
DWIDTH 8 0
BBX 8 12 0 0
BITMAP
68000000
086BF300
008A4D10
00400310
006DEB20
07C317D0
1E3000E3
3FFFFFF5
3F200000
1F600000
07E51250
006DFD70
ENDCHAR
STARTCHAR uni1EC2
ENCODING 7874
SWIDTH 527 0
DWIDTH 8 0
BBX 7 15 1 0
BITMAP
00002E60
000004C0
008F9950
04A29500
00000000
8FFFFF70
8C000000
8C000000
8C000000
8FFFFB00
8C000000
8C000000
8C000000
8C000000
8FFFFFA0
ENDCHAR
STARTCHAR uni1EC3
ENCODING 7875
SWIDTH 496 0
DWIDTH 8 0
BBX 8 13 0 0
BITMAP
000006D3
00000098
000BF3C2
008A4D10
00400310
006DEB20
07C317D0
1E3000E3
3FFFFFF5
3F200000
1F600000
07E51250
006DFD70
ENDCHAR
STARTCHAR uni1EC4
ENCODING 7876
SWIDTH 527 0
DWIDTH 8 0
BBX 7 16 1 0
BITMAP
05E92A00
0928E600
00000000
008F9000
04A29500
00000000
8FFFFF70
8C000000
8C000000
8C000000
8FFFFB00
8C000000
8C000000
8C000000
8C000000
8FFFFFA0
ENDCHAR
STARTCHAR uni1EC5
ENCODING 7877
SWIDTH 496 0
DWIDTH 8 0
BBX 8 14 0 0
BITMAP
006C5540
00B4BE10
00000000
000BF300
008A4D10
00400310
006DEB20
07C317D0
1E3000E3
3FFFFFF5
3F200000
1F600000
07E51250
006DFD70
ENDCHAR
STARTCHAR uni1EC6
ENCODING 7878
SWIDTH 527 0
DWIDTH 8 0
BBX 7 17 1 -4
BITMAP
00ACB000
07605800
00000000
8FFFFF70
8C000000
8C000000
8C000000
8FFFFB00
8C000000
8C000000
8C000000
8C000000
8FFFFFA0
00000000
00000000
000D5000
000D5000
ENDCHAR
STARTCHAR uni1EC7
ENCODING 7879
SWIDTH 496 0
DWIDTH 8 0
BBX 8 16 0 -4
BITMAP
000CF400
008B5D10
01B10570
00000000
006DEB20
07C317D0
1E3000E3
3FFFFFF5
3F200000
1F600000
07E51250
006DFD70
00000000
00000000
0007C000
0007C000
ENDCHAR
STARTCHAR uni1EC8
ENCODING 7880
SWIDTH 263 0
DWIDTH 4 0
BBX 3 14 1 0
BITMAP
DB10
1D40
7A00
0000
8C00
8C00
8C00
8C00
8C00
8C00
8C00
8C00
8C00
8C00
ENDCHAR
STARTCHAR uni1EC9
ENCODING 7881
SWIDTH 246 0
DWIDTH 4 0
BBX 4 13 0 0
BITMAP
1E70
02E2
02E2
0870
0000
0A90
0A90
0A90
0A90
0A90
0A90
0A90
0A90
ENDCHAR
STARTCHAR uni1ECA
ENCODING 7882
SWIDTH 263 0
DWIDTH 4 0
BBX 2 14 1 -4
BITMAP
8C
8C
8C
8C
8C
8C
8C
8C
8C
8C
00
00
8B
8B
ENDCHAR
STARTCHAR uni1ECB
ENCODING 7883
SWIDTH 246 0
DWIDTH 4 0
BBX 2 16 1 -4
BITMAP
77
BA
00
00
A9
A9
A9
A9
A9
A9
A9
A9
00
00
A9
A9
ENDCHAR
STARTCHAR uni1ECC
ENCODING 7884
SWIDTH 664 0
DWIDTH 11 0
BBX 10 14 0 -4
BITMAP
0029EFD700
02EB204EA0
0AC00003F4
0F600000CA
2F400000AC
2F400000AC
0E600000C9
0AD00004F4
02DB204E90
0029EFD700
0000000000
0000000000
00005D1000
00005E1000
ENDCHAR
STARTCHAR uni1ECD
ENCODING 7885
SWIDTH 542 0
DWIDTH 9 0
BBX 8 12 0 -4
BITMAP
006DFC30
07E417F2
1E6000BA
3F20007D
3F20007D
1E6000BA
07E417F2
006DFC30
00000000
00000000
0004E100
0005E100
ENDCHAR
STARTCHAR uni1ECE
ENCODING 7886
SWIDTH 664 0
DWIDTH 11 0
BBX 10 14 0 0
BITMAP
0000AC3000
00001A8000
00004C2000
0000000000
0029EFD700
02EB204EA0
0AC00003F4
0F600000CA
2F400000AC
2F400000AC
0E600000C9
0AD00004F4
02DB204E90
0029EFD700
ENDCHAR
STARTCHAR uni1ECF
ENCODING 7887
SWIDTH 542 0
DWIDTH 9 0
BBX 8 13 0 0
BITMAP
000AB100
0001A800
0000A800
0004B100
00000000
006DFC30
07E417F2
1E6000BA
3F20007D
3F20007D
1E6000BA
07E417F2
006DFC30
ENDCHAR
STARTCHAR uni1ED0
ENCODING 7888
SWIDTH 664 0
DWIDTH 11 0
BBX 10 14 0 0
BITMAP
0000000490
0000BF6A10
000783B200
0000000000
0029EFD700
02EB204EA0
0AC00003F4
0F600000CA
2F400000AC
2F400000AC
0E600000C9
0AD00004F4
02DB204E90
0029EFD700
ENDCHAR
STARTCHAR uni1ED1
ENCODING 7889
SWIDTH 542 0
DWIDTH 9 0
BBX 8 12 0 0
BITMAP
0000003B
0009F5A2
006B3D20
00400220
006DFC30
07E417F2
1E6000BA
3F20007D
3F20007D
1E6000BA
07E417F2
006DFC30
ENDCHAR
STARTCHAR uni1ED2
ENCODING 7890
SWIDTH 664 0
DWIDTH 11 0
BBX 10 14 0 0
BITMAP
00A1000000
0039BF6000
000783B200
0000000000
0029EFD700
02EB204EA0
0AC00003F4
0F600000CA
2F400000AC
2F400000AC
0E600000C9
0AD00004F4
02DB204E90
0029EFD700
ENDCHAR
STARTCHAR uni1ED3
ENCODING 7891
SWIDTH 542 0
DWIDTH 9 0
BBX 8 12 0 0
BITMAP
4A000000
0679F400
006B3D20
00400220
006DFC30
07E417F2
1E6000BA
3F20007D
3F20007D
1E6000BA
07E417F2
006DFC30
ENDCHAR
STARTCHAR uni1ED4
ENCODING 7892
SWIDTH 664 0
DWIDTH 11 0
BBX 10 15 0 0
BITMAP
0000005D30
0000000890
0000BF6C30
000783B200
0000000000
0029EFD700
02EB204EA0
0AC00003F4
0F600000CA
2F400000AC
2F400000AC
0E600000C9
0AD00004F4
02DB204E90
0029EFD700
ENDCHAR
STARTCHAR uni1ED5
ENCODING 7893
SWIDTH 542 0
DWIDTH 9 0
BBX 8 13 0 0
BITMAP
000005D4
0000007A
0009F4B3
006B3D20
00400220
006DFC30
07E417F2
1E6000BA
3F20007D
3F20007D
1E6000BA
07E417F2
006DFC30
ENDCHAR
STARTCHAR uni1ED6
ENCODING 7894
SWIDTH 664 0
DWIDTH 11 0
BBX 10 16 0 0
BITMAP
0008E64700
000A2AE300
0000000000
0000BF6000
000783B200
0000000000
0029EFD700
02EB204EA0
0AC00003F4
0F600000CA
2F400000AC
2F400000AC
0E600000C9
0AD00004F4
02DB204E90
0029EFD700
ENDCHAR
STARTCHAR uni1ED7
ENCODING 7895
SWIDTH 542 0
DWIDTH 9 0
BBX 8 14 0 0
BITMAP
005C6450
00A4BE20
00000000
0009F400
006B3D20
00400220
006DFC30
07E417F2
1E6000BA
3F20007D
3F20007D
1E6000BA
07E417F2
006DFC30
ENDCHAR
STARTCHAR uni1ED8
ENCODING 7896
SWIDTH 664 0
DWIDTH 11 0
BBX 10 17 0 -4
BITMAP
0001CD8000
000A408600
0000000000
0029EFD700
02EB204EA0
0AC00003F4
0F600000CA
2F400000AC
2F400000AC
0E600000C9
0AD00004F4
02DB204E90
0029EFD700
0000000000
0000000000
00005D1000
00005E1000
ENDCHAR
STARTCHAR uni1ED9
ENCODING 7897
SWIDTH 542 0
DWIDTH 9 0
BBX 8 16 0 -4
BITMAP
000AF600
007C4E20
00B10480
00000000
006DFC30
07E417F2
1E6000BA
3F20007D
3F20007D
1E6000BA
07E417F2
006DFC30
00000000
00000000
0004E100
0005E100
ENDCHAR
STARTCHAR uni1EDA
ENCODING 7898
SWIDTH 664 0
DWIDTH 11 0
BBX 10 14 0 0
BITMAP
000001A200
00001BB102
000049005D
000000006C
0029EFDBC3
01DB204DB0
09D00003F5
0E700000BA
1F5000009C
1F5000009C
0E700000CA
09D00003F5
01DB204EA0
0019EFD700
ENDCHAR
STARTCHAR uni1EDB
ENCODING 7899
SWIDTH 542 0
DWIDTH 9 0
BBX 9 12 0 0
BITMAP
00000A4000
0000AB1510
0004A00D50
0000001E30
006DFCC600
07E417F300
1E6000BA00
3F20007D00
3F20007D00
1E6000BA00
07E417F200
006DFC3000
ENDCHAR
STARTCHAR uni1EDC
ENCODING 7900
SWIDTH 664 0
DWIDTH 11 0
BBX 10 14 0 0
BITMAP
0007600000
0004E60002
00002B005D
000000006C
0029EFDBC3
01DB204DB0
09D00003F5
0E700000BA
1F5000009C
1F5000009C
0E700000CA
09D00003F5
01DB204EA0
0019EFD700
ENDCHAR
STARTCHAR uni1EDD
ENCODING 7901
SWIDTH 542 0
DWIDTH 9 0
BBX 9 12 0 0
BITMAP
0087000000
003E600510
0002C10D50
0000001E30
006DFCC600
07E417F300
1E6000BA00
3F20007D00
3F20007D00
1E6000BA00
07E417F200
006DFC3000
ENDCHAR
STARTCHAR uni1EDE
ENCODING 7902
SWIDTH 664 0
DWIDTH 11 0
BBX 10 14 0 0
BITMAP
0000AC3000
00001A8002
00004C205D
000000006C
0029EFDBC3
01DB204DB0
09D00003F5
0E700000BA
1F5000009C
1F5000009C
0E700000CA
09D00003F5
01DB204EA0
0019EFD700
ENDCHAR
STARTCHAR uni1EDF
ENCODING 7903
SWIDTH 542 0
DWIDTH 9 0
BBX 9 13 0 0
BITMAP
000AB10000
0001A80000
0000A80510
0004B10D50
0000001E30
006DFCC600
07E417F300
1E6000BA00
3F20007D00
3F20007D00
1E6000BA00
07E417F200
006DFC3000
ENDCHAR
STARTCHAR uni1EE0
ENCODING 7904
SWIDTH 664 0
DWIDTH 11 0
BBX 10 14 0 0
BITMAP
0001100100
003EE72E02
00761BE75D
000000006C
0029EFDBC3
01DB204DB0
09D00003F5
0E700000BA
1F5000009C
1F5000009C
0E700000CA
09D00003F5
01DB204EA0
0019EFD700
ENDCHAR
STARTCHAR uni1EE1
ENCODING 7905
SWIDTH 542 0
DWIDTH 9 0
BBX 9 12 0 0
BITMAP
0043004000
05DD74B510
0841BE4D50
0000001E30
006DFCC600
07E417F300
1E6000BA00
3F20007D00
3F20007D00
1E6000BA00
07E417F200
006DFC3000
ENDCHAR
STARTCHAR uni1EE2
ENCODING 7906
SWIDTH 664 0
DWIDTH 11 0
BBX 10 17 0 -4
BITMAP
0000000002
000000005D
000000006C
0029EFDBC3
01DB204DB0
09D00003F5
0E700000BA
1F5000009C
1F5000009C
0E700000CA
09D00003F5
01DB204EA0
0019EFD700
0000000000
0000000000
00005D1000
00005E1000
ENDCHAR
STARTCHAR uni1EE3
ENCODING 7907
SWIDTH 542 0
DWIDTH 9 0
BBX 9 15 0 -4
BITMAP
0000000510
0000000D50
0000001E30
006DFCC600
07E417F300
1E6000BA00
3F20007D00
3F20007D00
1E6000BA00
07E417F200
006DFC3000
0000000000
0000000000
0004E10000
0005E10000
ENDCHAR
STARTCHAR uni1EE4
ENCODING 7908
SWIDTH 645 0
DWIDTH 10 0
BBX 8 14 1 -4
BITMAP
9B00005E
9B00005E
9B00005E
9B00005E
9B00005E
9B00005E
8B00006D
6E1000AA
1DA216F4
02AEEC50
00000000
00000000
0007C000
0007C000
ENDCHAR
STARTCHAR uni1EE5
ENCODING 7909
SWIDTH 544 0
DWIDTH 9 0
BBX 7 12 1 -4
BITMAP
C8000E60
C8000E60
C8000E60
C8000E60
C8000E60
B9001E60
8D22AE60
1BEC3B60
00000000
00000000
001E4000
001E4000
ENDCHAR
STARTCHAR uni1EE6
ENCODING 7910
SWIDTH 645 0
DWIDTH 10 0
BBX 8 14 1 0
BITMAP
000CB100
0001C500
0006B100
00000000
9B00005E
9B00005E
9B00005E
9B00005E
9B00005E
9B00005E
8B00006D
6E1000AA
1DA216F4
02AEEC50
ENDCHAR
STARTCHAR uni1EE7
ENCODING 7911
SWIDTH 544 0
DWIDTH 9 0
BBX 7 13 1 0
BITMAP
00AB1000
001A8000
000A8000
003B1000
00000000
C8000E60
C8000E60
C8000E60
C8000E60
C8000E60
B9001E60
8D22AE60
1BEC3B60
ENDCHAR
STARTCHAR uni1EE8
ENCODING 7912
SWIDTH 659 0
DWIDTH 11 0
BBX 10 14 1 0
BITMAP
00001B1000
0001DA0035
000770007B
00000001B8
9B00005FA1
9B00005E00
9B00005E00
9B00005E00
9B00005E00
9B00005E00
8B00006D00
6E1000AB00
1DA216F500
02AEEC5000
ENDCHAR
STARTCHAR uni1EE9
ENCODING 7913
SWIDTH 544 0
DWIDTH 9 0
BBX 8 12 1 0
BITMAP
0001B300
001BA139
0059004D
000001A9
C8000EC1
C8000E60
C8000E60
C8000E60
C8000E60
B9000E60
8D22AF60
1BED5B60
ENDCHAR
STARTCHAR uni1EEA
ENCODING 7914
SWIDTH 659 0
DWIDTH 11 0
BBX 10 14 1 0
BITMAP
0094000000
006E400035
0004A0007B
00000001B8
9B00005FA1
9B00005E00
9B00005E00
9B00005E00
9B00005E00
9B00005E00
8B00006D00
6E1000AB00
1DA216F500
02AEEC5000
ENDCHAR
STARTCHAR uni1EEB
ENCODING 7915
SWIDTH 544 0
DWIDTH 9 0
BBX 8 12 1 0
BITMAP
09500000
04E50039
003B004D
000001A9
C8000EC1
C8000E60
C8000E60
C8000E60
C8000E60
B9000E60
8D22AF60
1BED5B60
ENDCHAR
STARTCHAR uni1EEC
ENCODING 7916
SWIDTH 659 0
DWIDTH 11 0
BBX 10 14 1 0
BITMAP
000CB10000
0001C50035
0006B1007B
00000001B8
9B00005FA1
9B00005E00
9B00005E00
9B00005E00
9B00005E00
9B00005E00
8B00006D00
6E1000AB00
1DA216F500
02AEEC5000
ENDCHAR
STARTCHAR uni1EED
ENCODING 7917
SWIDTH 544 0
DWIDTH 9 0
BBX 8 13 1 0
BITMAP
00BA1000
001B7000
001B6039
005A104D
000001A9
C8000EC1
C8000E60
C8000E60
C8000E60
C8000E60
B9000E60
8D22AF60
1BED5B60
ENDCHAR
STARTCHAR uni1EEE
ENCODING 7918
SWIDTH 659 0
DWIDTH 11 0
BBX 10 14 1 0
BITMAP
0011001000
04EE62D035
0852BE607B
00000001B8
9B00005FA1
9B00005E00
9B00005E00
9B00005E00
9B00005E00
9B00005E00
8B00006D00
6E1000AB00
1DA216F500
02AEEC5000
ENDCHAR
STARTCHAR uni1EEF
ENCODING 7919
SWIDTH 544 0
DWIDTH 9 0
BBX 8 12 1 0
BITMAP
03400400
3DC92D39
6609E64D
000001A9
C8000EC1
C8000E60
C8000E60
C8000E60
C8000E60
B9000E60
8D22AF60
1BED5B60
ENDCHAR
STARTCHAR uni1EF0
ENCODING 7920
SWIDTH 659 0
DWIDTH 11 0
BBX 10 17 1 -4
BITMAP
0000000035
000000007B
00000001B8
9B00005FA1
9B00005E00
9B00005E00
9B00005E00
9B00005E00
9B00005E00
8B00006D00
6E1000AB00
1DA216F500
02AEEC5000
0000000000
0000000000
0007C00000
0007C00000
ENDCHAR
STARTCHAR uni1EF1
ENCODING 7921
SWIDTH 544 0
DWIDTH 9 0
BBX 8 15 1 -4
BITMAP
00000039
0000004D
000001A9
C8000EC1
C8000E60
C8000E60
C8000E60
C8000E60
B9000E60
8D22AF60
1BED5B60
00000000
00000000
002E3000
002E3000
ENDCHAR
STARTCHAR Ygrave
ENCODING 7922
SWIDTH 476 0
DWIDTH 8 0
BBX 8 14 0 0
BITMAP
01B10000
01AC1000
00086000
00000000
BA0001E6
4F2007D0
0B901E50
03F27C00
00B9D500
003FC000
000D7000
000D7000
000D7000
000D7000
ENDCHAR
STARTCHAR ygrave
ENCODING 7923
SWIDTH 467 0
DWIDTH 7 0
BBX 8 15 0 -3
BITMAP
02B20000
009D1000
00077000
00000000
9B0002F2
3F2007B0
0C700C60
06D02F10
01E37B00
0099C500
003EE100
000CA000
001E4000
019C0000
5EB20000
ENDCHAR
STARTCHAR uni1EF4
ENCODING 7924
SWIDTH 476 0
DWIDTH 8 0
BBX 8 14 0 -4
BITMAP
BA0001E6
4F2007D0
0B901E50
03F27C00
00B9D500
003FC000
000D7000
000D7000
000D7000
000D7000
00000000
00000000
000C7000
000C7000
ENDCHAR
STARTCHAR uni1EF5
ENCODING 7925
SWIDTH 467 0
DWIDTH 7 0
BBX 8 12 0 -4
BITMAP
9B0002F2
3F2007B0
0C700C60
06D02F10
01E37B00
0099C500
003EE100
000CA000
001E4000
019C0000
5EB206D0
000006D0
ENDCHAR
STARTCHAR uni1EF6
ENCODING 7926
SWIDTH 476 0
DWIDTH 8 0
BBX 8 14 0 0
BITMAP
003E8000
0004F000
000B7000
00000000
BA0001E6
4F2007D0
0B901E50
03F27C00
00B9D500
003FC000
000D7000
000D7000
000D7000
000D7000
ENDCHAR
STARTCHAR uni1EF7
ENCODING 7927
SWIDTH 467 0
DWIDTH 7 0
BBX 8 16 0 -3
BITMAP
003D6000
0003E100
0003F100
000A6000
00000000
9B0002F2
3F2007B0
0C700C60
06D02F10
01E37B00
0099C500
003EE100
000CA000
001E4000
019C0000
5EB20000
ENDCHAR
STARTCHAR uni1EF8
ENCODING 7928
SWIDTH 476 0
DWIDTH 8 0
BBX 8 14 0 0
BITMAP
00100000
08ED3780
0C15DD20
00000000
BA0001E6
4F2007D0
0B901E50
03F27C00
00B9D500
003FC000
000D7000
000D7000
000D7000
000D7000
ENDCHAR
STARTCHAR uni1EF9
ENCODING 7929
SWIDTH 467 0
DWIDTH 7 0
BBX 8 15 0 -3
BITMAP
00520130
08CD4780
0B13CD20
00000000
9B0002F2
3F2007B0
0C700C60
06D02F10
01E37B00
0099C500
003EE100
000CA000
001E4000
019C0000
5EB20000
ENDCHAR
STARTCHAR uni1F00
ENCODING 7936
SWIDTH 560 0
DWIDTH 9 0
BBX 9 13 0 0
BITMAP
0007C30000
00007B0000
00007B0000
0001C30000
0000000000
007EE83F20
08E419AE00
1E6000EB00
3F3000C800
3F2000D600
1F4000E400
0AC218D600
01AED46E90
ENDCHAR
STARTCHAR uni1F01
ENCODING 7937
SWIDTH 560 0
DWIDTH 9 0
BBX 9 12 0 0
BITMAP
0003C90000
000A800000
0005C10000
0000000000
007EE83F20
08E419AE00
1E6000EB00
3F3000C800
3F2000D600
1F4000E400
0AC218D600
01AED46E90
ENDCHAR
STARTCHAR uni1F02
ENCODING 7938
SWIDTH 560 0
DWIDTH 9 0
BBX 9 12 0 0
BITMAP
00D94C0000
002E2E1000
0069094000
0000000000
007EE83F20
08E419AE00
1E6000EB00
3F3000C800
3F2000D600
1F4000E400
0AC218D600
01AED46E90
ENDCHAR
STARTCHAR uni1F03
ENCODING 7939
SWIDTH 560 0
DWIDTH 9 0
BBX 9 12 0 0
BITMAP
008E6B0000
00F31E0000
00780A3000
0000000000
007EE83F20
08E419AE00
1E6000EB00
3F3000C800
3F2000D600
1F4000E400
0AC218D600
01AED46E90
ENDCHAR
STARTCHAR uni1F04
ENCODING 7940
SWIDTH 560 0
DWIDTH 9 0
BBX 9 12 0 0
BITMAP
00D90A6000
002E2E2000
00692A0000
0000000000
007EE83F20
08E419AE00
1E6000EB00
3F3000C800
3F2000D600
1F4000E400
0AC218D600
01AED46E90
ENDCHAR
STARTCHAR uni1F05
ENCODING 7941
SWIDTH 560 0
DWIDTH 9 0
BBX 9 12 0 0
BITMAP
006D3C4000
00D51E1000
005A490000
0000000000
007EE83F20
08E419AE00
1E6000EB00
3F3000C800
3F2000D600
1F4000E400
0AC218D600
01AED46E90
ENDCHAR
STARTCHAR uni1F06
ENCODING 7942
SWIDTH 560 0
DWIDTH 9 0
BBX 9 15 0 0
BITMAP
003C829000
00959E6000
0000000000
0006D40000
0000890000
0000B20000
0000000000
007EE83F20
08E419AE00
1E6000EB00
3F3000C800
3F2000D600
1F4000E400
0AC218D600
01AED46E90
ENDCHAR
STARTCHAR uni1F07
ENCODING 7943
SWIDTH 560 0
DWIDTH 9 0
BBX 9 15 0 0
BITMAP
003C829000
00959E6000
0000000000
0003C70000
0007A00000
0002B10000
0000000000
007EE83F20
08E419AE00
1E6000EB00
3F3000C800
3F2000D600
1F4000E400
0AC218D600
01AED46E90
ENDCHAR
STARTCHAR uni1F08
ENCODING 7944
SWIDTH 580 0
DWIDTH 9 0
BBX 10 10 0 0
BITMAP
E801ED0000
2D35BE3000
3D1B799000
421F25E000
006C00E400
00B800AA00
02FFFFFE10
07D0001E50
0C80000AB0
3F300005F1
ENDCHAR
STARTCHAR uni1F09
ENCODING 7945
SWIDTH 573 0
DWIDTH 9 0
BBX 10 10 -1 0
BITMAP
07E12FB000
2E207AF200
1D30C5B700
0243F17C00
0008B02F30
000D600C80
004FFFFFD0
009B0002F4
00E60000C9
05F100007E
ENDCHAR
STARTCHAR uni1F0A
ENCODING 7946
SWIDTH 714 0
DWIDTH 11 0
BBX 13 10 -1 0
BITMAP
2D46A00DE10000
05C4D03DC50000
0690E0997B0000
040030E43F1000
000004E00D6000
00000A9008C000
00001EFFFFF200
00005E0000D700
0000B900008D00
0001F400003F30
ENDCHAR
STARTCHAR uni1F0B
ENCODING 7947
SWIDTH 710 0
DWIDTH 11 0
BBX 13 10 -1 0
BITMAP
08B7900EE00000
2D14C04CD40000
1D21E0A88A0000
022031E34E1000
000005D00E5000
00000B9009B000
00001FFFFFF100
00006E0000E600
0000C900009C00
0002F300004F20
ENDCHAR
STARTCHAR uni1F0C
ENCODING 7948
SWIDTH 709 0
DWIDTH 11 0
BBX 13 10 -1 0
BITMAP
2D43D00EE00000
05C5B04CD40000
069770A88A0000
040211E34E1000
000005D00E5000
00000B9009B000
00001FFFFFF100
00006E0000E600
0000C900009C00
0002F300004F20
ENDCHAR
STARTCHAR uni1F0D
ENCODING 7949
SWIDTH 705 0
DWIDTH 11 0
BBX 13 10 -1 0
BITMAP
08B4D01ED00000
2D16A05BE30000
1D2870B7990000
022211F25E0000
000006C00E4000
00000B800AA000
00002FFFFFE100
00007D0001E500
0000C80000AB00
0003F300005F10
ENDCHAR
STARTCHAR uni1F0E
ENCODING 7950
SWIDTH 613 0
DWIDTH 10 0
BBX 11 11 -1 0
BITMAP
1D8640000000
468D17F60000
06C30CAB0000
00973E2F2000
00508A0C7000
0000D507C000
0004F102F200
0009FFFFF800
000E50007D00
005F10002F30
00AA00000C90
ENDCHAR
STARTCHAR uni1F0F
ENCODING 7951
SWIDTH 613 0
DWIDTH 10 0
BBX 11 11 -1 0
BITMAP
1D8640000000
468D17F60000
03C60CAB0000
07A03E2F2000
00608A0C7000
0000D507C000
0004F102F200
0009FFFFF800
000E50007D00
005F10002F30
00AA00000C90
ENDCHAR
STARTCHAR uni1F10
ENCODING 7952
SWIDTH 448 0
DWIDTH 7 0
BBX 7 13 0 0
BITMAP
001E7000
0002E200
0002E200
00097000
00000000
02BEEB30
0CA21630
0AA10000
03EFF300
1E710000
3F100000
1E911560
03BEEC40
ENDCHAR
STARTCHAR uni1F11
ENCODING 7953
SWIDTH 448 0
DWIDTH 7 0
BBX 7 12 0 0
BITMAP
0009E000
004D1000
001C5000
00000000
02BEEB30
0CA21630
0AA10000
03EFF300
1E710000
3F100000
1E911560
03BEEC40
ENDCHAR
STARTCHAR uni1F12
ENCODING 7954
SWIDTH 448 0
DWIDTH 7 0
BBX 7 12 0 0
BITMAP
07C3C400
00988700
01C23A00
00000000
02BEEB30
0CA21630
0AA10000
03EFF300
1E710000
3F100000
1E911560
03BEEC40
ENDCHAR
STARTCHAR uni1F13
ENCODING 7955
SWIDTH 448 0
DWIDTH 7 0
BBX 7 12 0 0
BITMAP
03C7D300
0980A600
03C04800
00000000
02BEEB30
0CA21630
0AA10000
03EFF300
1E710000
3F100000
1E911560
03BEEC40
ENDCHAR
STARTCHAR uni1F14
ENCODING 7956
SWIDTH 448 0
DWIDTH 7 0
BBX 7 12 0 0
BITMAP
07C35B00
00988800
01C2B200
00000000
02BEEB30
0CA21630
0AA10000
03EFF300
1E710000
3F100000
1E911560
03BEEC40
ENDCHAR
STARTCHAR uni1F15
ENCODING 7957
SWIDTH 448 0
DWIDTH 7 0
BBX 7 12 0 0
BITMAP
02C96A00
06A0A600
01C2C100
00000000
02BEEB30
0CA21630
0AA10000
03EFF300
1E710000
3F100000
1E911560
03BEEC40
ENDCHAR
STARTCHAR uni1F18
ENCODING 7960
SWIDTH 645 0
DWIDTH 10 0
BBX 11 10 -1 0
BITMAP
2E70AFFFFF60
02E1AA000000
04D0AA000000
0410AA000000
0000AFFFFA00
0000AA000000
0000AA000000
0000AA000000
0000AA000000
0000AFFFFF80
ENDCHAR
STARTCHAR uni1F19
ENCODING 7961
SWIDTH 645 0
DWIDTH 10 0
BBX 11 10 -1 0
BITMAP
07E1AFFFFF60
2E20AA000000
1D30AA000000
0240AA000000
0000AFFFFA00
0000AA000000
0000AA000000
0000AA000000
0000AA000000
0000AFFFFF80
ENDCHAR
STARTCHAR uni1F1A
ENCODING 7962
SWIDTH 764 0
DWIDTH 12 0
BBX 13 10 -1 0
BITMAP
2D46A0CFFFFF40
05C4D0C8000000
0690E0C8000000
040030C8000000
000000CFFFF800
000000C8000000
000000C8000000
000000C8000000
000000C8000000
000000CFFFFF70
ENDCHAR
STARTCHAR uni1F1B
ENCODING 7963
SWIDTH 761 0
DWIDTH 12 0
BBX 13 10 -1 0
BITMAP
08B790CFFFFF40
2D14C0C8000000
1D21E0C8000000
022030C8000000
000000CFFFF800
000000C8000000
000000C8000000
000000C8000000
000000C8000000
000000CFFFFF60
ENDCHAR
STARTCHAR uni1F1C
ENCODING 7964
SWIDTH 760 0
DWIDTH 12 0
BBX 13 10 -1 0
BITMAP
2D43D0CFFFFF30
05C5B0C8000000
069770C8000000
040210C8000000
000000CFFFF700
000000C8000000
000000C8000000
000000C8000000
000000C8000000
000000CFFFFF60
ENDCHAR
STARTCHAR uni1F1D
ENCODING 7965
SWIDTH 756 0
DWIDTH 12 0
BBX 13 10 -1 0
BITMAP
08B4D0EFFFFF20
2D16A0E6000000
1D2870E6000000
022210E6000000
000000EFFFF600
000000E6000000
000000E6000000
000000E6000000
000000E6000000
000000EFFFFF40
ENDCHAR
STARTCHAR uni1F20
ENCODING 7968
SWIDTH 541 0
DWIDTH 9 0
BBX 7 15 1 -2
BITMAP
006C4000
0006C000
0006C000
000C3000
00000000
B74DE900
BBA13F40
AC000D60
A9000C70
A9000C70
A9000C70
A9000C70
A9000D70
00000D70
00000D70
ENDCHAR
STARTCHAR uni1F21
ENCODING 7969
SWIDTH 541 0
DWIDTH 9 0
BBX 7 14 1 -2
BITMAP
002BA000
00991000
004C2000
00000000
B74DE900
BBA13F40
AC000D60
A9000C70
A9000C70
A9000C70
A9000C70
A9000D70
00000D70
00000D70
ENDCHAR
STARTCHAR uni1F22
ENCODING 7970
SWIDTH 541 0
DWIDTH 9 0
BBX 7 14 1 -2
BITMAP
0CA3D000
01D3D300
05A07500
00000000
B74DE900
BBA13F40
AC000D60
A9000C70
A9000C70
A9000C70
A9000C70
A9000D70
00000D70
00000D70
ENDCHAR
STARTCHAR uni1F23
ENCODING 7971
SWIDTH 541 0
DWIDTH 9 0
BBX 7 14 1 -2
BITMAP
07E6C000
0D40E100
06909400
00000000
B74DE900
BBA13F40
AC000D60
A9000C70
A9000C70
A9000C70
A9000C70
A9000D70
00000D70
00000D70
ENDCHAR
STARTCHAR uni1F24
ENCODING 7972
SWIDTH 541 0
DWIDTH 9 0
BBX 7 14 1 -2
BITMAP
0CA09700
01D3D300
05A1C000
00000000
B74DE900
BBA13F40
AC000D60
A9000C70
A9000C70
A9000C70
A9000C70
A9000D70
00000D70
00000D70
ENDCHAR
STARTCHAR uni1F25
ENCODING 7973
SWIDTH 541 0
DWIDTH 9 0
BBX 7 14 1 -2
BITMAP
05D4A600
0B60E200
04B2A000
00000000
B74DE900
BBA13F40
AC000D60
A9000C70
A9000C70
A9000C70
A9000C70
A9000D70
00000D70
00000D70
ENDCHAR
STARTCHAR uni1F26
ENCODING 7974
SWIDTH 541 0
DWIDTH 9 0
BBX 7 17 1 -2
BITMAP
02C82A00
0868E700
00000000
004D5000
0007A000
000A3000
00000000
B74DE900
BBA13F40
AC000D60
A9000C70
A9000C70
A9000C70
A9000C70
A9000D70
00000D70
00000D70
ENDCHAR
STARTCHAR uni1F27
ENCODING 7975
SWIDTH 541 0
DWIDTH 9 0
BBX 7 17 1 -2
BITMAP
02C82A00
0868E700
00000000
002C8000
006B0000
001B2000
00000000
B74DE900
BBA13F40
AC000D60
A9000C70
A9000C70
A9000C70
A9000C70
A9000D70
00000D70
00000D70
ENDCHAR
STARTCHAR uni1F28
ENCODING 7976
SWIDTH 770 0
DWIDTH 12 0
BBX 12 10 -1 0
BITMAP
2E70AA00007D
02E1AA00007D
04D0AA00007D
0410AA00007D
0000AFFFFFFD
0000AA00007D
0000AA00007D
0000AA00007D
0000AA00007D
0000AA00007D
ENDCHAR
STARTCHAR uni1F29
ENCODING 7977
SWIDTH 770 0
DWIDTH 12 0
BBX 12 10 -1 0
BITMAP
07E1AA00007D
2E20AA00007D
1D30AA00007D
0240AA00007D
0000AFFFFFFD
0000AA00007D
0000AA00007D
0000AA00007D
0000AA00007D
0000AA00007D
ENDCHAR
STARTCHAR uni1F2A
ENCODING 7978
SWIDTH 889 0
DWIDTH 14 0
BBX 14 10 -1 0
BITMAP
2D46A0C800008C
05C4D0C800008C
0690E0C800008C
040030C800008C
000000CFFFFFFC
000000C800008C
000000C800008C
000000C800008C
000000C800008C
000000C800008C
ENDCHAR
STARTCHAR uni1F2B
ENCODING 7979
SWIDTH 885 0
DWIDTH 14 0
BBX 14 10 -1 0
BITMAP
08B790C800009B
2D14C0C800009B
1D21E0C800009B
022030C800009B
000000CFFFFFFB
000000C800009B
000000C800009B
000000C800009B
000000C800009B
000000C800009B
ENDCHAR
STARTCHAR uni1F2C
ENCODING 7980
SWIDTH 885 0
DWIDTH 14 0
BBX 14 10 -1 0
BITMAP
2D43D0C800009B
05C5B0C800009B
069770C800009B
040210C800009B
000000CFFFFFFB
000000C800009B
000000C800009B
000000C800009B
000000C800009B
000000C800009B
ENDCHAR
STARTCHAR uni1F2D
ENCODING 7981
SWIDTH 881 0
DWIDTH 14 0
BBX 14 10 -1 0
BITMAP
08B4D0E60000BA
2D16A0E60000BA
1D2870E60000BA
022210E60000BA
000000EFFFFFFA
000000E60000BA
000000E60000BA
000000E60000BA
000000E60000BA
000000E60000BA
ENDCHAR
STARTCHAR uni1F2E
ENCODING 7982
SWIDTH 840 0
DWIDTH 13 0
BBX 13 11 -1 0
BITMAP
1D864000000000
468D18C00005F0
06C308C00005F0
009708C00005F0
005008C00005F0
000008FFFFFFF0
000008C00005F0
000008C00005F0
000008C00005F0
000008C00005F0
000008C00005F0
ENDCHAR
STARTCHAR uni1F2F
ENCODING 7983
SWIDTH 840 0
DWIDTH 13 0
BBX 13 11 -1 0
BITMAP
1D864000000000
468D18C00005F0
03C608C00005F0
07A008C00005F0
006008C00005F0
000008FFFFFFF0
000008C00005F0
000008C00005F0
000008C00005F0
000008C00005F0
000008C00005F0
ENDCHAR
STARTCHAR uni1F30
ENCODING 7984
SWIDTH 262 0
DWIDTH 4 0
BBX 4 13 0 0
BITMAP
1E70
02E3
02E2
0870
0000
0A90
0A90
0A90
0A90
0A80
0A80
0A90
05E9
ENDCHAR
STARTCHAR uni1F31
ENCODING 7985
SWIDTH 262 0
DWIDTH 4 0
BBX 4 12 0 0
BITMAP
09E1
3D20
1B60
0000
0A90
0A90
0A90
0A90
0A80
0A80
0A90
05E9
ENDCHAR
STARTCHAR uni1F32
ENCODING 7986
SWIDTH 262 0
DWIDTH 4 0
BBX 5 12 -1 0
BITMAP
7C3B50
098880
0C32A0
000000
00A900
00A900
00A900
00A900
00A800
00A800
00A900
005E90
ENDCHAR
STARTCHAR uni1F33
ENCODING 7987
SWIDTH 262 0
DWIDTH 4 0
BBX 5 12 -1 0
BITMAP
3C7D30
890960
3C0490
000000
00A900
00A900
00A900
00A900
00A800
00A800
00A900
005E90
ENDCHAR
STARTCHAR uni1F34
ENCODING 7988
SWIDTH 262 0
DWIDTH 4 0
BBX 5 12 -1 0
BITMAP
7C34C0
098880
0C3A20
000000
00A900
00A900
00A900
00A900
00A800
00A800
00A900
005E90
ENDCHAR
STARTCHAR uni1F35
ENCODING 7989
SWIDTH 262 0
DWIDTH 4 0
BBX 5 12 -1 0
BITMAP
2B95A0
6B1970
1C3C10
000000
00A900
00A900
00A900
00A900
00A800
00A800
00A900
005E90
ENDCHAR
STARTCHAR uni1F36
ENCODING 7990
SWIDTH 262 0
DWIDTH 4 0
BBX 6 15 -1 0
BITMAP
0AB392
3A5DC0
000000
00D900
002F00
007700
000000
00A900
00A900
00A900
00A900
00A800
00A800
00A900
005E90
ENDCHAR
STARTCHAR uni1F37
ENCODING 7991
SWIDTH 262 0
DWIDTH 4 0
BBX 6 15 -1 0
BITMAP
0AB392
3A5DC0
000000
009D00
01F200
007700
000000
00A900
00A900
00A900
00A900
00A800
00A800
00A900
005E90
ENDCHAR
STARTCHAR uni1F38
ENCODING 7992
SWIDTH 381 0
DWIDTH 6 0
BBX 6 10 -1 0
BITMAP
2E70AA
02E1AA
04D0AA
0410AA
0000AA
0000AA
0000AA
0000AA
0000AA
0000AA
ENDCHAR
STARTCHAR uni1F39
ENCODING 7993
SWIDTH 381 0
DWIDTH 6 0
BBX 6 10 -1 0
BITMAP
07E1AA
2E20AA
1D30AA
0240AA
0000AA
0000AA
0000AA
0000AA
0000AA
0000AA
ENDCHAR
STARTCHAR uni1F3A
ENCODING 7994
SWIDTH 500 0
DWIDTH 8 0
BBX 8 10 -1 0
BITMAP
2D46A0C8
05C4D0C8
0690E0C8
040030C8
000000C8
000000C8
000000C8
000000C8
000000C8
000000C8
ENDCHAR
STARTCHAR uni1F3B
ENCODING 7995
SWIDTH 497 0
DWIDTH 8 0
BBX 8 10 -1 0
BITMAP
08B790C8
2D14C0C8
1D21E0C8
022030C8
000000C8
000000C8
000000C8
000000C8
000000C8
000000C8
ENDCHAR
STARTCHAR uni1F3C
ENCODING 7996
SWIDTH 496 0
DWIDTH 8 0
BBX 8 10 -1 0
BITMAP
2D43D0C8
05C5B0C8
069770C8
040210C8
000000C8
000000C8
000000C8
000000C8
000000C8
000000C8
ENDCHAR
STARTCHAR uni1F3D
ENCODING 7997
SWIDTH 492 0
DWIDTH 8 0
BBX 8 10 -1 0
BITMAP
08B4D0E6
2D16A0E6
1D2870E6
022210E6
000000E6
000000E6
000000E6
000000E6
000000E6
000000E6
ENDCHAR
STARTCHAR uni1F3E
ENCODING 7998
SWIDTH 451 0
DWIDTH 7 0
BBX 7 11 -1 0
BITMAP
1D864000
468D18C0
06C308C0
009708C0
005008C0
000008C0
000008C0
000008C0
000008C0
000008C0
000008C0
ENDCHAR
STARTCHAR uni1F3F
ENCODING 7999
SWIDTH 451 0
DWIDTH 7 0
BBX 7 11 -1 0
BITMAP
1D864000
468D18C0
03C608C0
07A008C0
006008C0
000008C0
000008C0
000008C0
000008C0
000008C0
000008C0
ENDCHAR
STARTCHAR uni1F40
ENCODING 8000
SWIDTH 535 0
DWIDTH 9 0
BBX 8 13 0 0
BITMAP
000BA100
0001B700
0001B700
0004A100
00000000
007DFB30
08D317E2
1F5000C9
3F20009C
3F20009C
1F5000C9
08D317E2
007DFB30
ENDCHAR
STARTCHAR uni1F41
ENCODING 8001
SWIDTH 535 0
DWIDTH 9 0
BBX 8 12 0 0
BITMAP
0005D500
000E4000
0008A000
00000000
007DFB30
08D317E2
1F5000C9
3F20009C
3F20009C
1F5000C9
08D317E2
007DFB30
ENDCHAR
STARTCHAR uni1F42
ENCODING 8002
SWIDTH 535 0
DWIDTH 9 0
BBX 8 12 0 0
BITMAP
03D67900
004D3C00
00A60C10
00000000
007DFB30
08D317E2
1F5000C9
3F20009C
3F20009C
1F5000C9
08D317E2
007DFB30
ENDCHAR
STARTCHAR uni1F43
ENCODING 8003
SWIDTH 535 0
DWIDTH 9 0
BBX 8 12 0 0
BITMAP
01AB9700
04C15B00
00A50C00
00000000
007DFB30
08D317E2
1F5000C9
3F20009C
3F20009C
1F5000C9
08D317E2
007DFB30
ENDCHAR
STARTCHAR uni1F44
ENCODING 8004
SWIDTH 535 0
DWIDTH 9 0
BBX 8 12 0 0
BITMAP
03D60D20
004D3D00
00A66700
00000000
007DFB30
08D317E2
1F5000C9
3F20009C
3F20009C
1F5000C9
08D317E2
007DFB30
ENDCHAR
STARTCHAR uni1F45
ENCODING 8005
SWIDTH 535 0
DWIDTH 9 0
BBX 8 12 0 0
BITMAP
009D1E10
01E25B00
00977500
00000000
007DFB30
08D317E2
1F5000C9
3F20009C
3F20009C
1F5000C9
08D317E2
007DFB30
ENDCHAR
STARTCHAR uni1F48
ENCODING 8008
SWIDTH 761 0
DWIDTH 12 0
BBX 13 10 -1 0
BITMAP
2E7005CFEA3000
02E17E6119E400
04D2F60000AD00
0417E000004F30
0009C000001F50
0009C000002F50
0007E000004F30
0002F60000AC00
00007F6119E300
000005CFEA3000
ENDCHAR
STARTCHAR uni1F49
ENCODING 8009
SWIDTH 747 0
DWIDTH 12 0
BBX 13 10 -1 0
BITMAP
07E107DFE91000
2E20BD402BD100
1D35F30000D900
024AB000007E00
000C9000005F20
000C9000005F10
000AB000007E00
0005F30000D900
0000AD402BD100
000007DFE91000
ENDCHAR
STARTCHAR uni1F4A
ENCODING 8010
SWIDTH 884 0
DWIDTH 14 0
BBX 15 10 -1 0
BITMAP
2D46A005CEEB3000
05C4D06F6118F400
0690E2F700009D00
040036F100003F40
000008D000001F60
000008D000001F60
000006F100003F30
000001E70000AD00
0000006F6118F400
00000005CEEB3000
ENDCHAR
STARTCHAR uni1F4B
ENCODING 8011
SWIDTH 886 0
DWIDTH 14 0
BBX 15 10 -1 0
BITMAP
08B79005CFEA3000
2D14C07E6119E400
1D21E2F60000AD00
022037E000004F30
000009C000001F50
000009C000002F50
000007E000004F30
000002F60000AC00
0000007F6119E300
00000005CFEA3000
ENDCHAR
STARTCHAR uni1F4C
ENCODING 8012
SWIDTH 880 0
DWIDTH 14 0
BBX 15 10 -1 0
BITMAP
2D43D006CFEA2000
05C5B09E502AE300
069773F40000BB00
040218D000005F10
00000AB000003F30
00000AB000003F30
000008D000005F10
000003F50000CB00
0000008E502AE200
00000006CFEA2000
ENDCHAR
STARTCHAR uni1F4D
ENCODING 8013
SWIDTH 876 0
DWIDTH 14 0
BBX 15 10 -1 0
BITMAP
08B4D007DFE92000
2D16A0AE402AE200
1D2874F30000CA00
022219C000006F10
00000BA000004F20
00000BA000004F20
000009C000006F10
000004F40000DA00
0000009E402BE200
00000007DFE92000
ENDCHAR
STARTCHAR uni1F50
ENCODING 8016
SWIDTH 510 0
DWIDTH 8 0
BBX 7 13 1 0
BITMAP
02D70000
003E1000
002F1000
00960000
00000000
F4009B00
E5005E00
E5002F20
E5001F40
E4002F30
D5004F10
9C22C900
1AEE9100
ENDCHAR
STARTCHAR uni1F51
ENCODING 8017
SWIDTH 510 0
DWIDTH 8 0
BBX 7 12 1 0
BITMAP
009D0000
05C10000
01C50000
00000000
F4009B00
E5005E00
E5002F20
E5001F40
E4002F30
D5004F10
9C22C900
1AEE9100
ENDCHAR
STARTCHAR uni1F52
ENCODING 8018
SWIDTH 510 0
DWIDTH 8 0
BBX 7 12 1 0
BITMAP
8C2C3000
0A797000
1C239000
00000000
F4009B00
E5005E00
E5002F20
E5001F40
E4002F30
D5004F10
9C22C900
1AEE9100
ENDCHAR
STARTCHAR uni1F53
ENCODING 8019
SWIDTH 510 0
DWIDTH 8 0
BBX 7 12 1 0
BITMAP
4D7D2000
980B5000
3C058000
00000000
F4009B00
E5005E00
E5002F20
E5001F40
E4002F30
D5004F10
9C22C900
1AEE9100
ENDCHAR
STARTCHAR uni1F54
ENCODING 8020
SWIDTH 510 0
DWIDTH 8 0
BBX 7 12 1 0
BITMAP
8C25B000
0A797000
1C2B1000
00000000
F4009B00
E5005E00
E5002F20
E5001F40
E4002F30
D5004F10
9C22C900
1AEE9100
ENDCHAR
STARTCHAR uni1F55
ENCODING 8021
SWIDTH 510 0
DWIDTH 8 0
BBX 7 12 1 0
BITMAP
2C879000
7A0A5000
2C2C1000
00000000
F4009B00
E5005E00
E5002F20
E5001F40
E4002F30
D5004F10
9C22C900
1AEE9100
ENDCHAR
STARTCHAR uni1F56
ENCODING 8022
SWIDTH 510 0
DWIDTH 8 0
BBX 7 15 1 0
BITMAP
0BA29100
496DB000
00000000
00E80000
003E0000
00860000
00000000
F4009B00
E5005E00
E5002F20
E5001F40
E4002F30
D5004F10
9C22C900
1AEE9100
ENDCHAR
STARTCHAR uni1F57
ENCODING 8023
SWIDTH 510 0
DWIDTH 8 0
BBX 7 15 1 0
BITMAP
0BA29100
496DB000
00000000
00AC0000
02E10000
00860000
00000000
F4009B00
E5005E00
E5002F20
E5001F40
E4002F30
D5004F10
9C22C900
1AEE9100
ENDCHAR
STARTCHAR uni1F59
ENCODING 8025
SWIDTH 645 0
DWIDTH 10 0
BBX 12 10 -1 0
BITMAP
07E2E50005F2
2E208C000C80
1D301E504E10
024008C0B800
000001E7E100
0000007F8000
0000002F3000
0000002F3000
0000002F3000
0000002F3000
ENDCHAR
STARTCHAR uni1F5B
ENCODING 8027
SWIDTH 769 0
DWIDTH 12 0
BBX 14 10 -1 0
BITMAP
08B791E50005F2
2D14C08C000C80
1D21E01E504E10
02203008C0B800
00000001E7E100
000000007F8000
000000002F3000
000000002F3000
000000002F3000
000000002F3000
ENDCHAR
STARTCHAR uni1F5D
ENCODING 8029
SWIDTH 765 0
DWIDTH 12 0
BBX 14 10 -1 0
BITMAP
08B4D2F40006E1
2D16A09B000D70
1D28702F405E10
02221009B0C700
00000002E7E100
000000008F6000
000000004F2000
000000004F2000
000000004F2000
000000004F2000
ENDCHAR
STARTCHAR uni1F5F
ENCODING 8031
SWIDTH 718 0
DWIDTH 11 0
BBX 13 11 -1 0
BITMAP
1D864000000000
468D2D80002F40
03C606E1009B00
07A000D702F300
0060005E18B000
0000000C8E3000
00000005FA0000
00000000F50000
00000000F50000
00000000F50000
00000000F50000
ENDCHAR
STARTCHAR uni1F60
ENCODING 8032
SWIDTH 701 0
DWIDTH 11 0
BBX 11 13 0 0
BITMAP
00007C300000
000007C00000
000007C00000
00000C300000
000000000000
01B10001C500
08E200009C00
0E8000003F30
2F301F400F50
2F100F300E50
1F301F301F40
0AA17D918E00
01BEB29EC300
ENDCHAR
STARTCHAR uni1F61
ENCODING 8033
SWIDTH 701 0
DWIDTH 11 0
BBX 11 12 0 0
BITMAP
00002B900000
000098000000
00004C200000
000000000000
01B10001C500
08E200009C00
0E8000003F30
2F301F400F50
2F100F300E50
1F301F301F40
0AA17D918E00
01BEB29EC300
ENDCHAR
STARTCHAR uni1F62
ENCODING 8034
SWIDTH 701 0
DWIDTH 11 0
BBX 11 12 0 0
BITMAP
000CA3D00000
0001D3D20000
000690850000
000000000000
01B10001C500
08E200009C00
0E8000003F30
2F301F400F50
2F100F300E50
1F301F301F40
0AA17D918E00
01BEB29EC300
ENDCHAR
STARTCHAR uni1F63
ENCODING 8035
SWIDTH 701 0
DWIDTH 11 0
BBX 11 12 0 0
BITMAP
0007E6C00000
000E31E10000
000790930000
000000000000
01B10001C500
08E200009C00
0E8000003F30
2F301F400F50
2F100F300E50
1F301F301F40
0AA17D918E00
01BEB29EC300
ENDCHAR
STARTCHAR uni1F64
ENCODING 8036
SWIDTH 701 0
DWIDTH 11 0
BBX 11 12 0 0
BITMAP
000CA0A60000
0001D2E20000
000692B00000
000000000000
01B10001C500
08E200009C00
0E8000003F30
2F301F400F50
2F100F300E50
1F301F301F40
0AA17D918E00
01BEB29EC300
ENDCHAR
STARTCHAR uni1F65
ENCODING 8037
SWIDTH 701 0
DWIDTH 11 0
BBX 11 12 0 0
BITMAP
0005D4B50000
000C51E10000
0005B3A00000
000000000000
01B10001C500
08E200009C00
0E8000003F30
2F301F400F50
2F100F300E50
1F301F301F40
0AA17D918E00
01BEB29EC300
ENDCHAR
STARTCHAR uni1F66
ENCODING 8038
SWIDTH 701 0
DWIDTH 11 0
BBX 11 15 0 0
BITMAP
0003C82A0000
000858E60000
000000000000
00005D400000
000008900000
00000B300000
000000000000
01B10001C500
08E200009C00
0E8000003F30
2F301F400F50
2F100F300E50
1F301F301F40
0AA17D918E00
01BEB29EC300
ENDCHAR
STARTCHAR uni1F67
ENCODING 8039
SWIDTH 701 0
DWIDTH 11 0
BBX 11 15 0 0
BITMAP
0003C82A0000
000858E60000
000000000000
00002C800000
00006B000000
00001B100000
000000000000
01B10001C500
08E200009C00
0E8000003F30
2F301F400F50
2F100F300E50
1F301F301F40
0AA17D918E00
01BEB29EC300
ENDCHAR
STARTCHAR uni1F68
ENCODING 8040
SWIDTH 773 0
DWIDTH 12 0
BBX 13 10 -1 0
BITMAP
2E7004BEEB4000
02E15F7117F500
04D1E700008E10
0415F100002F50
0007E000000E70
0006E000000F60
0003F200003F20
0000B90000AB00
00002E7008D200
000BFFF01FFFA0
ENDCHAR
STARTCHAR uni1F69
ENCODING 8041
SWIDTH 759 0
DWIDTH 12 0
BBX 13 10 -1 0
BITMAP
07E106CFEA2000
2E209E502AE300
1D33F40000BB00
0249C000005F10
000BA000003F30
000AB000003F20
0006E000007E00
0001E60001D700
00004E400AB000
000EFFC04FFF70
ENDCHAR
STARTCHAR uni1F6A
ENCODING 8042
SWIDTH 900 0
DWIDTH 14 0
BBX 15 10 -1 0
BITMAP
2D46A004BEEB4000
05C4D05F7117F500
0690E1E700007E10
040035F100001F50
000007E000000E70
000006F000000F60
000003F300003F30
000000BA0000AB00
0000002D7007D200
00000BFFF00FFFB0
ENDCHAR
STARTCHAR uni1F6B
ENCODING 8043
SWIDTH 896 0
DWIDTH 14 0
BBX 15 10 -1 0
BITMAP
08B79005BEEB3000
2D14C06F6118F500
1D21E1E600008E00
022036F000002F40
000008D000000F60
000007E000001F50
000003F200004F20
000000C90000BA00
0000002E6008D100
00000CFFF01FFFA0
ENDCHAR
STARTCHAR uni1F6C
ENCODING 8044
SWIDTH 895 0
DWIDTH 14 0
BBX 15 10 -1 0
BITMAP
2D43D005CEEB3000
05C5B06F6118F400
069771E600009D00
040216F000002F40
000008D000000F60
000007D000001F50
000004F200004F20
000000C90000BA00
0000002E6008D100
00000CFFE01FFF90
ENDCHAR
STARTCHAR uni1F6D
ENCODING 8045
SWIDTH 891 0
DWIDTH 14 0
BBX 15 10 -1 0
BITMAP
08B4D005CEEA3000
2D16A07E6118F400
1D2872E500009D00
022217E000003F30
000009C000001F50
000008D000001F40
000004F100005F10
000000D80000C900
0000003E5009C100
00000CFFE02FFF90
ENDCHAR
STARTCHAR uni1F6E
ENCODING 8046
SWIDTH 817 0
DWIDTH 13 0
BBX 14 11 -1 0
BITMAP
1D864000000000
468D107DFE9200
06C30AD402BE20
00974F30000CA0
0050AB000006F1
0000C9000004F2
0000BA000004F1
00007D000008D0
00002E50001E60
000005E301BA00
0000FFFB05FFF6
ENDCHAR
STARTCHAR uni1F6F
ENCODING 8047
SWIDTH 817 0
DWIDTH 13 0
BBX 14 11 -1 0
BITMAP
1D864000000000
468D107DFE9200
03C60AD402BE20
07A04F30000CA0
0060AB000006F1
0000C9000004F2
0000BA000004F1
00007D000008D0
00002E50001E60
000005E301BA00
0000FFFB05FFF6
ENDCHAR
STARTCHAR uni1F70
ENCODING 8048
SWIDTH 560 0
DWIDTH 9 0
BBX 9 12 0 0
BITMAP
0059000000
002C900000
0001B30000
0000000000
007EE83F20
08E419AE00
1E6000EB00
3F3000C800
3F2000D600
1F4000E400
0AC218D600
01AED46E90
ENDCHAR
STARTCHAR uni1F71
ENCODING 8049
SWIDTH 560 0
DWIDTH 9 0
BBX 9 12 0 0
BITMAP
0000087000
00007D2000
0002B10000
0000000000
007EE83F20
08E419AE00
1E6000EB00
3F3000C800
3F2000D600
1F4000E400
0AC218D600
01AED46E90
ENDCHAR
STARTCHAR uni1F72
ENCODING 8050
SWIDTH 448 0
DWIDTH 7 0
BBX 7 12 0 0
BITMAP
01B20000
008D2000
00068000
00000000
02BEEB30
0CA21630
0AA10000
03EFF300
1E710000
3F100000
1E911560
03BEEC40
ENDCHAR
STARTCHAR uni1F73
ENCODING 8051
SWIDTH 448 0
DWIDTH 7 0
BBX 7 12 0 0
BITMAP
00003B10
0002E700
00095000
00000000
02BEEB30
0CA21630
0AA10000
03EFF300
1E710000
3F100000
1E911560
03BEEC40
ENDCHAR
STARTCHAR uni1F74
ENCODING 8052
SWIDTH 541 0
DWIDTH 9 0
BBX 7 14 1 -2
BITMAP
04A00000
01CA0000
000A4000
00000000
B74DE900
BBA13F40
AC000D60
A9000C70
A9000C70
A9000C70
A9000C70
A9000D70
00000D70
00000D70
ENDCHAR
STARTCHAR uni1F75
ENCODING 8053
SWIDTH 541 0
DWIDTH 9 0
BBX 7 14 1 -2
BITMAP
00007800
0006E300
001C2000
00000000
B74DE900
BBA13F40
AC000D60
A9000C70
A9000C70
A9000C70
A9000C70
A9000D70
00000D70
00000D70
ENDCHAR
STARTCHAR uni1F76
ENCODING 8054
SWIDTH 262 0
DWIDTH 4 0
BBX 5 12 -1 0
BITMAP
1B2000
08D200
006900
000000
00A900
00A900
00A900
00A900
00A800
00A800
00A900
005E90
ENDCHAR
STARTCHAR uni1F77
ENCODING 8055
SWIDTH 262 0
DWIDTH 4 0
BBX 4 12 1 0
BITMAP
03B1
2E70
9500
0000
A900
A900
A900
A900
A800
A800
A900
5E90
ENDCHAR
STARTCHAR uni1F78
ENCODING 8056
SWIDTH 535 0
DWIDTH 9 0
BBX 8 12 0 0
BITMAP
00960000
004E5000
0003B000
00000000
007DFB30
08D317E2
1F5000C9
3F20009C
3F20009C
1F5000C9
08D317E2
007DFB30
ENDCHAR
STARTCHAR uni1F79
ENCODING 8057
SWIDTH 535 0
DWIDTH 9 0
BBX 8 12 0 0
BITMAP
00001B30
0000BB10
00059000
00000000
007DFB30
08D317E2
1F5000C9
3F20009C
3F20009C
1F5000C9
08D317E2
007DFB30
ENDCHAR
STARTCHAR uni1F7A
ENCODING 8058
SWIDTH 510 0
DWIDTH 8 0
BBX 7 12 1 0
BITMAP
2B200000
09D10000
00780000
00000000
F4009B00
E5005E00
E5002F20
E5001F40
E4002F30
D5004F10
9C22C900
1AEE9100
ENDCHAR
STARTCHAR uni1F7B
ENCODING 8059
SWIDTH 510 0
DWIDTH 8 0
BBX 7 12 1 0
BITMAP
0004B000
003E6000
00A40000
00000000
F4009B00
E5005E00
E5002F20
E5001F40
E4002F30
D5004F10
9C22C900
1AEE9100
ENDCHAR
STARTCHAR uni1F7C
ENCODING 8060
SWIDTH 701 0
DWIDTH 11 0
BBX 11 12 0 0
BITMAP
0005A0000000
0001C9000000
00001A300000
000000000000
01B10001C500
08E200009C00
0E8000003F30
2F301F400F50
2F100F300E50
1F301F301F40
0AA17D918E00
01BEB29EC300
ENDCHAR
STARTCHAR uni1F7D
ENCODING 8061
SWIDTH 701 0
DWIDTH 11 0
BBX 11 12 0 0
BITMAP
000000870000
000007D30000
00001B200000
000000000000
01B10001C500
08E200009C00
0E8000003F30
2F301F400F50
2F100F300E50
1F301F301F40
0AA17D918E00
01BEB29EC300
ENDCHAR
STARTCHAR uni1F80
ENCODING 8064
SWIDTH 560 0
DWIDTH 9 0
BBX 9 16 0 -3
BITMAP
0007C30000
00007B0000
00007B0000
0001C30000
0000000000
007EE83F20
08E419AE00
1E6000EB00
3F3000C800
3F2000D600
1F4000E400
0AC218D600
01AED46E90
0000500000
0000E20000
00009E0000
ENDCHAR
STARTCHAR uni1F81
ENCODING 8065
SWIDTH 560 0
DWIDTH 9 0
BBX 9 15 0 -3
BITMAP
0003C90000
000A800000
0005C10000
0000000000
007EE83F20
08E419AE00
1E6000EB00
3F3000C800
3F2000D600
1F4000E400
0AC218D600
01AED46E90
0000500000
0000E20000
00009E0000
ENDCHAR
STARTCHAR uni1F82
ENCODING 8066
SWIDTH 560 0
DWIDTH 9 0
BBX 9 15 0 -3
BITMAP
00D94C0000
002E2E1000
0069094000
0000000000
007EE83F20
08E419AE00
1E6000EB00
3F3000C800
3F2000D600
1F4000E400
0AC218D600
01AED46E90
0000500000
0000E20000
00009E0000
ENDCHAR
STARTCHAR uni1F83
ENCODING 8067
SWIDTH 560 0
DWIDTH 9 0
BBX 9 15 0 -3
BITMAP
008E6B0000
00F31E0000
00780A3000
0000000000
007EE83F20
08E419AE00
1E6000EB00
3F3000C800
3F2000D600
1F4000E400
0AC218D600
01AED46E90
0000500000
0000E20000
00009E0000
ENDCHAR
STARTCHAR uni1F84
ENCODING 8068
SWIDTH 560 0
DWIDTH 9 0
BBX 9 15 0 -3
BITMAP
00D90A6000
002E2E2000
00692A0000
0000000000
007EE83F20
08E419AE00
1E6000EB00
3F3000C800
3F2000D600
1F4000E400
0AC218D600
01AED46E90
0000500000
0000E20000
00009E0000
ENDCHAR
STARTCHAR uni1F85
ENCODING 8069
SWIDTH 560 0
DWIDTH 9 0
BBX 9 15 0 -3
BITMAP
006D3C4000
00D51E1000
005A490000
0000000000
007EE83F20
08E419AE00
1E6000EB00
3F3000C800
3F2000D600
1F4000E400
0AC218D600
01AED46E90
0000500000
0000E20000
00009E0000
ENDCHAR
STARTCHAR uni1F86
ENCODING 8070
SWIDTH 560 0
DWIDTH 9 0
BBX 9 18 0 -3
BITMAP
003C829000
00959E6000
0000000000
0006D40000
0000890000
0000B20000
0000000000
007EE83F20
08E419AE00
1E6000EB00
3F3000C800
3F2000D600
1F4000E400
0AC218D600
01AED46E90
0000500000
0000E20000
00009E0000
ENDCHAR
STARTCHAR uni1F87
ENCODING 8071
SWIDTH 560 0
DWIDTH 9 0
BBX 9 18 0 -3
BITMAP
003C829000
00959E6000
0000000000
0003C70000
0007A00000
0002B10000
0000000000
007EE83F20
08E419AE00
1E6000EB00
3F3000C800
3F2000D600
1F4000E400
0AC218D600
01AED46E90
0000500000
0000E20000
00009E0000
ENDCHAR
STARTCHAR uni1F88
ENCODING 8072
SWIDTH 839 0
DWIDTH 13 0
BBX 13 10 0 0
BITMAP
E801ED00000000
2D35BE30000000
3D1B7990000000
421F25E0006D00
006C00E4006D00
00B800AA006D00
02FFFFFE106D00
07D0001E506C00
0C80000AB06D10
3F300005F11DE0
ENDCHAR
STARTCHAR uni1F89
ENCODING 8073
SWIDTH 832 0
DWIDTH 13 0
BBX 14 10 -1 0
BITMAP
07E12FB0000000
2E207AF2000000
1D30C5B7000000
0243F17C0008C0
0008B02F3008B0
000D600C8008B0
004FFFFFD008B0
009B0002F408A0
00E60000C908C0
05F100007E03EC
ENDCHAR
STARTCHAR uni1F8A
ENCODING 8074
SWIDTH 972 0
DWIDTH 16 0
BBX 17 10 -1 0
BITMAP
2D46A00DE100000000
05C4D03DC500000000
0690E0997B00000000
040030E43F1004F000
000004E00D6004F000
00000A9008C004F000
00001EFFFFF204E000
00005E0000D704E000
0000B900008D04F100
0001F400003F31CE10
ENDCHAR
STARTCHAR uni1F8B
ENCODING 8075
SWIDTH 968 0
DWIDTH 15 0
BBX 16 10 -1 0
BITMAP
08B7900EE0000000
2D14C04CD4000000
1D21E0A88A000000
022031E34E1005E0
000005D00E5005E0
00000B9009B005E0
00001FFFFFF105D0
00006E0000E605D0
0000C900009C05E1
0002F300004F21CE
ENDCHAR
STARTCHAR uni1F8C
ENCODING 8076
SWIDTH 968 0
DWIDTH 15 0
BBX 16 10 -1 0
BITMAP
2D43D00EE0000000
05C5B04CD4000000
069770A88A000000
040211E34E1006E0
000005D00E5006E0
00000B9009B006D0
00001FFFFFF106D0
00006E0000E606D0
0000C900009C05E1
0002F300004F21DE
ENDCHAR
STARTCHAR uni1F8D
ENCODING 8077
SWIDTH 964 0
DWIDTH 15 0
BBX 16 10 -1 0
BITMAP
08B4D01ED0000000
2D16A05BE3000000
1D2870B799000000
022211F25E0007D0
000006C00E4007D0
00000B800AA007D0
00002FFFFFE107C0
00007D0001E507C0
0000C80000AB06D1
0003F300005F12DD
ENDCHAR
STARTCHAR uni1F8E
ENCODING 8078
SWIDTH 872 0
DWIDTH 14 0
BBX 15 11 -1 0
BITMAP
1D86400000000000
468D17F600000000
06C30CAB00000000
00973E2F20000000
00508A0C7000E600
0000D507C000E600
0004F102F200E500
0009FFFFF800E500
000E50007D00E500
005F10002F30D600
00AA00000C907E60
ENDCHAR
STARTCHAR uni1F8F
ENCODING 8079
SWIDTH 872 0
DWIDTH 14 0
BBX 15 11 -1 0
BITMAP
1D86400000000000
468D17F600000000
03C60CAB00000000
07A03E2F20000000
00608A0C7000E600
0000D507C000E600
0004F102F200E500
0009FFFFF800E500
000E50007D00E500
005F10002F30D600
00AA00000C907E60
ENDCHAR
STARTCHAR uni1F90
ENCODING 8080
SWIDTH 541 0
DWIDTH 9 0
BBX 7 16 1 -3
BITMAP
006C4000
0006C000
0006C000
000C3000
00000000
B74DE900
BBA13F40
AC000D60
A9000C70
A9000C70
A9000C70
A9000C70
A9000D70
32000D70
96000D70
5E400000
ENDCHAR
STARTCHAR uni1F91
ENCODING 8081
SWIDTH 541 0
DWIDTH 9 0
BBX 7 15 1 -3
BITMAP
002BA000
00991000
004C2000
00000000
B74DE900
BBA13F40
AC000D60
A9000C70
A9000C70
A9000C70
A9000C70
A9000D70
32000D70
96000D70
5E400000
ENDCHAR
STARTCHAR uni1F92
ENCODING 8082
SWIDTH 541 0
DWIDTH 9 0
BBX 7 15 1 -3
BITMAP
0CA3D000
01D3D300
05A07500
00000000
B74DE900
BBA13F40
AC000D60
A9000C70
A9000C70
A9000C70
A9000C70
A9000D70
32000D70
96000D70
5E400000
ENDCHAR
STARTCHAR uni1F93
ENCODING 8083
SWIDTH 541 0
DWIDTH 9 0
BBX 7 15 1 -3
BITMAP
07E6C000
0D40E100
06909400
00000000
B74DE900
BBA13F40
AC000D60
A9000C70
A9000C70
A9000C70
A9000C70
A9000D70
32000D70
96000D70
5E400000
ENDCHAR
STARTCHAR uni1F94
ENCODING 8084
SWIDTH 541 0
DWIDTH 9 0
BBX 7 15 1 -3
BITMAP
0CA09700
01D3D300
05A1C000
00000000
B74DE900
BBA13F40
AC000D60
A9000C70
A9000C70
A9000C70
A9000C70
A9000D70
32000D70
96000D70
5E400000
ENDCHAR
STARTCHAR uni1F95
ENCODING 8085
SWIDTH 541 0
DWIDTH 9 0
BBX 7 15 1 -3
BITMAP
05D4A600
0B60E200
04B2A000
00000000
B74DE900
BBA13F40
AC000D60
A9000C70
A9000C70
A9000C70
A9000C70
A9000D70
32000D70
96000D70
5E400000
ENDCHAR
STARTCHAR uni1F96
ENCODING 8086
SWIDTH 541 0
DWIDTH 9 0
BBX 7 18 1 -3
BITMAP
02C82A00
0868E700
00000000
004D5000
0007A000
000A3000
00000000
B74DE900
BBA13F40
AC000D60
A9000C70
A9000C70
A9000C70
A9000C70
A9000D70
32000D70
96000D70
5E400000
ENDCHAR
STARTCHAR uni1F97
ENCODING 8087
SWIDTH 541 0
DWIDTH 9 0
BBX 7 18 1 -3
BITMAP
02C82A00
0868E700
00000000
002C8000
006B0000
001B2000
00000000
B74DE900
BBA13F40
AC000D60
A9000C70
A9000C70
A9000C70
A9000C70
A9000D70
32000D70
96000D70
5E400000
ENDCHAR
STARTCHAR uni1F98
ENCODING 8088
SWIDTH 1028 0
DWIDTH 16 0
BBX 17 10 -1 0
BITMAP
2E70AA00007D000000
02E1AA00007D000000
04D0AA00007D000000
0410AA00007D006E00
0000AFFFFFFD006D00
0000AA00007D006D00
0000AA00007D006D00
0000AA00007D006D00
0000AA00007D005D10
0000AA00007D001DE0
ENDCHAR
STARTCHAR uni1F99
ENCODING 8089
SWIDTH 1028 0
DWIDTH 16 0
BBX 17 10 -1 0
BITMAP
07E1AA00007D000000
2E20AA00007D000000
1D30AA00007D000000
0240AA00007D006E00
0000AFFFFFFD006D00
0000AA00007D006D00
0000AA00007D006D00
0000AA00007D006D00
0000AA00007D005D10
0000AA00007D001DE0
ENDCHAR
STARTCHAR uni1F9A
ENCODING 8090
SWIDTH 1148 0
DWIDTH 18 0
BBX 19 10 -1 0
BITMAP
2D46A0C800008C000000
05C4D0C800008C000000
0690E0C800008C000000
040030C800008C008C00
000000CFFFFFFC008C00
000000C800008C008C00
000000C800008C008B00
000000C800008C008B00
000000C800008C007C10
000000C800008C002DC0
ENDCHAR
STARTCHAR uni1F9B
ENCODING 8091
SWIDTH 1144 0
DWIDTH 18 0
BBX 19 10 -1 0
BITMAP
08B790C800009B000000
2D14C0C800009B000000
1D21E0C800009B000000
022030C800009B008B00
000000CFFFFFFB008B00
000000C800009B008B00
000000C800009B008A00
000000C800009B008A00
000000C800009B008B00
000000C800009B003EB0
ENDCHAR
STARTCHAR uni1F9C
ENCODING 8092
SWIDTH 1143 0
DWIDTH 18 0
BBX 19 10 -1 0
BITMAP
2D43D0C800009B000000
05C5B0C800009B000000
069770C800009B000000
040210C800009B008B00
000000CFFFFFFB008B00
000000C800009B008B00
000000C800009B008A00
000000C800009B008A00
000000C800009B008B00
000000C800009B003EB0
ENDCHAR
STARTCHAR uni1F9D
ENCODING 8093
SWIDTH 1140 0
DWIDTH 18 0
BBX 19 10 -1 0
BITMAP
08B4D0E60000BA000000
2D16A0E60000BA000000
1D2870E60000BA000000
022210E60000BA009A00
000000EFFFFFFA009A00
000000E60000BA009A00
000000E60000BA009900
000000E60000BA009900
000000E60000BA009B00
000000E60000BA003EB0
ENDCHAR
STARTCHAR uni1F9E
ENCODING 8094
SWIDTH 1098 0
DWIDTH 18 0
BBX 19 11 -1 0
BITMAP
1D864000000000000000
468D18C00005F0000000
06C308C00005F0000000
009708C00005F0000000
005008C00005F004F100
000008FFFFFFF004F000
000008C00005F004F000
000008C00005F004F000
000008C00005F004E000
000008C00005F004F100
000008C00005F000CE10
ENDCHAR
STARTCHAR uni1F9F
ENCODING 8095
SWIDTH 1098 0
DWIDTH 18 0
BBX 19 11 -1 0
BITMAP
1D864000000000000000
468D18C00005F0000000
03C608C00005F0000000
07A008C00005F0000000
006008C00005F004F100
000008FFFFFFF004F000
000008C00005F004F000
000008C00005F004F000
000008C00005F004E000
000008C00005F004F100
000008C00005F000CE10
ENDCHAR
ENDFONT
